<?xml version="1.0" encoding="utf-8"?>
<!-- Generator: Adobe Illustrator 22.1.0, SVG Export Plug-In . SVG Version: 6.00 Build 0)  -->
<svg version="1.1" xmlns="http://www.w3.org/2000/svg" xmlns:xlink="http://www.w3.org/1999/xlink" x="0px" y="0px"
	 viewBox="0 0 500 500" style="enable-background:new 0 0 500 500;" xml:space="preserve">
<style type="text/css">
	.st0{fill:#E0E0E0;}
	.st1{fill:#EBEBEB;}
	.st2{fill:#F5F5F5;}
	.st3{fill:#263238;}
	.st4{fill:#E8505B;}
	.st5{opacity:0.5;fill:#9E3E39;}
	.st6{fill:#FFBE9D;}
	.st7{fill:#EB996E;}
	.st8{fill:#455A64;}
	.st9{fill:#FF725E;}
	.st10{opacity:0.4;}
	.st11{fill:#155648;}
	.st12{fill:#9E3E39;}
	.st13{opacity:0.6;}
	.st14{fill:#FFFFFF;}
	.st15{fill:#FAFAFA;}
	.st16{fill:#124438;}
	.st17{opacity:0.3;}
</style>
<g id="Background_Complete">
	<path class="st0" d="M338.9,455.9c-37.9-2.2-75.7-5.3-113.6-7.5c-5.6-0.3-11.3-0.7-16.5-2.9c-4.9-2-8.9-5.6-13.4-8.3
		s-9.8-4.9-14.9-3.6c-5.1,1.3-9.2,7.2-6.9,12c-2.7-8.5-5.5-17.4-11.7-23.7c-6.2-6.4-16.9-9.4-24.2-4.3c-8.1,5.7-8.2,17.5-7.3,27.4
		c-2.6-7.4-5.3-15.1-10.5-20.9s-13.8-9.4-21.1-6.6c-5.3,2.1-9.1,7.1-10.8,12.6c-1.7,5.5-1.8,11.3-1.6,17l-0.2,9.1L338.9,455.9z"/>
	<g>
		<path class="st1" d="M249.6,105.9c1-6.9-8.8-12.7-16.2-13.3c-3.5-0.3-7.2,0.3-10.5-0.9c-7.2-2.5-10.1-11.8-17.1-14.8
			c-5.3-2.2-11.3-0.2-16.4,2.3c-5.1,2.6-10.1,5.8-15.8,6.2c-5,0.3-10.3-1.5-14.7,0.9c-3.2,1.8-4.9,5.5-7.9,7.7
			c-2.9,2.1-6.7,2.6-10.3,2.8c-3.6,0.2-7.4,0.2-10.6,1.7c-3.3,1.5-6,5-5.3,8.5L249.6,105.9z"/>
	</g>
	<g>
		<path class="st2" d="M432.6,58.4c0.5-3.4-4.3-6.1-7.8-6.4c-1.7-0.1-3.5,0.1-5.1-0.4c-3.5-1.2-4.9-5.7-8.3-7.2
			c-2.5-1.1-5.5-0.1-7.9,1.1c-2.5,1.2-4.9,2.8-7.7,3c-2.4,0.2-5-0.7-7.1,0.4c-1.6,0.9-2.4,2.7-3.8,3.7c-1.4,1-3.2,1.3-5,1.4
			c-1.7,0.1-3.6,0.1-5.2,0.8c-1.6,0.7-2.9,2.4-2.6,4.1L432.6,58.4z"/>
	</g>
	<g>
		<path class="st1" d="M147.7,69.9c0.6-4.3-5.4-7.8-10-8.2c-2.2-0.2-4.4,0.2-6.5-0.6c-4.4-1.5-6.2-7.3-10.5-9.1
			c-3.2-1.4-7-0.1-10.1,1.4c-3.1,1.6-6.2,3.6-9.8,3.8c-3.1,0.2-6.4-0.9-9,0.6c-2,1.1-3,3.4-4.9,4.8c-1.8,1.3-4.1,1.6-6.4,1.7
			S76,64.5,74,65.4c-2,0.9-3.7,3.1-3.3,5.3L147.7,69.9z"/>
	</g>
</g>
<g id="Background_Simple">
	<path class="st1" d="M432.6,133.2L432.6,133.2c-15.5-25.2-41.3-42.5-70.5-46.5c-11.4-1.5-23-1.2-34.2,1.2
		C294.3,95,265.1,120,253,152.1c-7.1,18.9-9.1,40.6-22.6,55.6c-17.6,19.5-47.4,20.1-73.6,19.3c-26.2-0.8-56.1-0.1-73.6,19.4
		c-11,12.3-14.4,29.7-13.6,46.1c2.3,43.5,33,82.3,72,101.6c39,19.3,84.9,21,127.6,12.5c59.8-11.9,116.6-44.6,150.8-95.1
		c32.6-48.1,41.9-112.8,19.1-165.9C437.3,141.4,435.1,137.2,432.6,133.2z"/>
</g>
<g id="Floor">
	<g>
		<path class="st3" d="M467.4,456.2c0,0.1-97.3,0.3-217.4,0.3c-120.1,0-217.4-0.1-217.4-0.3c0-0.1,97.3-0.3,217.4-0.3
			C370.1,455.9,467.4,456,467.4,456.2z"/>
	</g>
</g>
<g id="Character">
	<g>
		<g>
			<path class="st4" d="M43,178.6c0,0,78.9,38.8,100.8,46.3c17.9,6.1,46.7,8.1,64.1,6.2c3.9-0.4,7.2-1,9.7-1.8
				c13.8-4.4,83.3-18.8,83.3-18.8l83.1-4.5l-1.9-11.3l-95.3,5.8c0,0-55.1,7.6-62.8,16.7c0,0-6.6,9.1-18.1,10.6
				c-11.6,1.5-62.8-10.8-68.6-16.6c-5.8-5.8-7.3-8.5-23.9-12.3s-53.9-30.1-53.9-30.1L41,178.1"/>
			<path class="st5" d="M43,178.6c0,0,78.9,38.8,100.8,46.3c17.9,6.1,46.7,8.1,64.1,6.2c3.9-0.4,7.2-1,9.7-1.8
				c13.8-4.4,83.3-18.8,83.3-18.8l83.1-4.5l-0.7-4.3l-1.1-7l-95.3,5.8c0,0-55.1,7.6-62.8,16.7c0,0-6.6,9.1-18.1,10.6
				c-11.6,1.5-62.8-10.8-68.6-16.6c-5.8-5.8-7.3-8.5-23.9-12.3s-53.9-30.1-53.9-30.1L41,178.1"/>
		</g>
		<g>
			<path class="st6" d="M365.4,149.1l-108.5,0.5c0,0-3.4,0-7.9-2.1c-3.8-1.8-11.8-6.6-14.2-8.2c-0.6-0.4-1.4-0.5-2.1-0.4
				c-0.5,0.1-0.8,0.3-0.6,0.8c0.3,0.6,7,6.4,7,6.4l-12-3.8c-0.7-0.2-1.4-0.2-2,0.2c-0.3,0.2-0.5,0.4-0.4,0.7
				c0.1,0.5,7.3,3.9,7.3,3.9l-9.1-1.6c-0.9-0.1-1.8,0.4-1.9,1.3c0,0.1,0,0.2,0,0.3c0.1,0.8,13,5,13,5l-12,0c-1.3,0-2.2,1.4-1.6,2.6
				c0.7,1.3,18.7,1.8,18.9,3.8c0.2,2-5.1,2.4-6.9,5.2c-1.8,2.7,1.1,3.8,1.1,3.8c1.8-2.2,8.9-4,8.9-4l11,0.6l0,0l102.8,14.6
				l15.8-10.1l6.1-11L365.4,149.1z"/>
			<g>
				<path class="st6" d="M338.7,148.8l-110.8,22c0,0-3.4,0.7-8.4-0.6c-4.2-1.1-13.3-4.5-16.1-5.5c-0.7-0.3-1.5-0.3-2.2,0
					c-0.4,0.2-0.8,0.5-0.5,0.9c0.4,0.6,8.5,5.2,8.5,5.2l-13-1.5c-0.7-0.1-1.5,0.1-2,0.6c-0.2,0.2-0.4,0.5-0.3,0.8
					c0.2,0.5,8.2,2.6,8.2,2.6l-9.6,0.2c-0.9,0-1.7,0.7-1.7,1.7c0,0.1,0,0.2,0,0.3c0.2,0.9,14.3,2.6,14.3,2.6l-12.2,2.4
					c-1.4,0.3-2,1.9-1.1,3c1,1.2,19.5-1.9,20.1,0.2c0.6,2-4.8,3.5-6.1,6.7c-1.3,3.2,1.9,3.7,1.9,3.7c1.4-2.6,8.3-5.8,8.3-5.8
					l11.3-1.6l0,0l107.9-5.4l14.2-13.4l4-12.5L338.7,148.8z"/>
				<g>
					<path class="st7" d="M299.2,156.5c0,0-0.2,0.1-0.7,0.2c-0.5,0.1-1.2,0.3-2.1,0.5c-1.9,0.4-4.5,0.9-7.7,1.6
						c-6.5,1.3-15.5,3.1-25.3,5c-9.9,2-18.8,3.7-25.3,5c-3.2,0.6-5.8,1.2-7.7,1.5c-0.9,0.2-1.6,0.3-2.1,0.4
						c-0.5,0.1-0.7,0.1-0.7,0.1c0,0,0.2-0.1,0.7-0.2c0.5-0.1,1.2-0.3,2.1-0.5c1.8-0.4,4.4-1,7.6-1.7c6.5-1.4,15.4-3.2,25.3-5.2
						c9.9-1.9,18.8-3.6,25.3-4.9c3.2-0.6,5.8-1.1,7.7-1.4c0.9-0.2,1.6-0.3,2.1-0.4C298.9,156.5,299.2,156.4,299.2,156.5z"/>
				</g>
			</g>
			<g>
				<g>
					<g>
						<g>
							<path class="st3" d="M371.6,98.4c-0.3,2-1.8,3.8-3.7,4.4c-1.1,0.4-2.3,0.3-3.4,0.7c-1.1,0.4-2.1,1.4-1.9,2.6
								c0.2,0.8,1,1.4,1.6,2c0.6,0.6,1.2,1.5,0.8,2.3c-0.4,0.9-1.6,0.9-2.3,1.6c-0.7,0.7-0.5,2,0.1,2.8c0.6,0.8,1.5,1.3,2.3,1.9
								c0.8,0.6,1.6,1.3,1.8,2.3"/>
						</g>
					</g>
					<g>
						<g>
							<g>
								<path class="st3" d="M411,116.1c3-6.2,0.9-13.9-3.6-19.1c-4.5-5.2-11.1-8.1-17.7-10c-0.9-0.3-2.1-0.5-2.8,0.2
									c-0.6,0.6-0.4,1.7,0.2,2.4c0.6,0.7,1.4,1,2.2,1.3c-2.7-1.3-5.6-2.3-8.6-2.4c-1,0-2.1,0.1-3,0.6c-0.9,0.6-1.5,1.7-1.2,2.7
									c0.3,1,1.7,1.6,2.5,0.9c-2.8-0.3-5.8,0.3-8.2,1.9c-1.7,1.1-3.3,3-2.9,5c0.2,1.2,1.1,2.1,1.5,3.3c0.7,2.1-0.4,4.3-1.2,6.3
									c-1.3,3.2-2,6.6-1.5,10c0.5,3.4,2.3,6.6,5.3,8.3"/>
							</g>
						</g>
						<g>
							<g>
								<g>
									<path class="st6" d="M398.4,96.3l-1-0.4c-10.6-3.2-21.7,2.9-24.6,13.6L360.3,151l21.9,18.5l6.7-17.4c0,0,10.5,2.1,14.3-7.8
										c1.8-4.8,4.8-14.9,7.4-24.1C413.4,110.3,408.1,99.9,398.4,96.3z"/>
									<g>
										<g>
											<g>
												<g>
													<g>
														<g>
															<g>
																<g>
																	<g>
																		<path class="st7" d="M388.9,152c0,0-6.5-1.8-11.6-8.5c0,0,0.4,8.3,10.7,11.1L388.9,152z"/>
																	</g>
																</g>
															</g>
														</g>
													</g>
												</g>
											</g>
										</g>
									</g>
								</g>
							</g>
						</g>
						<g>
							<g>
								<g>
									<path class="st3" d="M387.4,101.9c-0.8-1.8-1.8-5.7-3.2-7.1c-1.4-1.4-3.6-1-5.5-0.4c-2,0.5-3.6,2-4.3,4
										c-2.7,7.2-3,13.9-5,21c-0.1,0.5-0.3,1-0.1,1.4c0.4,1.2,1.7,1.6,2.9,1.8c3.1,0.5,4.6-1.7,6.1-4.4c0.3-0.6,1-4.3,1.1-5
										c0.5-4.8,3.3-9,7.6-11L387.4,101.9z"/>
								</g>
							</g>
							<g>
								<g>
									<path class="st3" d="M387.6,102.6"/>
								</g>
							</g>
						</g>
						<g>
							<g>
								<g>
									<g>
										<g>
											<g>
												<g>
													<g>
														<g>
															<g>
																<path class="st6" d="M374.5,115.3c-0.1-0.1-6.1-4.5-8.4,2.3c-2.3,6.9,5.1,7.8,5.2,7.6
																	C371.4,125,374.5,115.3,374.5,115.3z"/>
															</g>
														</g>
													</g>
												</g>
											</g>
										</g>
									</g>
								</g>
							</g>
							<g>
								<g>
									<g>
										<g>
											<g>
												<g>
													<g>
														<g>
															<g>
																<g>
																	<path class="st7" d="M370.1,121.9c0,0-0.1,0-0.4,0.1c-0.2,0-0.6,0-0.9-0.3c-0.6-0.5-0.9-1.9-0.5-3.1
																		c0.2-0.6,0.5-1.2,0.9-1.6c0.4-0.4,0.8-0.7,1.2-0.6c0.4,0,0.6,0.3,0.6,0.6c0,0.2-0.1,0.3,0,0.4c0,0,0.2-0.1,0.2-0.4
																		c0-0.1,0-0.3-0.1-0.5c-0.1-0.2-0.3-0.3-0.6-0.4c-0.5-0.1-1.2,0.2-1.6,0.6c-0.5,0.5-0.8,1.1-1.1,1.8
																		c-0.4,1.4-0.1,2.9,0.8,3.6c0.4,0.3,0.9,0.3,1.2,0.2C370,122,370.1,121.9,370.1,121.9z"/>
																</g>
															</g>
														</g>
													</g>
												</g>
											</g>
										</g>
									</g>
								</g>
							</g>
						</g>
						<g>
							<g>
								<path class="st3" d="M384.7,103.5c3.4-2.3,6.9-1.1,9.2,0.3c2.3,1.4,4.3,3.3,6.7,4.6c2.4,1.3,5.5,1.7,7.7,0.1
									c1.6-1.2,2.3-3.3,2.5-5.3c0.4-3.8-0.9-7.8-3.4-10.7c-0.7-0.8-1.7-1.5-2.6-1.1c-1.1,0.5-1,2.1-0.6,3.3c0,0-11.6-4.4-18.6-1.9
									C378.4,95.1,384.7,103.5,384.7,103.5z"/>
							</g>
						</g>
						<g>
							<g>
								<g>
									<path class="st8" d="M389.2,86.8c0.1,0,0.1,0.5,0.5,1.3c0.3,0.8,1.1,1.9,2.2,3.1c1.1,1.1,2.7,2.3,4.6,3.3
										c1,0.5,2,0.8,3.1,1.1c1.1,0.3,2.3,0.4,3.6,0.8c1.2,0.3,2.4,0.9,3.3,1.7c0.9,0.8,1.6,1.8,2,2.9c0.4,1.1,0.5,2.1,0.4,3.1
										c-0.1,1-0.5,1.9-1,2.6c-1,1.4-2.3,2.1-3.2,2.3c-0.5,0.1-0.8,0.2-1.1,0.2c-0.2,0-0.4,0-0.4,0c0-0.1,0.5-0.1,1.4-0.4
										c0.8-0.3,2-1,2.9-2.3c0.4-0.7,0.8-1.5,0.9-2.4c0.1-0.9,0-1.9-0.4-2.9c-0.4-1-1-1.9-1.9-2.6c-0.8-0.8-1.9-1.2-3.1-1.6
										c-1.2-0.3-2.4-0.5-3.5-0.8c-1.2-0.3-2.3-0.7-3.3-1.2c-2-1-3.5-2.3-4.7-3.5c-1.1-1.2-1.8-2.4-2.1-3.3
										c-0.1-0.4-0.2-0.8-0.2-1C389.2,86.9,389.2,86.8,389.2,86.8z"/>
								</g>
							</g>
						</g>
						<g>
							<g>
								<g>
									<path class="st8" d="M381.6,88.8c0.1,0,0.2,0.5,0.6,1.4c0.4,0.9,1.1,2,2.4,3.2c1.2,1.2,3,2.2,5.1,2.9
										c2.1,0.8,4.5,1.2,7.1,1.7c2.6,0.5,5,1,7.1,2.1c1,0.6,1.9,1.4,2.3,2.4c0.4,1,0.4,2,0.1,2.9c-0.5,1.8-1.7,2.7-2.5,3.2
										c-0.4,0.3-0.8,0.4-1,0.5c-0.2,0.1-0.4,0.1-0.4,0.1c0,0,0.5-0.3,1.2-0.8c0.7-0.6,1.8-1.5,2.2-3.2c0.2-0.8,0.2-1.7-0.2-2.6
										c-0.4-0.9-1.2-1.6-2.1-2.1c-2-1-4.4-1.5-7-2c-2.6-0.5-5-1-7.2-1.8c-2.2-0.8-4-1.9-5.2-3.1c-1.2-1.2-1.9-2.5-2.3-3.4
										c-0.2-0.5-0.3-0.8-0.3-1.1C381.5,88.9,381.5,88.8,381.6,88.8z"/>
								</g>
							</g>
						</g>
					</g>
				</g>
				<g>
					<g>
						<g>
							<g>
								<g>
									<g>
										<g>
											<g>
												<g>
													<g>
														<g>
															<g>
																<g>
																	<g>
																		<g>
																			<g>
																				<g>
																					<g>
																						<g>
																							<g>
																								<g>
																									<g>
																										<g>
																											<path class="st3" d="M406.4,126.4c-0.3,0.1-1.1-1.2-2.8-1.7c-1.7-0.6-3.2-0.2-3.3-0.5
																												c-0.1-0.1,0.3-0.4,0.9-0.6c0.7-0.2,1.7-0.3,2.7,0.1c1,0.4,1.8,1.1,2.1,1.6
																												C406.4,125.9,406.5,126.3,406.4,126.4z"/>
																										</g>
																									</g>
																								</g>
																							</g>
																						</g>
																					</g>
																				</g>
																			</g>
																		</g>
																	</g>
																</g>
															</g>
														</g>
														<g>
															<g>
																<g>
																	<g>
																		<g>
																			<g>
																				<g>
																					<g>
																						<g>
																							<g>
																								<g>
																									<g>
																										<g>
																											<path class="st3" d="M390.4,121.5c-0.3,0.1-1.1-1.2-2.8-1.7c-1.7-0.6-3.2-0.2-3.3-0.5
																												c-0.1-0.1,0.3-0.4,0.9-0.6c0.7-0.2,1.7-0.3,2.7,0.1c1,0.4,1.8,1.1,2.1,1.6
																												C390.5,121,390.6,121.4,390.4,121.5z"/>
																										</g>
																									</g>
																								</g>
																							</g>
																						</g>
																					</g>
																				</g>
																			</g>
																		</g>
																	</g>
																</g>
															</g>
														</g>
														<g>
															<g>
																<g>
																	<g>
																		<g>
																			<g>
																				<g>
																					<g>
																						<g>
																							<g>
																								<g>
																									<g>
																										<path class="st3" d="M392,133.1c0-0.1,1.1,0.1,2.9,0.5c0.4,0.1,0.9,0.2,1-0.1c0.2-0.3,0.2-0.8,0.2-1.4
																											c0-1.2-0.1-2.4-0.1-3.7c-0.1-5.2,0-9.5,0.2-9.5c0.2,0,0.5,4.2,0.6,9.5c0,1.3,0,2.5,0,3.7
																											c0,0.5,0.1,1.2-0.4,1.7c-0.2,0.3-0.6,0.4-0.9,0.4c-0.3,0-0.5-0.1-0.8-0.2C393,133.5,392,133.2,392,133.1z
																											"/>
																									</g>
																								</g>
																							</g>
																						</g>
																					</g>
																				</g>
																			</g>
																		</g>
																	</g>
																</g>
															</g>
														</g>
														<g>
															<g>
																<g>
																	<g>
																		<g>
																			<g>
																				<g>
																					<g>
																						<g>
																							<g>
																								<g>
																									<g>
																										<path class="st3" d="M386.7,132.5c0.3,0.1-0.4,1.9,0.7,3.7c1.1,1.8,3.1,2.3,3,2.6c0,0.1-0.6,0.2-1.4-0.1
																											c-0.8-0.3-1.9-0.9-2.5-2c-0.7-1.1-0.7-2.3-0.5-3.1C386.2,132.8,386.6,132.4,386.7,132.5z"/>
																									</g>
																								</g>
																							</g>
																						</g>
																					</g>
																				</g>
																			</g>
																		</g>
																	</g>
																</g>
															</g>
														</g>
													</g>
												</g>
											</g>
											<g>
												<g>
													<g>
														<g>
															<g>
																<g>
																	<g>
																		<g>
																			<g>
																				<g>
																					<g>
																						<path class="st3" d="M393.1,112.2c-0.3,0.4-1.9-0.4-4-0.9c-2-0.5-3.8-0.5-3.9-1c0-0.2,0.4-0.6,1.2-0.8
																							c0.8-0.2,1.9-0.3,3.2,0c1.2,0.3,2.2,0.9,2.8,1.4C393,111.5,393.3,112,393.1,112.2z"/>
																					</g>
																				</g>
																			</g>
																		</g>
																	</g>
																</g>
															</g>
														</g>
													</g>
												</g>
											</g>
											<g>
												<g>
													<g>
														<g>
															<g>
																<g>
																	<g>
																		<g>
																			<g>
																				<g>
																					<g>
																						<path class="st3" d="M408,119c-0.4,0.3-1.4-0.5-2.8-1c-1.4-0.6-2.6-0.7-2.8-1.1c0-0.2,0.3-0.5,0.9-0.7
																							c0.6-0.2,1.6-0.2,2.5,0.2c0.9,0.4,1.6,1,2,1.6C408.1,118.5,408.2,118.9,408,119z"/>
																					</g>
																				</g>
																			</g>
																		</g>
																	</g>
																</g>
															</g>
														</g>
													</g>
												</g>
											</g>
										</g>
									</g>
								</g>
							</g>
						</g>
					</g>
				</g>
			</g>
			<g>
				<path class="st9" d="M384.5,163.8c0.5,2.7,1.3,21.8-0.2,29.5c-2.6,14.4-22.4,46-23.7,48.5c-0.8,1.5-17.2,39-17.2,39
					s-71.4-22.2-75-40.3c0,0,24.1-18,30.1-23.5c1.2-1.1,23.1-38.8,23.1-38.8l13.2-22.8c0,0,10.2-10,15.5-10c5.3,0,11.6,0,11.6,0
					L384.5,163.8z"/>
				<path class="st10" d="M268.4,240.6c0,0,8.4,0.7,31.9,13.8c23.5,13.2,29.7,17,29.7,17l-48.2-16.9
					C281.8,254.6,269.3,247.2,268.4,240.6z"/>
				<path class="st9" d="M349,145.6l-13.1,1.2l-37.7,7.7l16.3,30.4l41.6-4c0,0,10.1-19.9,6.3-24.2C358.6,152.4,349,145.6,349,145.6z
					"/>
				<polygon class="st10" points="318.1,184.5 346.5,181.7 346.5,181.7 312.4,194.2 				"/>
				<g>
					<path class="st3" d="M354.5,181.5c0,0.1-7.4,1-16.6,1.8c-9.2,0.9-16.6,1.4-16.7,1.3c0-0.1,7.4-1,16.6-1.8
						C347,181.9,354.4,181.3,354.5,181.5z"/>
				</g>
				<g>
					<path class="st3" d="M361.8,163.9c-0.1,0-0.2-1.1-0.7-2.8c-0.5-1.7-1.4-4-3-6.2c-1.6-2.2-3.4-3.9-4.9-4.9
						c-1.5-1-2.5-1.5-2.4-1.6c0,0,0.3,0.1,0.7,0.3c0.5,0.2,1.1,0.5,1.9,1c1.5,1,3.5,2.6,5.1,4.9c1.6,2.3,2.5,4.7,2.9,6.4
						c0.2,0.9,0.3,1.6,0.3,2.1C361.8,163.6,361.8,163.9,361.8,163.9z"/>
				</g>
				<g>
					<path class="st3" d="M306.2,218.3c0,0,0.5-0.1,1.5-0.3c1-0.1,2.3-0.4,4-0.8c1.7-0.4,3.7-0.9,5.8-1.6c2.2-0.7,4.5-1.6,6.9-2.7
						c2.4-1.1,4.6-2.3,6.5-3.5c1.9-1.2,3.6-2.4,5-3.4c1.4-1,2.4-1.9,3.2-2.6c0.7-0.6,1.1-1,1.2-0.9c0,0-0.3,0.4-1,1.1
						c-0.7,0.7-1.7,1.6-3.1,2.7c-1.3,1.1-3,2.3-4.9,3.5c-1.9,1.2-4.1,2.4-6.5,3.6c-2.4,1.1-4.8,2-6.9,2.7c-2.2,0.7-4.2,1.2-5.9,1.5
						c-1.7,0.3-3.1,0.5-4,0.6C306.7,218.3,306.2,218.3,306.2,218.3z"/>
				</g>
				<g>
					<path class="st3" d="M310.1,211.4c0-0.2,3.5-0.2,7.7-1.2c4.2-1,7.4-2.5,7.5-2.3c0,0.1-0.7,0.5-2,1.1c-1.3,0.6-3.2,1.3-5.3,1.8
						c-2.1,0.5-4.1,0.7-5.5,0.8C311,211.5,310.1,211.5,310.1,211.4z"/>
				</g>
				<g>
					<path class="st3" d="M350,243.6c0,0-0.5,0.3-1.4,0.6c-0.9,0.4-2.2,0.9-3.8,1.5c-3.3,1.2-7.8,2.6-13,3.6c-5.2,1-10,1.4-13.4,1.5
						c-1.7,0.1-3.1,0.1-4.1,0c-1,0-1.5-0.1-1.5-0.1c0,0,0.5-0.1,1.5-0.1c1,0,2.4-0.1,4.1-0.2c3.4-0.2,8.2-0.7,13.3-1.7
						c5.2-1,9.7-2.3,13-3.4c1.6-0.5,3-1,3.9-1.3C349.5,243.7,350,243.6,350,243.6z"/>
				</g>
				<g>
					<path class="st2" d="M384.7,191.1l-20.9-7.1c-3,11.7-11,21.4-21.1,30.2l25.8,13.9c0,0,8.2-14.4,13.7-27.4
						C383.6,197.4,384.3,195.1,384.7,191.1z"/>
					<polygon class="st0" points="368.5,181.7 366.7,187.3 369.6,188.6 371.2,182.7 					"/>
					<g>
						<path class="st9" d="M364.2,210.1c1.2-0.1,2.5-0.2,3.8-0.1l4.9-9.8l-5.6-2.8l-1.2,2.4l2.6,1.3L364.2,210.1z"/>
						<path class="st9" d="M379.5,206.8c0,0,0.1,0,0.1,0c0.4-1.2,0.9-2.3,1.4-3.4c-0.4-0.3-0.9-0.6-1.4-0.9
							c-2.3-1.2-4.6-1.1-6.4-0.2l1.5,2.5c1.1-0.6,2.2-0.5,3.3,0C379.1,205.3,379.6,206,379.5,206.8z"/>
					</g>
					<g>
						<path class="st4" d="M369.9,209.4c-1.3,0.2-2.4,0.2-3.8,0.5l-0.8,1.6l3,1.5l1.8-3.7C370.1,209.4,370,209.4,369.9,209.4z"/>
						<path class="st4" d="M378,210.2c0,0-0.2,0-0.2,0l-6.4,1.9l-1,1.9l4.4,2.2c0-0.1,0.1-0.3,0.2-0.4c0.3-0.7,0.7-1.4,1.1-2
							l-0.2-0.1l0.3-0.1L378,210.2z"/>
					</g>
					<g>
						<path class="st3" d="M376.2,208.1c0,0-0.3,0.1-0.8,0.3c-0.5,0.2-1.3,0.4-2.3,0.6c-2,0.5-4.7,1-7.8,1.3
							c-3.1,0.3-5.9,0.4-7.9,0.3c-1,0-1.8-0.1-2.4-0.1c-0.6,0-0.9-0.1-0.9-0.1c0-0.1,1.3-0.1,3.3-0.1c2-0.1,4.8-0.2,7.9-0.5
							c3.1-0.3,5.8-0.8,7.8-1.1C374.9,208.3,376.2,208,376.2,208.1z"/>
					</g>
				</g>
			</g>
			<g>
				<g>
					<path class="st6" d="M327.1,276.4c-0.6,1.7-43.5,66.1-80.4,79.3l-16-2.5L146,328.2l9.4-23.7l0,0l79.3,17.1l36.4-41.3l11-28.5
						L327.1,276.4z"/>
					<polygon class="st11" points="150.9,329.7 186.3,340.1 194.6,312.9 155.7,303.7 					"/>
					<g>
						<g>
							<g>
								<g>
									<g>
										<g>
											<path class="st12" d="M152.3,329.4l-0.6,0.1c0,0-20.6,21.7-25.5,20l21.4-49.9l13.1,5.5l-1.2,1.7
												C154.6,313.3,152.5,321.2,152.3,329.4z"/>
										</g>
									</g>
								</g>
								<g class="st13">
									<g>
										<g>
											<g>
												<path class="st14" d="M155.7,309.8c0.1-1.1-0.7-2.2-1.7-2.4c-1.1-0.2-2.2,0.6-2.4,1.7c-0.2,1.1,0.8,2.5,1.8,2.5
													c1.1,0.1,2.4-0.9,2.3-2"/>
											</g>
										</g>
									</g>
								</g>
								<g class="st13">
									<g>
										<g>
											<path class="st14" d="M147.5,299.5l4,1.9l-22,47.2c0,0-1.9,1.8-3.4,0.9L147.5,299.5z"/>
										</g>
									</g>
								</g>
								<g>
									<g>
										<g>
											<g>
												<path class="st3" d="M151.6,330.4c-0.2-0.1,0.2-1.4-0.1-2.9c-0.2-1.5-1-2.6-0.8-2.8c0.1-0.2,1.4,0.8,1.7,2.6
													C152.7,329.2,151.8,330.5,151.6,330.4z"/>
											</g>
										</g>
									</g>
								</g>
								<g>
									<g>
										<g>
											<g>
												<path class="st3" d="M147.2,334.7c-0.3,0-0.2-1.3-0.9-2.5c-0.6-1.3-1.7-2-1.5-2.2c0.1-0.2,1.6,0.2,2.4,1.8
													C147.9,333.3,147.4,334.8,147.2,334.7z"/>
											</g>
										</g>
									</g>
								</g>
								<g>
									<g>
										<g>
											<g>
												<path class="st3" d="M139.6,335c0-0.2,1.4-0.1,2.5,1.1c1.1,1.2,1.1,2.6,0.9,2.6c-0.3,0.1-0.7-1-1.5-2
													C140.6,335.8,139.6,335.2,139.6,335z"/>
											</g>
										</g>
									</g>
								</g>
							</g>
							<g>
								<g>
									<g>
										<g>
											<path class="st3" d="M152,329.9c-0.1,0,0.2-1.1,1.1-2.5c0.5-0.7,1.1-1.5,1.9-2.3c0.4-0.4,0.9-0.8,1.4-1.1
												c0.2-0.2,0.5-0.4,0.9-0.5c0.4-0.2,1.1,0,1.3,0.4c0.3,0.4,0.2,0.9,0.1,1.3c-0.1,0.4-0.3,0.6-0.5,0.9
												c-0.4,0.5-0.8,0.9-1.2,1.3c-0.8,0.8-1.7,1.3-2.5,1.7c-1.6,0.7-2.6,0.7-2.7,0.6c0-0.1,1-0.4,2.4-1.2
												c0.7-0.4,1.5-1,2.2-1.7c0.4-0.4,0.7-0.8,1.1-1.2c0.4-0.5,0.6-0.9,0.4-1.2c-0.1-0.1-0.1-0.1-0.3-0.1
												c-0.2,0.1-0.4,0.2-0.7,0.4c-0.5,0.3-0.9,0.7-1.3,1c-0.8,0.7-1.5,1.4-2,2C152.6,329.1,152.1,330,152,329.9z"/>
										</g>
									</g>
								</g>
							</g>
							<g>
								<g>
									<g>
										<g>
											<path class="st3" d="M151.7,329.4c0-0.1,1.1-0.2,2.7,0.4c0.8,0.3,1.7,0.8,2.6,1.5c0.4,0.4,0.9,0.8,1.2,1.3
												c0.4,0.5,0.9,1.1,0.6,2.1c-0.2,0.5-0.8,0.7-1.1,0.7c-0.4,0-0.7-0.1-1-0.1c-0.6-0.2-1.2-0.4-1.7-0.7
												c-1-0.6-1.7-1.4-2.1-2.2c-0.9-1.5-0.7-2.7-0.6-2.7c0.2,0,0.3,1,1.2,2.3c0.5,0.6,1.1,1.3,2,1.8c0.4,0.2,0.9,0.4,1.5,0.6
												c0.6,0.1,1.1,0.1,1.1-0.1c0.1-0.2-0.1-0.8-0.4-1.2c-0.3-0.4-0.7-0.8-1.1-1.2c-0.8-0.7-1.6-1.2-2.3-1.6
												C152.7,329.7,151.7,329.6,151.7,329.4z"/>
										</g>
									</g>
								</g>
							</g>
						</g>
					</g>
					<g>
						<path class="st15" d="M190.4,312.7c0,0,0,0.4-0.2,1c-0.2,0.8-0.5,1.7-0.8,2.7c-0.7,2.4-1.7,5.5-2.7,9c-1,3.5-2,6.6-2.7,9
							c-0.3,1.1-0.6,2-0.8,2.7c-0.2,0.6-0.3,1-0.4,1c0,0,0-0.4,0.2-1c0.1-0.7,0.4-1.6,0.7-2.8c0.6-2.3,1.5-5.5,2.5-9.1
							c1.1-3.5,2.1-6.7,2.9-9c0.4-1.1,0.7-2.1,1-2.7C190.2,313,190.3,312.7,190.4,312.7z"/>
					</g>
					<g>
						<path class="st15" d="M187.1,312.7c0,0,0,0.4-0.2,1c-0.2,0.8-0.5,1.7-0.8,2.7c-0.7,2.4-1.7,5.5-2.7,9c-1,3.5-2,6.6-2.7,9
							c-0.3,1.1-0.6,2-0.8,2.7c-0.2,0.6-0.3,1-0.4,1s0-0.4,0.2-1c0.1-0.7,0.4-1.6,0.7-2.8c0.6-2.3,1.5-5.5,2.5-9.1
							c1.1-3.5,2.1-6.7,2.9-9c0.4-1.1,0.7-2.1,1-2.7C186.9,313,187.1,312.7,187.1,312.7z"/>
					</g>
				</g>
				<g>
					<path class="st6" d="M333.9,274c1.7,1.1,58.3,58.6,59.4,63c1.1,4.4,20.9,92.5,20.9,92.5l-19.3,5.5c0,0-27-52.9-27-54.5
						c0-1.7-9.1-26-9.1-26l-34.4-30.2l-35.8-32.5L333.9,274z"/>
					<g>
						<polygon class="st11" points="420.7,435.8 408.6,401.1 381.7,410.1 396.9,447.1 						"/>
						<g>
							<g>
								<g>
									<g>
										<g>
											<g>
												<path class="st12" d="M419.7,434.9l0.5,0.5c0,0,29.7,4.1,31.1,9.1l-53,11.8l-3.1-13.8l2,0
													C405.4,442.4,412.9,439.5,419.7,434.9z"/>
											</g>
										</g>
									</g>
									<g class="st13">
										<g>
											<g>
												<g>
													<path class="st14" d="M401.8,443.6c-1,0.5-1.4,1.8-0.9,2.8c0.5,1,1.8,1.5,2.8,1c1-0.5,1.6-2,1-3
														c-0.6-0.9-2.2-1.4-3-0.7"/>
												</g>
											</g>
										</g>
									</g>
									<g class="st13">
										<g>
											<g>
												<path class="st14" d="M398.3,456.2l-0.8-4.3l51.1-9.6c0,0,2.6,0.5,2.7,2.2L398.3,456.2z"/>
											</g>
										</g>
									</g>
									<g>
										<g>
											<g>
												<g>
													<path class="st3" d="M421,434.9c0,0.3-1.2,0.7-2.3,1.8c-1.1,1.1-1.5,2.4-1.8,2.3c-0.2,0-0.2-1.6,1.1-3
														C419.3,434.7,421,434.6,421,434.9z"/>
												</g>
											</g>
										</g>
									</g>
									<g>
										<g>
											<g>
												<g>
													<path class="st3" d="M427,436c0.1,0.2-0.9,0.9-1.5,2.2c-0.7,1.3-0.6,2.5-0.9,2.5c-0.2,0.1-0.7-1.4,0.1-3
														C425.5,436.2,427,435.7,427,436z"/>
												</g>
											</g>
										</g>
									</g>
									<g>
										<g>
											<g>
												<g>
													<path class="st3" d="M431.7,441.9c-0.2,0.1-0.9-1.1-0.5-2.7c0.3-1.6,1.4-2.4,1.6-2.2c0.2,0.2-0.4,1.1-0.7,2.4
														C431.7,440.7,431.9,441.8,431.7,441.9z"/>
												</g>
											</g>
										</g>
									</g>
								</g>
								<g>
									<g>
										<g>
											<g>
												<path class="st3" d="M420.3,434.9c0,0.1-1,0.5-2.7,0.6c-0.8,0-1.9,0-3-0.2c-0.6-0.1-1.1-0.3-1.7-0.5
													c-0.3-0.1-0.6-0.2-0.9-0.4c-0.3-0.2-0.7-0.9-0.4-1.4c0.2-0.5,0.6-0.7,1-0.8c0.4-0.1,0.7-0.1,1-0.1
													c0.6,0,1.2,0.1,1.8,0.2c1.1,0.2,2.1,0.6,2.8,1.1c1.5,0.9,2.1,1.7,2,1.8c-0.1,0.1-0.9-0.6-2.3-1.2
													c-0.7-0.3-1.6-0.6-2.7-0.8c-0.5-0.1-1.1-0.1-1.6-0.1c-0.6,0-1.1,0.1-1.2,0.4c0,0.1,0,0.1,0.1,0.3
													c0.2,0.1,0.4,0.2,0.7,0.3c0.5,0.2,1.1,0.4,1.6,0.5c1,0.3,2,0.4,2.8,0.4C419.3,434.9,420.3,434.7,420.3,434.9z"/>
											</g>
										</g>
									</g>
								</g>
								<g>
									<g>
										<g>
											<g>
												<path class="st3" d="M420.1,435.3c-0.1,0.1-0.8-0.8-1.3-2.4c-0.2-0.8-0.4-1.8-0.3-3c0-0.6,0.1-1.2,0.3-1.8
													c0.2-0.6,0.4-1.4,1.4-1.7c0.5-0.1,1,0.2,1.3,0.5c0.3,0.3,0.4,0.6,0.5,0.9c0.2,0.6,0.4,1.2,0.4,1.8
													c0.1,1.2-0.2,2.2-0.5,3c-0.7,1.6-1.7,2.2-1.8,2.1c-0.1-0.1,0.7-0.8,1.2-2.3c0.2-0.7,0.4-1.7,0.3-2.7
													c-0.1-0.5-0.2-1-0.4-1.5c-0.2-0.5-0.5-1-0.7-0.8c-0.3,0.1-0.6,0.6-0.7,1.1c-0.2,0.5-0.3,1.1-0.3,1.6
													c-0.1,1-0.1,2,0.1,2.8C419.7,434.3,420.2,435.2,420.1,435.3z"/>
											</g>
										</g>
									</g>
								</g>
							</g>
						</g>
						<g>
							<path class="st15" d="M383.9,413.7c0,0,0.3-0.2,1-0.4c0.7-0.3,1.6-0.6,2.7-0.9c2.4-0.8,5.5-1.9,8.9-3
								c3.4-1.2,6.5-2.2,8.9-3.1c1.1-0.4,2-0.7,2.7-0.9c0.6-0.2,1-0.3,1-0.3c0,0-0.3,0.2-0.9,0.5c-0.6,0.3-1.5,0.6-2.6,1.1
								c-2.2,0.9-5.4,2-8.8,3.2c-3.5,1.2-6.6,2.2-8.9,2.9c-1.2,0.3-2.1,0.6-2.7,0.8C384.3,413.7,383.9,413.8,383.9,413.7z"/>
						</g>
						<g>
							<path class="st15" d="M385.8,416.4c0,0,0.3-0.2,1-0.4c0.7-0.3,1.6-0.6,2.7-0.9c2.4-0.8,5.5-1.9,8.9-3
								c3.4-1.2,6.5-2.2,8.9-3.1c1.1-0.4,2-0.7,2.7-0.9c0.6-0.2,1-0.3,1-0.3c0,0-0.3,0.2-0.9,0.5c-0.6,0.3-1.5,0.6-2.6,1.1
								c-2.2,0.9-5.4,2-8.8,3.2c-3.5,1.2-6.6,2.2-8.9,2.9c-1.2,0.3-2.1,0.6-2.7,0.8C386.2,416.3,385.8,416.4,385.8,416.4z"/>
						</g>
					</g>
				</g>
				<g>
					<path class="st16" d="M282.1,251.8c0,0-30.2,37.9-37.5,41c-2.3,1,6,10.7,6,10.7l4.1-4.7c13.1,6.9,23.2,15.9,33.6,28.5l18-16.9
						l15.2,20.1l43.1-26.7l-21.2-22.8c0,0-28.6-25.7-54.3-32.6C289.1,248.3,286.2,248.3,282.1,251.8z"/>
					<g>
						<path class="st8" d="M328.4,286c0,0-0.1,0.2-0.3,0.5c-0.3,0.3-0.6,0.8-1.1,1.3c-0.9,1.1-2.3,2.7-4.1,4.6
							c-3.5,3.9-8.3,9.2-13.8,15c-5.5,5.8-10.6,10.8-14.4,14.4c-1.9,1.8-3.5,3.2-4.6,4.1c-0.5,0.4-1,0.8-1.3,1.1
							c-0.3,0.2-0.5,0.4-0.5,0.3s0.1-0.2,0.4-0.4c0.3-0.3,0.7-0.7,1.2-1.1c1.1-1,2.6-2.4,4.5-4.2c3.8-3.6,8.8-8.7,14.3-14.5
							c5.5-5.8,10.4-11,13.9-14.9c1.7-1.9,3.2-3.4,4.2-4.5c0.5-0.5,0.9-0.9,1.2-1.2C328.3,286.1,328.4,286,328.4,286z"/>
					</g>
					<g>
						<path class="st8" d="M288.7,326.7c0,0-0.2-0.1-0.4-0.4c-0.3-0.3-0.7-0.7-1.1-1.2c-0.9-1-2.3-2.5-4.1-4.3
							c-1.8-1.8-3.9-3.9-6.4-6.1c-2.5-2.2-5.3-4.5-8.4-6.9c-3.1-2.3-6.1-4.4-8.9-6.2c-2.8-1.8-5.4-3.3-7.6-4.5
							c-2.2-1.2-4-2.2-5.3-2.8c-0.6-0.3-1.1-0.5-1.4-0.7c-0.3-0.2-0.5-0.3-0.5-0.3c0,0,0.2,0.1,0.5,0.2c0.4,0.2,0.9,0.4,1.5,0.7
							c1.3,0.6,3.1,1.5,5.4,2.6c2.2,1.2,4.8,2.7,7.7,4.4c2.8,1.8,5.9,3.9,8.9,6.2c3.1,2.3,5.9,4.7,8.4,6.9c2.5,2.3,4.6,4.4,6.3,6.2
							c1.7,1.8,3.1,3.4,4,4.4c0.4,0.5,0.8,0.9,1,1.3C288.6,326.5,288.7,326.7,288.7,326.7z"/>
					</g>
					<g>
						<path class="st15" d="M305.3,253.6c0,0-0.1,0.2-0.4,0.5c-0.3,0.4-0.7,0.8-1.2,1.4c-1.1,1.3-2.6,3.1-4.5,5.3
							c-3.8,4.4-9.1,10.6-14.7,17.6c-5.6,6.9-10.6,13.3-14.2,18c-1.8,2.3-3.2,4.2-4.2,5.5c-0.5,0.6-0.9,1.1-1.2,1.5
							c-0.3,0.3-0.4,0.5-0.4,0.5c0,0,0.1-0.2,0.3-0.6c0.3-0.4,0.6-0.9,1.1-1.5c0.9-1.3,2.3-3.3,4.1-5.6c3.5-4.7,8.4-11.1,14.1-18.1
							c5.6-7,10.9-13.1,14.8-17.5c1.9-2.2,3.5-4,4.7-5.2c0.5-0.6,1-1,1.3-1.4C305.1,253.7,305.3,253.6,305.3,253.6z"/>
					</g>
					<g>
						<path class="st15" d="M302,253.4c0,0-0.1,0.2-0.4,0.5c-0.3,0.4-0.7,0.8-1.2,1.4c-1.1,1.2-2.7,3-4.6,5
							c-3.9,4.3-9.1,10.2-14.8,16.9c-5.7,6.7-10.7,12.8-14.3,17.3c-1.8,2.2-3.2,4-4.3,5.3c-0.5,0.6-0.9,1.1-1.2,1.4
							c-0.3,0.3-0.4,0.5-0.4,0.5c0,0,0.1-0.2,0.4-0.5c0.3-0.4,0.6-0.9,1.1-1.5c1-1.3,2.4-3.1,4.1-5.4c3.5-4.5,8.5-10.7,14.2-17.4
							c5.7-6.7,11-12.6,14.9-16.8c2-2.1,3.6-3.8,4.7-4.9c0.5-0.5,1-1,1.3-1.3C301.8,253.5,302,253.4,302,253.4z"/>
					</g>
					<g>
						<path class="st8" d="M336.2,320c-0.1,0.1-3.9-5-8.4-11.4c-4.5-6.4-8.1-11.6-8-11.7c0.1-0.1,3.9,5,8.4,11.4
							C332.7,314.7,336.3,320,336.2,320z"/>
					</g>
				</g>
			</g>
		</g>
		<g>
			<g>
				<g>
					<path class="st4" d="M387.2,209.2c-0.1,1.1-2.1,3.9-4.6,5.4c-2.4,1.4-3.3,2.1-8.5,4.6c-5.6,2.7-48.9,18.2-48.9,18.2l3.8-8.5
						l-0.9-5.6c11.9-2.6,44.8-12.4,53.2-18c1.7-1.2,2.9-3.7,1.4-5.5l0.2-0.6c0,0,0.8-0.2,3.4,4.2
						C387.6,205.6,387.4,207.8,387.2,209.2z"/>
				</g>
				<g class="st17">
					<path class="st9" d="M387.2,209.2c-0.1,1.1-2.1,3.9-4.6,5.4c-2.4,1.4-3.3,2.1-8.5,4.6c-5.6,2.7-48.9,18.2-48.9,18.2l3.8-8.5
						l-0.9-5.6c11.9-2.6,44.8-12.4,53.2-18c1.7-1.2,2.9-3.7,1.4-5.5l0.2-0.6c0,0,0.8-0.2,3.4,4.2
						C387.6,205.6,387.4,207.8,387.2,209.2z"/>
				</g>
			</g>
			<g>
				<g>
					<path class="st4" d="M262,229.1l42.1-5.2l5.1,2.8l-9.8,11.4c0,0-53.2,4.5-66,12.1c-12.2,7.3-15.7,25.6-35.1,27.4
						c-19.4,1.8-68.5-18.6-78.2-14l-5.8-15.2c0,0,29.2,0.5,50.9,8.3s28.5,9.6,39.5,0c11.1-9.6,20.5-18.7,39.7-23.3
						C256.1,230.7,262,229.1,262,229.1z"/>
				</g>
				<g class="st17">
					<path class="st9" d="M262,229.1l42.1-5.2l5.1,2.8l-9.8,11.4c0,0-53.2,4.5-66,12.1c-12.2,7.3-15.7,25.6-35.1,27.4
						c-19.4,1.8-68.5-18.6-78.2-14l-5.8-15.2c0,0,29.2,0.5,50.9,8.3s28.5,9.6,39.5,0c11.1-9.6,20.5-18.7,39.7-23.3
						C256.1,230.7,262,229.1,262,229.1z"/>
				</g>
			</g>
		</g>
	</g>
	<g>
		<g>
			<g>
				<path class="st8" d="M225.2,129.9c0,0.1-16.2,0.3-36.1,0.3c-19.9,0-36.1-0.1-36.1-0.3s16.2-0.3,36.1-0.3
					C209,129.7,225.2,129.8,225.2,129.9z"/>
			</g>
			<g>
				<path class="st8" d="M178.5,147.1c0,0.1-7.9,0.3-17.6,0.3c-9.7,0-17.6-0.1-17.6-0.3c0-0.1,7.9-0.3,17.6-0.3
					C170.6,146.9,178.5,147,178.5,147.1z"/>
			</g>
			<g>
				<path class="st8" d="M202.3,138.8c0,0.1-32.3,0.3-72.2,0.3c-39.9,0-72.2-0.1-72.2-0.3c0-0.1,32.3-0.3,72.2-0.3
					C170,138.5,202.3,138.6,202.3,138.8z"/>
			</g>
		</g>
		<g>
			<g>
				<path class="st8" d="M331.4,383.3c0,0.1-16.2,0.3-36.1,0.3c-19.9,0-36.1-0.1-36.1-0.3c0-0.1,16.2-0.3,36.1-0.3
					C315.2,383,331.4,383.1,331.4,383.3z"/>
			</g>
			<g>
				<path class="st8" d="M308.5,392.1c0,0.1-32.3,0.3-72.2,0.3c-39.9,0-72.2-0.1-72.2-0.3c0-0.1,32.3-0.3,72.2-0.3
					C276.2,391.9,308.5,392,308.5,392.1z"/>
			</g>
		</g>
	</g>
</g>
<g id="Plant">
	<g>
		<g>
			<g>
				<g>
					<path class="st4" d="M75.6,438.1c0.7-2.5-1-5.1-2.9-6.9c-1.9-1.8-4.1-3.5-5-5.9c-1.6-3.9,0.5-9-2.1-12.3
						c-1.6-1.9-4.4-2.6-5.8-4.6c-0.7-1.1-1-2.4-1.3-3.7c-1.5-6.5-4.7-12.6-9.3-17.4c-0.3,5.8,1,11.6,3.6,16.7
						c1.1,2.1,2.4,4.1,2.8,6.4c0.6,3.7-1.5,7.6-0.6,11.2c1,4.2,5.8,7,6,11.3c0.2,3.6-3,6.8-2.8,10.5c0.1,1.6,0.8,3,1.6,4.3
						c2.8,4.7,7,7.9,13.2,7.8l7.7,0.3L75.6,438.1z"/>
				</g>
			</g>
		</g>
		<g class="st17">
			<g>
				<g>
					<g>
						<path class="st9" d="M75.6,438.1c0.7-2.5-1-5.1-2.9-6.9c-1.9-1.8-4.1-3.5-5-5.9c-1.6-3.9,0.5-9-2.1-12.3
							c-1.6-1.9-4.4-2.6-5.8-4.6c-0.7-1.1-1-2.4-1.3-3.7c-1.5-6.5-4.7-12.6-9.3-17.4c-0.3,5.8,1,11.6,3.6,16.7
							c1.1,2.1,2.4,4.1,2.8,6.4c0.6,3.7-1.5,7.6-0.6,11.2c1,4.2,5.8,7,6,11.3c0.2,3.6-3,6.8-2.8,10.5c0.1,1.6,0.8,3,1.6,4.3
							c2.8,4.7,7,7.9,13.2,7.8l7.7,0.3L75.6,438.1z"/>
					</g>
				</g>
			</g>
		</g>
		<g>
			<g>
				<g>
					<g>
						<g>
							<g>
								<path class="st3" d="M82.3,456.1c0,0,0.7,0.2,2.1,0c0.7-0.1,1.5-0.3,2.5-0.6c1-0.3,2-0.8,3.1-1.7c0.5-0.4,1-1,1.3-1.7
									c0.3-0.7,0.3-1.5,0.4-2.3c0-0.8,0-1.6,0.2-2.5c0.1-0.8,0.5-1.7,0.9-2.5c0.9-1.6,2.4-3.1,2.9-5.3c0.5-2.1,0.1-4.4-0.2-6.7
									c-0.4-2.3-0.7-4.8,0.2-7.2c0.8-2.4,2.5-4.6,3.4-7.3c0.8-2.7,0.4-5.7,0.6-8.6c0.1-1.5,0.4-2.9,1-4.3c0.6-1.4,1.5-2.6,2.2-4.1
									c1.4-2.9,1.6-6.2,2-9.4c0.2-1.6,0.4-3.3,0.6-4.9c0.2-1.7,0.3-3.3,0.9-4.9c0.5-1.6,1.2-3.2,1.8-4.8c0.3-0.8,0.7-1.6,0.9-2.5
									c0.2-0.9,0.2-1.8,0.2-2.6c0.1-1.8,0-3.5-0.2-5.3c-0.2-1.8-0.5-3.5-0.7-5.3c0-0.1,0-0.2,0-0.3l0-0.4l-0.3,0.2
									c-1.6,0.8-3.1,2.1-4.1,3.5c-1.1,1.4-1.9,3-2.5,4.7c-1.3,3.3-1.7,6.8-2.4,10.1c-0.6,3.3-1.5,6.5-3.2,9.3
									c-0.8,1.4-1.9,2.6-2.8,4c-0.9,1.3-1.7,2.8-1.9,4.4c-0.5,3.3,1.3,6.1,1,9c-0.1,1.4-0.7,2.8-1.4,4c-0.7,1.2-1.5,2.4-2.3,3.5
									c-0.8,1.1-1.5,2.3-2.1,3.5c-0.6,1.2-0.9,2.6-0.9,3.9c-0.2,2.6,0.2,5,0,7.4c-0.2,2.3-1,4.4-1.9,6.3c-0.9,1.9-2,3.6-2.8,5.3
									c-0.4,0.8-0.8,1.6-1.2,2.4c-0.3,0.8-0.5,1.6-0.7,2.4c-0.3,1.6-0.2,3.1-0.1,4.4c0.3,2.6,1.3,4.5,2.2,5.6
									c0.2,0.3,0.4,0.5,0.6,0.7c0.2,0.2,0.4,0.3,0.5,0.4C82.2,456,82.3,456.1,82.3,456.1c0,0-0.6-0.4-1.5-1.5
									c-0.8-1.1-1.8-3-2.1-5.6c-0.2-1.3-0.2-2.8,0.1-4.3c0.2-0.8,0.3-1.6,0.7-2.4c0.3-0.8,0.7-1.6,1.2-2.4
									c0.9-1.6,1.9-3.3,2.9-5.2c0.9-1.9,1.8-4,2-6.4c0.2-2.4-0.2-4.8,0-7.4c0.1-1.3,0.4-2.5,0.9-3.7c0.5-1.2,1.3-2.3,2-3.5
									c0.8-1.1,1.6-2.3,2.3-3.5c0.7-1.2,1.3-2.6,1.5-4.2c0.4-3.1-1.4-5.9-0.9-9c0.2-1.5,1-2.9,1.8-4.2c0.9-1.3,1.9-2.6,2.8-4
									c1.7-2.8,2.6-6.1,3.2-9.4c0.7-3.3,1.1-6.7,2.4-10c0.6-1.6,1.4-3.2,2.5-4.6c1-1.4,2.4-2.6,4-3.3l-0.4-0.2c0,0.1,0,0.2,0,0.3
									c0.2,1.8,0.5,3.6,0.7,5.3c0.2,1.8,0.3,3.5,0.2,5.2c-0.1,0.9-0.1,1.8-0.2,2.6c-0.2,0.8-0.5,1.6-0.9,2.4
									c-0.7,1.6-1.4,3.2-1.9,4.8c-0.5,1.6-0.7,3.4-0.9,5c-0.2,1.7-0.4,3.3-0.5,4.9c-0.4,3.2-0.6,6.5-1.9,9.3
									c-0.6,1.4-1.5,2.7-2.1,4.1c-0.7,1.4-1,2.9-1,4.4c-0.2,3,0.2,5.9-0.6,8.5c-0.8,2.6-2.5,4.8-3.3,7.3c-0.9,2.5-0.5,5.1-0.2,7.4
									c0.4,2.3,0.7,4.6,0.2,6.6c-0.4,2.1-1.9,3.6-2.8,5.2c-0.5,0.8-0.8,1.7-1,2.6c-0.1,0.9-0.1,1.7-0.2,2.5c0,0.8-0.1,1.6-0.3,2.2
									c-0.2,0.7-0.7,1.2-1.2,1.6c-1,0.8-2.1,1.3-3,1.7c-0.9,0.4-1.8,0.6-2.5,0.7c-0.7,0.1-1.2,0.1-1.6,0.2
									C82.5,456.1,82.3,456.1,82.3,456.1z"/>
							</g>
						</g>
					</g>
				</g>
				<g>
					<g>
						<g>
							<g>
								<path class="st3" d="M106.6,365.6c0,0,0,0.1-0.1,0.2c0,0.2-0.1,0.4-0.2,0.7c-0.2,0.6-0.3,1.5-0.6,2.7c-0.3,1.1-1,2.4-1.6,4
									c-0.6,1.6-1.2,3.4-1.8,5.4c-0.6,2-1.1,4.3-1.6,6.8c-0.6,2.4-1.1,5-2.5,7.5c-0.6,1.2-1.3,2.5-1.9,3.9
									c-0.6,1.4-0.9,2.9-1.1,4.4c-0.4,3-0.9,6.1-1.7,9.3c-1.5,6.3-3,12.3-4.3,17.8c-1.4,5.4-2.6,10.3-3.6,14.5
									c-1,4.1-1.8,7.4-2.4,9.8c-0.3,1.1-0.5,2-0.6,2.7c-0.1,0.3-0.1,0.5-0.2,0.7c0,0.2,0,0.2,0,0.2c0,0,0-0.1,0.1-0.2
									c0.1-0.2,0.1-0.4,0.2-0.7c0.2-0.6,0.4-1.5,0.7-2.6c0.6-2.3,1.5-5.7,2.6-9.7c1.1-4.1,2.3-9,3.7-14.5
									c1.3-5.5,2.8-11.5,4.4-17.8c0.7-3.2,1.3-6.3,1.7-9.3c0.2-1.5,0.5-3,1.1-4.3c0.5-1.3,1.2-2.6,1.9-3.9
									c1.4-2.5,1.9-5.2,2.5-7.6c0.5-2.4,1-4.7,1.6-6.8c0.6-2,1.2-3.9,1.7-5.4c0.6-1.6,1.2-2.9,1.5-4.1c0.3-1.2,0.4-2.1,0.5-2.7
									c0-0.3,0.1-0.5,0.1-0.7C106.6,365.7,106.6,365.6,106.6,365.6z"/>
							</g>
						</g>
					</g>
				</g>
			</g>
			<g>
				<g>
					<g>
						<g>
							<path class="st9" d="M83.7,456.1c5-3,6.5-12,4.4-17.5c-2.1-5.4-5.8-10.4-6.3-16.2c-0.4-4.5,1-9.1,0-13.4
								c-1.4-5.9-7.2-10.5-7.1-16.5c0-3.4,2-6.6,1.8-10c-0.2-4.2-3.4-7.5-5.4-11.1c-3-5.6-3.2-12.3-4.3-18.5c-1-6.3-3.4-13-9-16.1
								c-0.8,5.3-2.2,9-1.8,16.2c0.2,2.6,3.2,7.6,3.6,13.3c0.2,3.4,0.4,6.8,0.6,10.2c0.2,3.3,0.4,6.7,1.6,9.8c0.9,2.4,2.4,4.5,3.1,7
								c1.3,4.6-0.4,9.6,0.6,14.3c0.9,4,3.6,7.4,4.2,11.4c0.8,5.6-2.9,11.5-1,16.9c0.9,2.7,3.1,4.8,3.8,7.6c0.5,2.1,0,4.4,0.4,6.6
								c0.7,3.5,7.3,6.2,10.9,5.9"/>
						</g>
					</g>
				</g>
				<g>
					<g>
						<g>
							<g>
								<path class="st3" d="M59.2,342c0,0,0,0.1,0,0.3c0,0.2,0.1,0.5,0.1,0.9c0.1,0.8,0.2,1.9,0.5,3.4c0.3,1.5,1,3.1,1.6,5.1
									c0.6,2,1.3,4.3,1.8,6.9c0.6,2.6,1.1,5.4,1.6,8.5c0.5,3,1.1,6.4,2.6,9.6c0.7,1.6,1.5,3.2,2.1,4.9c0.6,1.7,0.9,3.5,1.1,5.4
									c0.3,3.8,0.8,7.7,1.5,11.7c1.5,7.9,3,15.5,4.3,22.3c1.4,6.8,2.7,13,3.7,18.2c1.1,5.1,1.9,9.3,2.6,12.3
									c0.3,1.4,0.5,2.5,0.7,3.3c0.1,0.4,0.1,0.6,0.2,0.9c0,0.2,0.1,0.3,0.1,0.3c0,0,0-0.1,0-0.3c0-0.2-0.1-0.5-0.2-0.9
									c-0.1-0.8-0.4-1.9-0.6-3.3c-0.6-2.9-1.4-7.1-2.4-12.3c-1-5.2-2.3-11.4-3.6-18.2c-1.3-6.9-2.8-14.4-4.3-22.3
									c-0.7-4-1.2-7.9-1.5-11.7c-0.2-1.9-0.5-3.8-1.1-5.5c-0.6-1.7-1.4-3.4-2.1-5c-1.5-3.1-2-6.4-2.6-9.5c-0.5-3.1-1-5.9-1.6-8.5
									c-0.6-2.6-1.3-4.9-1.9-6.9c-0.6-2-1.4-3.7-1.7-5.1c-0.3-1.4-0.4-2.6-0.6-3.3c-0.1-0.4-0.1-0.6-0.2-0.9
									C59.2,342.1,59.2,342,59.2,342z"/>
							</g>
						</g>
					</g>
				</g>
			</g>
		</g>
	</g>
	<g>
		<g>
			<g>
				<path class="st9" d="M333.7,417.3c2,0.3,3.8,1.6,5,3.2c1.2,1.7,1.8,3.7,2.1,5.7c0.6,3.9-0.5,8.3-1.9,12c-4-1.9-6-6.5-6.9-8.9
					C330.5,425.4,330.2,417.7,333.7,417.3"/>
			</g>
		</g>
		<g>
			<g>
				<path class="st9" d="M344.3,443.4c-1.1-2-0.9-4.6,0.4-6.5c1.2-1.9,3.3-3.2,5.6-3.6c1-0.2,2.2-0.2,3,0.5c0.8,0.6,1,1.7,0.8,2.7
					c-0.2,1-0.8,1.8-1.4,2.5C350.3,441.5,347.7,443.5,344.3,443.4"/>
			</g>
		</g>
		<g>
			<g>
				<g>
					<path class="st3" d="M343.5,456.1c0,0-0.1-0.3-0.1-0.8c-0.1-0.6-0.1-1.3-0.2-2.2c-0.1-1.8-0.4-4.5,0.3-7.3
						c0.7-2.8,2-5.1,3.4-6.4c0.7-0.7,1.3-1.1,1.7-1.4c0.2-0.1,0.4-0.2,0.5-0.3c0.1-0.1,0.2-0.1,0.2-0.1c0,0.1-1,0.6-2.3,1.9
						c-1.3,1.3-2.6,3.6-3.2,6.4c-0.7,2.8-0.5,5.4-0.4,7.2c0.1,0.9,0.1,1.7,0.1,2.2C343.5,455.8,343.5,456.1,343.5,456.1z"/>
				</g>
			</g>
		</g>
		<g>
			<g>
				<g>
					<path class="st3" d="M334.4,423.2c0,0,0.1,0.1,0.1,0.3c0.1,0.2,0.2,0.6,0.3,1c0.3,0.8,0.7,2,1.1,3.5c0.9,3,2.2,7.2,3.5,11.8
						c1.3,4.6,2.3,8.8,3,11.9c0.4,1.5,0.6,2.8,0.8,3.6c0.1,0.4,0.2,0.7,0.2,1c0,0.2,0.1,0.3,0.1,0.3c0,0,0-0.1-0.1-0.3
						c-0.1-0.3-0.2-0.6-0.3-1c-0.2-0.9-0.5-2.1-0.9-3.6c-0.8-3-1.9-7.2-3.1-11.9c-1.3-4.6-2.5-8.8-3.4-11.8
						c-0.4-1.5-0.8-2.7-1.1-3.6c-0.1-0.4-0.2-0.7-0.3-1C334.4,423.4,334.4,423.2,334.4,423.2z"/>
				</g>
			</g>
		</g>
		<g>
			<g>
				<path class="st9" d="M339.4,447.2c-2-4.4-6.2-7.6-11-8.5c-1.2-0.2-2.7-0.2-3.3,0.9c-0.7,1-0.1,2.4,0.7,3.4
					c3.1,4.1,8.7,6,13.6,4.5"/>
			</g>
		</g>
		<g>
			<g>
				<g>
					<path class="st3" d="M330,442.2c0,0,0.3,0,0.8,0.1c0.2,0,0.5,0.1,0.9,0.2c0.3,0.1,0.7,0.2,1.1,0.3c0.4,0.1,0.9,0.3,1.3,0.5
						c0.5,0.2,1,0.5,1.5,0.7c1,0.6,2.1,1.3,3.1,2.3c1,0.9,1.8,1.9,2.4,2.9c0.3,0.5,0.6,1,0.8,1.4c0.2,0.5,0.4,0.9,0.6,1.3
						c0.2,0.4,0.3,0.8,0.4,1.1c0.1,0.3,0.2,0.6,0.2,0.9c0.1,0.5,0.1,0.8,0.1,0.8c-0.1,0-0.2-1.1-0.9-2.7c-0.2-0.4-0.3-0.8-0.6-1.3
						c-0.2-0.5-0.5-0.9-0.8-1.4c-0.6-1-1.4-1.9-2.4-2.9c-1-0.9-2-1.6-3-2.2c-0.5-0.3-1-0.6-1.4-0.8c-0.5-0.2-0.9-0.4-1.3-0.6
						C331.1,442.4,330,442.3,330,442.2z"/>
				</g>
			</g>
		</g>
	</g>
</g>
<g id="Speech_Bubble">
	<g>
		<g>
			<path class="st14" d="M332.5,114.5l-4.3-14.3c4.2-4.9,5.6-9.3,6.6-16.1c3-19.7-10.5-38.1-30.2-41.1c-19.7-3-38.1,10.5-41.1,30.2
				c-3,19.7,10.5,38.1,30.2,41.1c8.2,1.3,16.2-0.4,23-4.1l2.3-1.7L332.5,114.5z"/>
		</g>
	</g>
	<g>
		<g>
			<g>
				<g>
					<g>
						<g>
							<g>
								<path class="st9" d="M305.4,73.8h-2.2l-4.8-6.8v-4.4c0,0-3.4-0.2-3,5.6c0.4,5.8,0,4.3,0,4.3s-7.3,0-7.9,0.7
									c-0.4,0.5-0.6,7.7-0.7,11.6c0,2,1.2,3.8,3,4.3c0.3,0.1,0.5,0.1,0.8,0.1c1.8,0,11.1-1.5,11.1-1.5h3.8V73.8z"/>
							</g>
						</g>
					</g>
					<g>
						<g>
							<g>
								<polygon class="st9" points="311.8,72.6 310.4,87.8 306.6,87.8 306.6,72.9 								"/>
							</g>
						</g>
					</g>
				</g>
			</g>
		</g>
		<g>
			<g>
				<g>
					<path class="st3" d="M299.2,42.1c0,0-0.2,0-0.6,0c-0.5,0-1.1,0-1.8,0.1c-0.4,0-0.9,0-1.4,0.1c-0.5,0.1-1,0.1-1.6,0.2
						c-0.6,0.1-1.2,0.2-1.9,0.3c-0.7,0.2-1.4,0.3-2.1,0.5c-3,0.8-6.6,2.1-10.3,4.5c-3.7,2.4-7.5,5.8-10.6,10.4
						c-3.1,4.6-5.4,10.4-6,16.9c-0.1,1.6-0.3,3.3-0.1,5c0.1,0.8,0,1.7,0.2,2.5c0.1,0.8,0.3,1.7,0.4,2.6c0.7,3.4,1.7,6.9,3.5,10.1
						c1.7,3.3,3.9,6.3,6.6,9.1c2.7,2.7,6,5,9.5,6.8c3.6,1.8,7.5,3.1,11.6,3.6c1,0.2,2.1,0.2,3.1,0.3c1,0.1,2.1,0.1,3.1,0.1
						c2.1-0.1,4.2-0.3,6.3-0.8c4.5-1,8.8-2.8,12.5-5.3l-0.4,0c4.3,1.7,8.6,3.4,12.7,5.1l0.8,0.3l-0.2-0.8c-1.3-4.7-2.5-9.2-3.7-13.6
						l-0.1,0.3c3.6-4.7,5.8-10.2,6.8-15.5c0.5-2.7,0.7-5.4,0.5-8c-0.1-1.3-0.1-2.6-0.4-3.8c-0.1-0.6-0.2-1.2-0.3-1.9
						c-0.1-0.6-0.3-1.2-0.4-1.8c-2.5-9.6-8.4-16.7-14.2-20.7c-2.9-2.1-5.8-3.5-8.5-4.5c-0.7-0.2-1.3-0.5-1.9-0.7
						c-0.6-0.2-1.2-0.3-1.8-0.5c-0.6-0.1-1.1-0.3-1.7-0.4c-0.5-0.1-1-0.2-1.5-0.2c-1-0.1-1.8-0.3-2.5-0.3c-0.7,0-1.4,0-1.9-0.1
						c-0.5,0-0.8,0-1.1,0C299.4,42,299.2,42,299.2,42.1c0,0,0.1,0,0.4,0.1c0.3,0,0.7,0.1,1.1,0.1c0.5,0,1.1,0.1,1.9,0.1
						c0.7,0.1,1.6,0.2,2.5,0.4c3.7,0.7,9.4,2.2,15.1,6.4c5.7,4.1,11.5,11.1,13.8,20.5c0.1,0.6,0.3,1.2,0.4,1.8
						c0.1,0.6,0.2,1.2,0.3,1.8c0.2,1.2,0.3,2.5,0.3,3.8c0.2,2.5,0,5.2-0.5,7.8c-0.9,5.3-3.2,10.6-6.7,15.2l-0.1,0.2l0.1,0.2
						c1.2,4.4,2.4,8.9,3.7,13.6l0.5-0.5c-4.1-1.7-8.4-3.4-12.7-5.1l-0.2-0.1l-0.2,0.1c-3.7,2.4-7.8,4.2-12.2,5.1
						c-2,0.4-4.1,0.7-6.1,0.8c-1,0-2,0-3.1-0.1c-1-0.1-2-0.1-3-0.3c-4-0.5-7.9-1.7-11.4-3.5c-3.5-1.8-6.6-4-9.3-6.7
						c-2.6-2.7-4.8-5.7-6.5-8.9c-1.7-3.2-2.7-6.6-3.4-9.9c-0.1-0.8-0.3-1.7-0.4-2.5c-0.1-0.8-0.1-1.7-0.2-2.5
						c-0.2-1.7,0-3.3,0.1-4.9c0.6-6.4,2.9-12.1,5.8-16.7c3-4.6,6.8-7.9,10.4-10.3c3.6-2.4,7.2-3.8,10.1-4.6c0.7-0.2,1.4-0.4,2.1-0.6
						c0.7-0.1,1.3-0.2,1.9-0.3c0.6-0.1,1.1-0.2,1.6-0.3c0.5-0.1,0.9-0.1,1.4-0.1c0.8-0.1,1.4-0.1,1.8-0.1
						C299,42.1,299.2,42.1,299.2,42.1z"/>
				</g>
			</g>
		</g>
	</g>
</g>
</svg>
