<?xml version="1.0" encoding="utf-8"?>
<!-- Generator: Adobe Illustrator 22.1.0, SVG Export Plug-In . SVG Version: 6.00 Build 0)  -->
<svg version="1.1" xmlns="http://www.w3.org/2000/svg" xmlns:xlink="http://www.w3.org/1999/xlink" x="0px" y="0px"
	 viewBox="0 0 500 500" style="enable-background:new 0 0 500 500;" xml:space="preserve">
<style type="text/css">
	.st0{fill:#E0E0E0;}
	.st1{fill:#FAFAFA;}
	.st2{fill:#EBEBEB;}
	.st3{display:none;}
	.st4{display:inline;}
	.st5{fill:#263238;}
	.st6{fill:#FF725E;}
	.st7{opacity:0.3;}
	.st8{fill:#FFFFFF;}
	.st9{fill:#455A64;}
	.st10{font-family:'Arial-Black';}
	.st11{font-size:16.0975px;}
	.st12{fill:#FFBE9D;}
	.st13{fill:#EB996E;}
	.st14{opacity:0.6;}
	.st15{fill:#124438;}
	.st16{fill:#155648;}
	.st17{opacity:0.2;}
</style>
<g id="Background_Complete">
	<g>
		<g>
			<g>
				<g>
					<path class="st0" d="M385.9,379.2c-3.9-2.5-8.4-4-13-4.5c-2.1-0.2-4.4-0.2-6.1,1.1c-0.4,0.3-0.7,0.7-0.6,1.1
						c0.1,0.3,0.3,0.6,0.6,0.8C372,381.7,380,382.2,385.9,379.2"/>
				</g>
			</g>
			<g>
				<g>
					<path class="st0" d="M385.5,378.8c-2.9-2.3-5.9-4.6-8.4-7.4c-2.5-2.8-4.5-6.1-5.3-9.7c-0.2-1.1-0.3-2.4,0.4-3.3
						C379,363.7,384.3,370.4,385.5,378.8"/>
				</g>
			</g>
			<g>
				<g>
					<path class="st0" d="M385.8,379.1c-0.5-3.7-0.7-7.4,0.2-11c0.8-3.6,2.8-7,5.9-9.1c1.2,2.7,0.7,5.8-0.2,8.6
						c-1.3,4.4-3.2,8.5-5.8,12.2"/>
				</g>
			</g>
			<g>
				<g>
					<path class="st0" d="M392.4,390.8c-4,0.5-7.4,2.6-10.4,5.3c-3,2.7-5.1,6.3-6,10.2c3.9-0.2,7.2-3,9.6-6.1
						C388,397.2,389.7,393.8,392.4,390.8"/>
				</g>
			</g>
			<g>
				<g>
					<path class="st0" d="M393.8,392.7c-3.2-7.9-2-17.4,3-24.3C399,376.5,398.2,385.6,393.8,392.7"/>
				</g>
			</g>
			<g>
				<g>
					<path class="st0" d="M402.4,403c-3.6-0.2-7.3,0.6-10.4,2.4c-3.1,1.8-5.7,4.5-7.3,7.8c-0.2,0.4-0.4,1-0.1,1.4
						c0.3,0.3,0.8,0.4,1.2,0.3c3.5-0.2,6.6-2.3,9.2-4.7C397.5,407.9,399.7,405.1,402.4,403"/>
				</g>
			</g>
			<g>
				<g>
					<path class="st0" d="M402.2,402.5c-1.9-6-2-12.5-0.3-18.5c0.7-2.4,1.7-4.9,3.9-6c0.2-0.1,0.4-0.2,0.6-0.1
						c0.2,0.1,0.3,0.3,0.4,0.4c0.8,1.6,1,3.5,0.9,5.3c-0.1,1.8-0.5,3.6-0.8,5.4c-0.7,3.3-1.1,6.8-2.9,9.6c-0.4,0.7-0.8,1.4-1.1,2.1
						c-0.3,0.7-0.3,1-0.7,1.5"/>
				</g>
			</g>
			<g>
				<g>
					<path class="st0" d="M425.1,405.9c-1.7-6.5,0.1-14.3,4.2-19.6c0.3-0.4,0.7-0.8,1.2-0.8c0.7,0.1,0.9,1.1,0.9,1.8
						C431.1,394,428.9,400.5,425.1,405.9"/>
				</g>
			</g>
			<g>
				<g>
					<path class="st0" d="M427.1,407.3c7.8,2,16.8,0.1,23.4-4.8c-3.9-2-8.4-2.5-12.7-1.6C433.6,402,429.8,403.8,427.1,407.3"/>
				</g>
			</g>
			<g>
				<g>
					<path class="st0" d="M428.9,403c4.4-7.2,12.8-11.8,21.2-12.3c-1,3.4-3.8,6.1-6.9,7.7c-3.2,1.6-6.7,2.3-10.2,3
						C431.6,401.6,429.8,401.9,428.9,403"/>
				</g>
			</g>
			<g>
				<g>
					<path class="st0" d="M425.5,382.1c1.2-4.1,2.4-8.2,2.7-12.4c0.3-4.2-0.3-8.7-2.5-12.3c-4.1,7.9-4.5,17.2-0.4,25.1"/>
				</g>
			</g>
			<g>
				<g>
					<path class="st0" d="M439.3,375.1c4.8-8.7,14.6-15.7,24.5-16.7C460,368,449.6,375.3,439.3,375.1"/>
				</g>
			</g>
			<g>
				<g>
					<path class="st0" d="M436.3,376.9c7.2,1.1,13.3,5.7,19.9,8.4c1.4,0.6,3,1.1,4.5,0.9c1.5-0.2,3.1-1.2,3.4-2.7
						c0.3-1.3-0.3-2.6-1.2-3.5c-0.9-0.9-2.1-1.5-3.3-2c-7.3-3-15.1-3.1-22.8-1.3"/>
				</g>
			</g>
			<g>
				<g>
					<path class="st0" d="M432.2,381.9c1.6,0.5,2.2,1.3,3.5,2.4c4.4,3.7,9.6,6.4,15.1,7.8c0.6,0.1,1.3,0.2,1.6-0.3
						c0.3-0.5-0.1-1-0.4-1.4c-2.3-2.9-5.6-4.9-9.1-6.2c-3.5-1.3-6.5-2.9-10.7-2.5"/>
				</g>
			</g>
			<g>
				<g>
					<path class="st0" d="M427.5,351.5c5.8,5.4,14,8.2,21.9,7.5c0.4,0,0.8-0.1,1-0.4c0.6-0.6-0.1-1.5-0.8-2
						C443.2,351.6,435.4,349.5,427.5,351.5"/>
				</g>
			</g>
			<g>
				<g>
					<path class="st0" d="M433,349.5c7.7-5.8,18.2-7.5,27.4-4.5c-3.4,3.4-8.2,5.2-13.1,5.7C442.6,351.2,437.7,350.7,433,349.5"/>
				</g>
			</g>
			<g>
				<g>
					<path class="st0" d="M430.8,335.6c-0.6-6.4-0.2-11.5-0.7-18c0-0.5-0.1-1.1-0.6-1.3c-0.7-0.3-1.2,0.6-1.5,1.3
						c-1.9,6-0.9,12.8,2.7,17.9"/>
				</g>
			</g>
			<g>
				<g>
					<path class="st0" d="M430.4,336.3c4.4-2.7,7.6-6.2,10.7-10.4c2.1-2.9,3.9-6.3,3.4-9.9c-3-0.1-5.8,1.6-7.7,3.8
						c-1.9,2.2-3.1,5.1-3.9,7.9C432,330.6,431.4,333.5,430.4,336.3"/>
				</g>
			</g>
			<g>
				<g>
					<path class="st0" d="M440.9,333.4c9.6-3.5,18.5-8.8,26.3-15.5c-3.1-1.3-6.7-0.5-9.9,0.8c-7.2,2.9-13,7.8-16.5,14.7"/>
				</g>
			</g>
			<g>
				<g>
					<path class="st0" d="M433.3,339.8c4.8,0.5,9.8,0.9,14.6,0.1c4.7-0.8,9.2-2.7,13.6-4.5c0.4-0.2,0.8-0.3,0.9-0.7
						c0.2-0.4,0-0.9-0.3-1.2c-0.3-0.3-0.7-0.4-1.2-0.5c-4.8-1.3-10-0.7-14.7,0.9C441.5,335.4,437.6,337.3,433.3,339.8"/>
				</g>
			</g>
			<g>
				<g>
					<path class="st0" d="M405.6,351.8c-3.3-6.7-3.1-14.5-0.2-21.3c2,3.1,2.3,7,1.9,10.6c-0.4,3.6-1.5,7.4-1.5,11.1"/>
				</g>
			</g>
			<g>
				<g>
					<path class="st0" d="M392.4,345.1c-8.3-0.2-16.5,3.4-22.1,9.4c4.1,0.6,8.4-0.4,12.1-2.2c3.7-1.8,7.1-4.4,10.4-6.9"/>
				</g>
			</g>
			<g>
				<g>
					<path class="st0" d="M383.6,342.1c-4-0.3-7.9-0.8-11.8,0.4c-3.9,1.2-7.4,3.9-9,7.6c3.8,0.4,7.6-0.5,11.1-2.1
						C377.3,346.5,380.4,344.3,383.6,342.1"/>
				</g>
			</g>
			<g>
				<g>
					<path class="st0" d="M396.7,342.3c-3.6-2.4-7.4-4.8-11.6-5.8c-4.2-1-9.1-0.3-12.1,2.9c3.4,2,7.6,2.2,11.6,2.2
						c4,0,8.8,0,12.6,1.3"/>
				</g>
			</g>
			<g>
				<g>
					<path class="st0" d="M396.7,342.5c-6.2-6.1-8.6-17.1-6.1-25.4C395.5,324.5,397.7,333.6,396.7,342.5"/>
				</g>
			</g>
			<g>
				<g>
					<path class="st0" d="M413.8,325.2c1.2-2.7,2-5.6,3-8.4c1.1-2.8,2.4-5.5,4.3-7.7c2-2.2,4.7-3.8,7.7-4
						c-1.9,8.4-7.4,15.9-14.9,20.1"/>
				</g>
			</g>
			<g>
				<g>
					<path class="st0" d="M410.7,328.8c-1.9-2.7-4.2-6.3-6.8-8.3c-2.6-2-6.1-3.2-9.3-2.4C397.9,323.9,404.1,328,410.7,328.8"/>
				</g>
			</g>
			<g>
				<g>
					<path class="st0" d="M411.3,325.4c-1.3-3.2-2.6-6.5-3.1-9.9c-0.5-3.4-0.2-7.1,1.6-10.1c3.4,6.4,4.5,13.4,1.7,20.1"/>
				</g>
			</g>
			<g>
				<g>
					<path class="st0" d="M413.8,305.4c1.9-6.4,7.8-11.1,14.1-13.3c0.8-0.3,1.6-0.5,2.5-0.4c0.8,0.1,1.6,0.7,1.8,1.5
						c0.2,1.1-0.7,2.1-1.5,2.8C425.8,300.3,420,303.5,413.8,305.4"/>
				</g>
			</g>
			<g>
				<g>
					<path class="st0" d="M413.9,300.2c0.2-4.1,0.5-8.3,1.8-12.2c1.3-3.9,3.9-7.6,7.7-9.3c0.6,4.2-1.2,8.3-3.4,11.9
						c-2.2,3.6-4.9,7-6.2,11"/>
				</g>
			</g>
			<g>
				<g>
					<path class="st0" d="M413.8,303c-1.6-4.7-1.8-10.6-4.5-14.6c-1.9-2.8-5.1-4.8-6.8-7.8c-1.1,2.8-0.8,6,0.4,8.8
						c1.2,2.8,3.1,5.2,5.2,7.4C410.1,299,411.9,300.7,413.8,303"/>
				</g>
			</g>
			<g>
				<g>
					<g>
						<path class="st0" d="M413.8,440.1c-0.1,0-0.2-31.1-0.2-69.4c0-38.3,0.1-69.4,0.2-69.4s0.2,31.1,0.2,69.4
							C414.1,409.1,414,440.1,413.8,440.1z"/>
					</g>
				</g>
			</g>
			<g>
				<g>
					<g>
						<path class="st0" d="M441,347.1c0,0-0.4,0.2-1.2,0.4c-0.8,0.3-1.9,0.6-3.2,1.1c-2.7,0.9-6.4,2.3-10.5,3.9
							c-4,1.7-7.8,3.1-9.9,5c-1.1,0.9-1.7,1.9-2,2.6c-0.3,0.7-0.4,1.2-0.4,1.2c0,0,0-0.1,0-0.3c0-0.2,0.1-0.5,0.2-0.9
							c0.3-0.8,0.9-1.8,1.9-2.8c1.1-1,2.6-1.9,4.3-2.7c1.7-0.8,3.6-1.6,5.7-2.5c4.1-1.7,7.8-3,10.5-3.8c1.4-0.4,2.5-0.7,3.3-0.9
							C440.5,347.1,441,347,441,347.1z"/>
					</g>
				</g>
			</g>
			<g>
				<g>
					<g>
						<path class="st0" d="M449.9,325.2c0,0-0.1,0.1-0.3,0.3c-0.3,0.2-0.6,0.6-1,0.9c-0.9,0.8-2.2,2-3.7,3.4
							c-3.2,2.9-7.6,6.7-12.4,11c-4.8,4.3-9,8.4-11.9,11.5c-1.5,1.5-2.6,2.8-3.4,3.7c-0.4,0.4-0.7,0.8-0.9,1
							c-0.2,0.2-0.3,0.4-0.3,0.3c0,0,0.1-0.1,0.3-0.4c0.2-0.2,0.5-0.6,0.8-1.1c0.7-0.9,1.8-2.2,3.3-3.8c2.8-3.2,7-7.3,11.8-11.6
							c4.9-4.3,9.3-8.2,12.5-10.9c1.6-1.4,2.9-2.5,3.8-3.3c0.4-0.4,0.8-0.6,1.1-0.9C449.7,325.3,449.9,325.2,449.9,325.2z"/>
					</g>
				</g>
			</g>
			<g>
				<g>
					<g>
						<path class="st0" d="M427.2,345.3c-0.1-0.1,0.9-2.4,1.9-5.3c1-2.9,1.5-5.4,1.6-5.4c0.1,0-0.2,2.6-1.2,5.6
							c-0.5,1.5-1.1,2.8-1.5,3.7C427.6,344.8,427.3,345.3,427.2,345.3z"/>
					</g>
				</g>
			</g>
			<g>
				<g>
					<g>
						<path class="st0" d="M413.9,364.1c0,0-0.3-0.3-0.7-0.9c-0.5-0.6-1.1-1.5-1.9-2.4c-1.6-2.1-3.8-4.9-6.3-8.1
							c-2.5-3.1-4.8-5.9-6.4-8c-0.8-1-1.4-1.8-2-2.4c-0.5-0.6-0.7-0.9-0.7-0.9c0,0,0.3,0.3,0.8,0.8c0.5,0.5,1.2,1.3,2.1,2.3
							c1.7,2,4,4.8,6.5,7.9c2.5,3.1,4.7,6,6.2,8.2c0.8,1.1,1.4,1.9,1.8,2.5C413.7,363.7,413.9,364.1,413.9,364.1z"/>
					</g>
				</g>
			</g>
			<g>
				<g>
					<g>
						<path class="st0" d="M407.9,356.5c-0.1,0.1-1.7-1.8-2.5-4.7c-0.6-2-0.6-3.9-0.6-4.7l0.2,0c-0.1,0.4-0.2,0.5-0.2,0.5
							c0,0,0-0.2,0-0.6l0.2,0c0.1,0.8,0.2,2.6,0.8,4.6C406.7,354.4,408,356.4,407.9,356.5z"/>
					</g>
				</g>
			</g>
			<g>
				<g>
					<g>
						<path class="st0" d="M400.2,346.8c-0.1,0.1-0.6-0.6-1.7-1c-1.2-0.4-2.9-0.5-4.8-0.4c-1.9,0.1-3.6,0.5-4.9,0.8
							c-1.2,0.3-2,0.5-2,0.5c0-0.1,0.7-0.4,1.9-0.8c1.2-0.4,3-0.8,4.9-0.9c1.9-0.2,3.8,0,5,0.5C399.8,346,400.3,346.8,400.2,346.8z"
							/>
					</g>
				</g>
			</g>
			<g>
				<g>
					<g>
						<path class="st0" d="M398.4,344.4c0,0.1-1-0.4-2.7-1c-1.7-0.6-4-1.2-6.7-1.4c-2.7-0.2-5.1,0-6.8,0.3c-1.7,0.3-2.8,0.6-2.8,0.6
							c0,0,0.2-0.1,0.7-0.3c0.5-0.2,1.2-0.4,2-0.6c1.7-0.4,4.2-0.7,6.9-0.5c2.7,0.2,5.1,0.9,6.7,1.5c0.8,0.3,1.5,0.6,1.9,0.9
							C398.2,344.3,398.4,344.4,398.4,344.4z"/>
					</g>
				</g>
			</g>
			<g>
				<g>
					<g>
						<path class="st0" d="M413.8,334.5c-0.1,0-1-3-1.9-6.8c-1-3.8-1.6-6.8-1.5-6.9c0.1,0,1,3,1.9,6.8
							C413.3,331.4,413.9,334.5,413.8,334.5z"/>
					</g>
				</g>
			</g>
			<g>
				<g>
					<g>
						<path class="st0" d="M413.9,334.5c-0.1,0-0.7-2-2.2-4c-1.4-2.1-3.2-3.2-3.2-3.3c0,0,0.5,0.1,1.2,0.6c0.7,0.5,1.6,1.3,2.3,2.4
							C413.7,332.4,414,334.5,413.9,334.5z"/>
					</g>
				</g>
			</g>
			<g>
				<g>
					<g>
						<path class="st0" d="M413.8,423.6c0,0-0.1-0.7-0.5-2.1c-0.3-1.3-1-3.2-2.1-5.4c-2.1-4.4-6.1-9.9-11-15.5
							c-2.5-2.8-4.8-5.5-6.9-8c-2-2.5-3.7-4.9-4.9-7.1c-1.2-2.1-2-4-2.5-5.3c-0.2-0.6-0.4-1.2-0.5-1.5c-0.1-0.3-0.1-0.5-0.1-0.5
							c0,0,0.3,0.7,0.8,2c0.5,1.3,1.3,3.1,2.6,5.2c1.2,2.1,2.9,4.5,5,7c2,2.5,4.4,5.1,6.9,8c5,5.6,8.9,11.2,11,15.7
							c1.1,2.2,1.7,4.1,2,5.5c0.1,0.7,0.2,1.2,0.3,1.6C413.8,423.4,413.9,423.6,413.8,423.6z"/>
					</g>
				</g>
			</g>
			<g>
				<g>
					<g>
						<path class="st0" d="M438.4,395.9c0,0-0.5,0.3-1.3,0.7c-0.8,0.5-2,1.2-3.3,2.2c-1.3,1-2.8,2.4-4.4,4c-1.5,1.6-3.1,3.5-4.7,5.5
							c-3.2,4.1-6.3,7.6-8.1,10.5c-0.9,1.4-1.6,2.6-2,3.5c-0.4,0.8-0.7,1.3-0.7,1.3c0,0,0-0.1,0.1-0.4c0.1-0.2,0.2-0.6,0.4-1
							c0.4-0.9,1-2.1,1.9-3.6c1.8-2.9,4.8-6.6,8-10.6c1.6-2,3.2-3.9,4.8-5.5c1.6-1.6,3.1-3,4.5-4c1.4-1,2.6-1.7,3.4-2.1
							c0.4-0.2,0.8-0.3,1-0.4C438.2,395.9,438.4,395.9,438.4,395.9z"/>
					</g>
				</g>
			</g>
			<g>
				<g>
					<g>
						<path class="st0" d="M438.9,404.9c0,0.1-1,0.2-2.7,0.4c-1.7,0.2-4,0.5-6.4,1.3c-2.4,0.8-4.5,2-5.8,3c-1.3,1-2,1.9-2,1.8
							c0,0,0.1-0.2,0.4-0.6c0.3-0.4,0.8-0.9,1.4-1.4c1.3-1.1,3.3-2.4,5.8-3.2c2.5-0.8,4.9-1,6.6-1.2
							C437.8,404.8,438.8,404.8,438.9,404.9z"/>
					</g>
				</g>
			</g>
			<g>
				<g>
					<g>
						<path class="st0" d="M422.7,410.4c-0.1-0.1,1.1-2,2-4.5c0.9-2.5,1.1-4.8,1.3-4.7c0.1,0,0.1,0.6,0,1.5
							c-0.1,0.9-0.3,2.1-0.8,3.4c-0.5,1.3-1.1,2.4-1.6,3.2C423.1,410,422.7,410.4,422.7,410.4z"/>
					</g>
				</g>
			</g>
			<g>
				<g>
					<g>
						<path class="st0" d="M446.3,371.7c0,0-0.1,0.1-0.4,0.2c-0.3,0.2-0.8,0.3-1.3,0.6c-0.6,0.2-1.2,0.5-2,0.9
							c-0.8,0.4-1.7,0.8-2.6,1.4c-0.5,0.3-1,0.6-1.5,0.8c-0.5,0.3-1,0.6-1.6,1c-1.1,0.7-2.2,1.5-3.4,2.3c-2.3,1.7-4.7,3.8-7,6.2
							c-2.3,2.4-4.3,4.9-5.9,7.2c-0.8,1.2-1.6,2.3-2.2,3.4c-0.3,0.6-0.7,1.1-0.9,1.6c-0.3,0.5-0.5,1-0.8,1.5c-0.5,1-0.9,1.9-1.3,2.6
							c-0.4,0.8-0.7,1.5-0.9,2c-0.2,0.5-0.4,1-0.5,1.3c-0.1,0.3-0.2,0.4-0.2,0.4c0,0,0-0.2,0.1-0.5c0.1-0.4,0.3-0.8,0.5-1.3
							c0.2-0.6,0.5-1.3,0.8-2.1c0.3-0.8,0.7-1.7,1.2-2.7c0.2-0.5,0.5-1,0.8-1.5c0.3-0.5,0.6-1.1,0.9-1.6c0.6-1.1,1.4-2.3,2.2-3.5
							c1.6-2.4,3.6-4.9,5.9-7.3c2.3-2.4,4.8-4.5,7.1-6.2c1.2-0.8,2.3-1.6,3.4-2.3c0.5-0.3,1.1-0.7,1.6-1c0.5-0.3,1-0.6,1.5-0.8
							c0.9-0.5,1.9-0.9,2.6-1.3c0.8-0.4,1.5-0.7,2-0.9c0.5-0.2,1-0.4,1.3-0.5C446.2,371.8,446.3,371.7,446.3,371.7z"/>
					</g>
				</g>
			</g>
			<g>
				<g>
					<g>
						<path class="st0" d="M426.9,384.7c0,0,0.2-0.8,1.1-1.6c0.9-0.8,2.5-1.6,4.3-1.7c1.8,0,3.4,0.5,4.5,0.9
							c1.1,0.4,1.7,0.8,1.7,0.8c0,0.1-0.7-0.2-1.8-0.5c-1.1-0.3-2.7-0.8-4.4-0.7c-1.7,0.1-3.2,0.7-4.1,1.4
							C427.3,384.1,427,384.8,426.9,384.7z"/>
					</g>
				</g>
			</g>
			<g>
				<g>
					<g>
						<path class="st0" d="M424,387.7c-0.1-0.1,1-1.7,1.2-4c0.3-2.3-0.4-4.1-0.3-4.1c0,0,0.3,0.4,0.5,1.2c0.2,0.8,0.4,1.8,0.2,3
							c-0.1,1.2-0.5,2.2-0.9,2.9C424.4,387.4,424,387.8,424,387.7z"/>
					</g>
				</g>
			</g>
		</g>
		<g>
			<g>
				<path class="st0" d="M392.4,428c0.7,11.9,4.2,23.9,9.7,36.2h23.9c5.2-12.1,8.6-24.1,9.2-36.2H392.4z"/>
			</g>
		</g>
		<g>
			<g>
				<g>
					<path class="st1" d="M431.4,447.2c0,0.1-7.9,0.2-17.6,0.2c-9.7,0-17.6-0.1-17.6-0.2c0-0.1,7.9-0.2,17.6-0.2
						C423.5,447,431.4,447.1,431.4,447.2z"/>
				</g>
			</g>
		</g>
		<g>
			<g>
				<g>
					<path class="st1" d="M430.8,451.5c0,0.1-7.4,0.2-16.5,0.2c-9.1,0-16.5-0.1-16.5-0.2c0-0.1,7.4-0.2,16.5-0.2
						C423.4,451.3,430.8,451.4,430.8,451.5z"/>
				</g>
			</g>
		</g>
		<g>
			<g>
				<g>
					<path class="st1" d="M402.5,435.8c0.1,0,0.2,2.5,0.2,5.5c0,3-0.1,5.5-0.2,5.5c-0.1,0-0.2-2.5-0.2-5.5
						C402.3,438.3,402.4,435.8,402.5,435.8z"/>
				</g>
			</g>
		</g>
		<g>
			<g>
				<g>
					<path class="st1" d="M415.3,435.8c0.1,0,0.2,2.6,0.2,5.7c0,3.2-0.1,5.7-0.2,5.7c-0.1,0-0.2-2.6-0.2-5.7
						C415.1,438.4,415.2,435.8,415.3,435.8z"/>
				</g>
			</g>
		</g>
		<g>
			<g>
				<g>
					<path class="st1" d="M427.4,435.7c0.1,0,0.2,2.6,0.2,5.8c0,3.2-0.1,5.8-0.2,5.8s-0.2-2.6-0.2-5.8
						C427.2,438.3,427.3,435.7,427.4,435.7z"/>
				</g>
			</g>
		</g>
		<g>
			<g>
				<g>
					<path class="st1" d="M434.5,435.8c0,0.1-9.2,0.2-20.6,0.2c-11.4,0-20.6-0.1-20.6-0.2c0-0.1,9.2-0.2,20.6-0.2
						C425.2,435.6,434.5,435.7,434.5,435.8z"/>
				</g>
			</g>
		</g>
	</g>
	<g>
		<g>
			<g>
				<g>
					<rect x="55.4" y="329.5" class="st0" width="19.7" height="118.2"/>
				</g>
			</g>
		</g>
		<g>
			<g>
				<g>
					<rect x="87" y="329.5" class="st0" width="19.7" height="118.2"/>
				</g>
			</g>
		</g>
		<g>
			<g>
				<g>
					<rect x="118.7" y="329.5" class="st0" width="19.7" height="118.2"/>
				</g>
			</g>
		</g>
		<g>
			<g>
				<g>
					<rect x="150.3" y="329.5" class="st0" width="19.7" height="118.2"/>
				</g>
			</g>
		</g>
		<g>
			<g>
				<g>
					<rect x="182" y="329.5" class="st0" width="19.7" height="118.2"/>
				</g>
			</g>
		</g>
		<g>
			<g>
				<g>
					<rect x="213.6" y="329.5" class="st0" width="19.7" height="118.2"/>
				</g>
			</g>
		</g>
		<g>
			<g>
				<g>
					<rect x="245.3" y="329.5" class="st0" width="19.7" height="118.2"/>
				</g>
			</g>
		</g>
		<g>
			<g>
				<g>
					<path class="st0" d="M260.7,349.1H44.9c-0.8,0-1.4-0.6-1.4-1.4v-3.5c0-0.8,0.6-1.4,1.4-1.4h215.9c0.8,0,1.4,0.6,1.4,1.4v3.5
						C262.2,348.5,261.5,349.1,260.7,349.1z"/>
				</g>
			</g>
		</g>
		<g>
			<g>
				<g>
					<path class="st0" d="M260.7,439.7H44.9c-0.8,0-1.4-0.6-1.4-1.4v-3.5c0-0.8,0.6-1.4,1.4-1.4h215.9c0.8,0,1.4,0.6,1.4,1.4v3.5
						C262.2,439.1,261.5,439.7,260.7,439.7z"/>
				</g>
			</g>
		</g>
	</g>
	<g>
		<g>
			<g>
				<rect x="345.4" y="40.6" class="st0" width="109.8" height="181.7"/>
			</g>
		</g>
		<g>
			<g>
				<rect x="341.7" y="40.6" class="st2" width="109.8" height="181.7"/>
			</g>
		</g>
		<g>
			<g>
				<rect x="346.4" y="44.3" class="st1" width="100.4" height="174.3"/>
			</g>
		</g>
		<g>
			<g>
				<g>
					<rect x="365.5" y="66.9" class="st2" width="61.7" height="129"/>
				</g>
			</g>
			<g>
				<g>
					<path class="st0" d="M365.5,150.3c-0.1-12.1,10.7-23.8,22.6-25.5c5.7-0.8,11.7,0.3,17.1-1.9c9.5-3.9,12.5-16.5,22.1-20.2
						l0.4,93.2h-62.2V150.3z"/>
				</g>
			</g>
		</g>
	</g>
</g>
<g id="Background_Simple" class="st3">
	<g class="st4">
		<path class="st2" d="M443.6,134.3l-2.4-4c-20.5-33.8-57.6-54.2-96.7-51.7c-5,0.3-10,1-15,2.1c-35.6,7.6-66.5,34.5-79.3,68.9
			c-7.5,20.3-9.6,43.6-24,59.6c-18.6,20.9-50.3,21.6-78.1,20.7c-27.8-0.9-59.4-0.1-78,20.9c-11.6,13.2-15.3,31.9-14.4,49.5
			c2.5,46.6,35,88.3,76.3,109.1c41.3,20.7,90,22.6,135.2,13.5c63.4-12.8,123.6-47.9,159.9-102C463.4,266.6,472.6,192.8,443.6,134.3z
			"/>
	</g>
</g>
<g id="Floor">
	<g>
		<g>
			<path class="st5" d="M451,465.4c0,0.1-90.5,0.3-202,0.3c-111.6,0-202.1-0.1-202.1-0.3c0-0.1,90.4-0.3,202.1-0.3
				C360.6,465.1,451,465.2,451,465.4z"/>
		</g>
	</g>
</g>
<g id="Contract">
	<g>
		<g>
			<path class="st6" d="M255,73.7l48.1-2c8.7-0.4,16.1,6.5,16.3,15.2l1.7,74.3c0.2,8.1-5.9,15-14,15.9v0c-2.7,0.3-4.7,2.6-4.6,5.4
				l6,157c0.4,10.7-7.9,19.7-18.6,20.2l-183.8,8.2c-2.9,0.1-5.3-2.1-5.4-5L92.6,90.3c-0.1-2.8,2-5.1,4.8-5.3L255,73.7z"/>
		</g>
		<g class="st7">
			<path d="M100.5,357.6l0.2,5.2l197.9-18.2l-3.8-272.5c0,0-48,7.3-48.9,7.3S100.5,357.6,100.5,357.6z"/>
		</g>
		<g>
			<g>
				<polygon class="st2" points="230,59.1 287.4,55.6 293.3,338.1 91.2,358.6 61.4,77.6 				"/>
			</g>
			<g>
				<g>
					<path class="st5" d="M230,59.1c0,0-1,0.1-3,0.4c-2,0.2-4.9,0.6-8.7,1c-7.7,0.9-19,2.1-33.6,3.7c-29.1,3.2-71.3,7.9-123.2,13.6
						l0.2-0.2c8,75.3,18.4,173.1,29.8,281l-0.3-0.2c14.4-1.5,29.8-3,45.3-4.6c55-5.6,107.9-10.9,156.8-15.9l-0.2,0.3
						c-2.5-123.5-4.6-224.8-5.8-282.5l0.1,0.1c-18.7,1.1-33,2-42.7,2.5c-4.8,0.3-8.5,0.5-11,0.6C231.2,59.1,230,59.1,230,59.1
						s1.3-0.1,3.7-0.3c2.5-0.2,6.1-0.4,11-0.7c9.7-0.6,24-1.5,42.7-2.7l0.1,0l0,0.1c1.2,57.7,3.4,159,6.1,282.5l0,0.2l-0.2,0
						c-48.9,5-101.8,10.3-156.8,15.9c-15.5,1.6-30.9,3.1-45.3,4.6l-0.3,0l0-0.3c-11.4-107.9-21.7-205.7-29.7-281l0-0.2l0.2,0
						c52-5.7,94.1-10.3,123.2-13.4c14.6-1.6,25.9-2.8,33.6-3.6c3.8-0.4,6.8-0.7,8.7-0.9C228.9,59.2,230,59.1,230,59.1z"/>
				</g>
			</g>
		</g>
		<g>
			<g>
				<polygon class="st8" points="51.4,68.2 78.8,352.5 290.4,332.6 259.9,48.5 				"/>
			</g>
			<g>
				<g>
					<path class="st5" d="M51.4,68.2c1.7-0.2,82.1-7.9,208.5-19.9l0.2,0l0,0.2c8.6,79.7,19.2,178,30.6,284.1l0,0.3l-0.3,0
						c-0.5,0-1,0.1-1.5,0.1c-75.5,7.1-147,13.8-210.2,19.8l-0.2,0l0-0.2C62.5,184.2,51.6,70.3,51.4,68.2
						c0.2,2.1,11.3,116,27.6,284.3l-0.3-0.2c63.2-6,134.7-12.7,210.2-19.8c0.5,0,1-0.1,1.5-0.1l-0.2,0.3
						c-11.4-106.1-21.9-204.3-30.5-284.1l0.2,0.2C133.5,60.5,53.1,68.1,51.4,68.2z"/>
				</g>
			</g>
		</g>
		<g>
			<g>
				<g>
					<path class="st0" d="M213.7,283.8c0-17.2,14.1-31.2,31.3-31.1c17.2,0,31.2,14.1,31.1,31.3c0,17.2-14.1,31.2-31.3,31.1
						C227.6,315.1,213.7,301,213.7,283.8z M275.5,284c0-16.9-13.7-30.7-30.6-30.7c-16.9,0-30.7,13.7-30.7,30.6
						c0,16.9,13.7,30.7,30.6,30.7C261.7,314.6,275.5,300.9,275.5,284z"/>
				</g>
			</g>
			<g>
				<g>
					<path class="st0" d="M217.3,283.8c0-15,12.3-27.2,27.3-27.1c15,0,27.2,12.3,27.1,27.3c0,15-12.3,27.2-27.3,27.1
						C229.4,311.1,217.2,298.8,217.3,283.8z M267.7,284c0-12.8-10.4-23.2-23.1-23.3c-12.8,0-23.2,10.4-23.3,23.1
						c0,12.8,10.4,23.2,23.1,23.3C257.2,307.1,267.7,296.7,267.7,284z"/>
				</g>
			</g>
			<g>
				<g>
					<path class="st0" d="M224,284.2c0-3.2,0.7-6.2,2.2-9l3.6,1.8c-1.1,2.3-1.7,4.7-1.7,7.2c0,8.9,7.2,16.1,16.1,16.2
						c3,0,5.9-0.8,8.4-2.4l2.1,3.4c-3.2,1.9-6.8,3-10.5,2.9C233,304.4,223.9,295.3,224,284.2z"/>
				</g>
			</g>
			<g>
				<g>
					<path class="st0" d="M234.8,266.4c2.9-1.5,6.1-2.3,9.3-2.3c11.1,0,20.1,9.1,20.1,20.2c0,3.8-1.1,7.5-3.1,10.7l-3.4-2.1
						c1.6-2.6,2.5-5.5,2.5-8.5c0-8.9-7.2-16.1-16.1-16.2c-2.6,0-5.2,0.6-7.5,1.8L234.8,266.4z"/>
				</g>
			</g>
		</g>
		<g>
			<g>
				<path class="st5" d="M254.9,121.6c0,0.1-39.9,4-89.2,8.7c-49.3,4.7-89.2,8.3-89.3,8.2c0-0.1,39.9-4,89.2-8.7
					C214.9,125.1,254.9,121.5,254.9,121.6z"/>
			</g>
		</g>
		<g>
			<g>
				<path class="st5" d="M158,119.4c0,0.1-18.4,2-41.2,4.1c-22.8,2.1-41.2,3.8-41.2,3.6c0-0.1,18.4-2,41.2-4.1
					C139.6,120.9,158,119.2,158,119.4z"/>
			</g>
		</g>
		<g>
			<g>
				<path class="st5" d="M255.7,133.2c0,0.1-39.9,4-89.2,8.7c-49.3,4.7-89.2,8.3-89.3,8.2c0-0.1,39.9-4,89.2-8.7
					C215.7,136.7,255.6,133.1,255.7,133.2z"/>
			</g>
		</g>
		<g>
			<g>
				<path class="st5" d="M256.4,144.8c0,0.1-39.9,4-89.2,8.7c-49.3,4.7-89.2,8.3-89.3,8.2c0-0.1,39.9-4,89.2-8.7
					C216.5,148.3,256.4,144.6,256.4,144.8z"/>
			</g>
		</g>
		<g>
			<g>
				<path class="st5" d="M257.2,156.4c0,0.1-39.9,4-89.2,8.7c-49.3,4.7-89.2,8.3-89.3,8.2c0-0.1,39.9-4,89.2-8.7
					C217.2,159.9,257.2,156.2,257.2,156.4z"/>
			</g>
		</g>
		<g>
			<g>
				<path class="st5" d="M258,168c0,0.1-39.9,4-89.2,8.7c-49.3,4.7-89.2,8.3-89.3,8.2c0-0.1,39.9-4,89.2-8.7
					C218,171.5,258,167.8,258,168z"/>
			</g>
		</g>
		<g>
			<g>
				<path class="st5" d="M258.8,179.5c0,0.1-39.9,4-89.2,8.7c-49.3,4.7-89.2,8.3-89.3,8.2c0-0.1,39.9-4,89.2-8.7
					C218.8,183.1,258.8,179.4,258.8,179.5z"/>
			</g>
		</g>
		<g>
			<g>
				<path class="st5" d="M259.5,191.1c0,0.1-39.4,4-88,8.6c-48.6,4.6-88.1,8.2-88.1,8.1c0-0.1,39.4-4,88-8.6
					C220.1,194.6,259.5,191,259.5,191.1z"/>
			</g>
		</g>
		<g>
			<g>
				<path class="st5" d="M190.8,213.4c0,0.1-23.8,2.4-53.1,5c-29.4,2.6-53.2,4.7-53.2,4.5c0-0.1,23.8-2.4,53.2-5
					C166.9,215.3,190.8,213.3,190.8,213.4z"/>
			</g>
		</g>
		<g>
			<g>
				<path d="M161.9,309.1c0,0.1-14.5,1.5-32.3,3c-17.9,1.5-32.4,2.6-32.4,2.5c0-0.1,14.5-1.5,32.3-3
					C147.4,310.1,161.9,309,161.9,309.1z"/>
			</g>
		</g>
		<g>
			<g>
				<path d="M134.1,320.2c0,0.1-8.1,1-18.1,1.8c-10,0.9-18.2,1.4-18.2,1.3c0-0.1,8.1-1,18.1-1.8
					C125.9,320.6,134.1,320.1,134.1,320.2z"/>
			</g>
		</g>
		<g>
			<g>
				<path class="st6" d="M131.8,238.7c0,0.1-9.5,1.2-21.4,2.4c-11.8,1.2-21.4,2-21.4,1.8c0-0.1,9.5-1.2,21.4-2.4
					C122.2,239.4,131.8,238.5,131.8,238.7z"/>
			</g>
		</g>
		<g>
			<g>
				<path class="st8" d="M63.6,286.7l0.7,6.7l-1.5,0.2l-0.3-2.7l-3,0.3l0.3,2.7l-1.5,0.2l-0.7-6.7l1.5-0.2l0.3,2.6l3-0.3l-0.3-2.6
					L63.6,286.7z"/>
				<path class="st8" d="M70.5,290.6l-3.9,0.4c0.2,0.6,0.8,1,1.6,0.9c0.5-0.1,0.9-0.3,1.2-0.6l0.9,0.8c-0.4,0.6-1.1,0.9-2,1
					c-1.8,0.2-3-0.8-3.2-2.3c-0.2-1.5,0.9-2.8,2.5-2.9c1.5-0.2,2.8,0.7,2.9,2.4C70.5,290.3,70.5,290.5,70.5,290.6z M66.5,290.1
					l2.5-0.3c-0.2-0.6-0.7-1-1.4-0.9C67,289,66.6,289.5,66.5,290.1z"/>
				<path class="st8" d="M74.4,287.1l0.1,1.4c-0.1,0-0.2,0-0.3,0c-0.8,0.1-1.3,0.6-1.2,1.6l0.2,2.4l-1.5,0.1l-0.5-5.1l1.4-0.1
					l0.1,0.7C73,287.5,73.6,287.2,74.4,287.1z"/>
				<path class="st8" d="M80.5,289.6l-3.9,0.4c0.2,0.6,0.8,1,1.6,0.9c0.5-0.1,0.9-0.3,1.2-0.6l0.9,0.8c-0.4,0.6-1.1,0.9-2,1
					c-1.8,0.2-3-0.8-3.2-2.3c-0.2-1.5,0.9-2.8,2.5-2.9c1.5-0.2,2.8,0.7,2.9,2.4C80.5,289.3,80.5,289.5,80.5,289.6z M76.5,289.1
					l2.5-0.3c-0.2-0.6-0.7-1-1.4-0.9C77,288,76.6,288.4,76.5,289.1z"/>
			</g>
		</g>
		<g>
			<g>
				<path d="M197.6,237.4c0,0,0.1,0,0.2,0.1c0.1,0,0.3,0.1,0.5,0.2c0.4,0.2,1,0.7,1.7,1.4c1.3,1.4,2.9,3.8,4.2,7.2
					c1.3,3.4,2.5,7.8,2.2,13.1c-0.1,1.3-0.3,2.6-0.7,4c-0.4,1.3-0.9,2.7-1.6,4c-1.3,2.6-3.2,5.2-5.5,7.5c-2.4,2.3-5.2,4.3-8.6,5.6
					c-3.3,1.3-7.1,2.1-10.9,1.7c-7.7-0.7-15.5-5.8-19.2-13.7c-0.9-2-1.5-4.1-1.7-6.4c-0.3-2.2,0-4.5,0.7-6.7c0.7-2.2,2-4.3,4-5.6
					c1-0.7,2.1-1.1,3.3-1.2c1.2-0.1,2.4,0,3.6,0.4c2.3,0.8,4.2,2.5,5.5,4.5c1.3,2.1,1.9,4.5,2.2,6.9c0.5,4.9-0.2,9.9-2.1,14.6
					c-1.9,4.6-4.9,8.8-8.8,11.8c-3.9,3-8.5,4.8-13.2,5.3c-4.7,0.5-9.5-0.2-13.6-2.2c-4.1-2-7.4-5.3-9.7-9c-2.3-3.7-3.4-8-3.3-12.1
					c0.1-2.1,0.4-4.1,1.2-6c0.8-1.9,1.9-3.6,3.4-4.8c1.5-1.2,3.5-1.9,5.4-1.6c1.9,0.3,3.6,1.3,4.8,2.7c1.2,1.4,2.1,3,2.4,4.7
					c0.3,1.7,0.3,3.4,0,5c-0.6,3.3-2,6.1-3.6,8.6c-1.5,2.5-3.2,4.7-5,6.6c-1.8,1.9-3.6,3.5-5.3,4.9c-1.8,1.3-3.5,2.5-5.1,3.4
					c-3.2,1.8-5.9,2.8-7.7,3.4c-1.8,0.6-2.8,0.8-2.8,0.8s0.2-0.1,0.7-0.2c0.5-0.2,1.2-0.3,2.1-0.7c1.8-0.6,4.5-1.6,7.6-3.5
					c1.6-0.9,3.3-2,5-3.4c1.7-1.4,3.5-3,5.3-4.9c1.7-1.9,3.4-4.1,4.9-6.6c1.5-2.5,2.9-5.3,3.5-8.5c0.3-1.6,0.3-3.3,0-4.9
					c-0.3-1.6-1.2-3.2-2.3-4.5c-1.2-1.3-2.8-2.3-4.5-2.5c-1.8-0.3-3.7,0.3-5.1,1.5c-1.5,1.2-2.5,2.8-3.3,4.6
					c-0.8,1.8-1.1,3.8-1.1,5.8c-0.1,4,1,8.2,3.2,11.9c2.2,3.6,5.4,6.8,9.5,8.8c4,2,8.7,2.7,13.3,2.2c4.6-0.5,9.2-2.3,13-5.2
					c3.8-2.9,6.8-7,8.6-11.6c1.9-4.6,2.6-9.5,2.1-14.3c-0.3-2.4-0.9-4.7-2.1-6.7c-1.2-2-3.1-3.6-5.2-4.3c-1.1-0.4-2.2-0.5-3.3-0.4
					c-1.1,0.1-2.2,0.5-3.1,1.2c-1.9,1.2-3.1,3.3-3.8,5.3c-0.7,2.1-1,4.3-0.7,6.5c0.2,2.2,0.8,4.3,1.7,6.2
					c3.6,7.8,11.3,12.8,18.8,13.5c3.8,0.4,7.5-0.4,10.8-1.7c3.3-1.3,6.1-3.3,8.5-5.5c2.4-2.2,4.2-4.8,5.5-7.4
					c0.7-1.3,1.2-2.6,1.6-3.9c0.4-1.3,0.6-2.6,0.7-3.9c0.4-5.2-0.8-9.6-2.1-13c-1.3-3.4-2.8-5.8-4.1-7.3c-0.6-0.7-1.2-1.2-1.6-1.4
					C197.9,237.5,197.6,237.4,197.6,237.4z"/>
			</g>
		</g>
		<g>
			<g>
				<path class="st9" d="M213.6,97.5c0,0,0-0.2-0.1-0.5c0-0.3-0.1-0.8-0.2-1.4c-0.1-1.3-0.3-3.1-0.6-5.5c-0.5-4.8-1.3-11.8-2.2-20.6
					l0.2,0.1c-24.5,2.6-63.8,6.7-108,11.4l0,0l0.2-0.3c1,9.6,2,19,2.9,28.1l-0.3-0.2c30.8-3.2,57.8-5.9,77.1-7.9
					c9.6-1,17.4-1.8,22.7-2.3c2.7-0.3,4.7-0.5,6.1-0.6c0.7-0.1,1.2-0.1,1.6-0.1C213.4,97.5,213.6,97.5,213.6,97.5s-0.2,0-0.5,0.1
					c-0.4,0-0.9,0.1-1.6,0.2c-1.4,0.2-3.4,0.4-6.1,0.7c-5.3,0.6-13,1.4-22.6,2.4c-19.3,2-46.3,4.9-77.2,8.2l-0.3,0l0-0.3
					c-0.9-9-1.9-18.4-2.9-28.1l0-0.3l0.3,0l0,0c44.2-4.6,83.5-8.6,108-11.2l0.2,0l0,0.2c0.9,8.9,1.6,15.9,2.1,20.7
					c0.2,2.4,0.4,4.2,0.5,5.5c0.1,0.6,0.1,1.1,0.1,1.4C213.6,97.4,213.6,97.5,213.6,97.5z"/>
			</g>
		</g>
		<text transform="matrix(0.9947 -0.1027 0.1027 0.9947 111.9828 100.3295)" class="st5 st10 st11">PRACTICE</text>
	</g>
</g>
<g id="Character">
	<g>
		<g>
			<g>
				<g>
					<g>
						<g>
							<g>
								<g>
									<g>
										<g>
											<g>
												<g>
													<g>
														<g>
															<g>
																<path class="st5" d="M334.6,145.8c0.1-0.6,0.5-1.1,0.9-1.5c1.1-0.9,2.6-0.9,4-1c0.8-1.7,1.4-3.4,1.6-5.3
																	c-0.7,0-1.3-0.2-1.9-0.5c-0.1,0-0.2,0-0.3-0.1c-1.3-0.6-1.5-2.6-0.6-3.8c0.8-1.2,2.3-1.8,3.7-2.3
																	c-1,0.1-1.9,0.7-2.8,1c-1,0.3-2.3,0-2.4-1c0-0.3,0.1-0.6,0.2-0.9c0.2-0.6,0.4-1.2,0.6-1.8c0.2-0.5,0.3-1,0.8-1.2
																	c0.3-0.2,0.7-0.2,1-0.2c1.1-0.3,1.7-1.7,2.8-2c0.8-0.2,1.7,0.2,2.5,0.4c0.8,0.2,1.9,0,2.2-0.8
																	c-1.1-0.7-2.2-1.3-2.9-2.4c-0.7-1.1-0.7-2.6,0.3-3.5c0.8-0.6,1.8-0.6,2.8-0.6c1.1,0,2.5,0.3,2.8,1.4
																	c1.5-0.5,3.3,0.7,3.5,2.2c0.9-0.1,1.9-0.2,2.8-0.3c-0.8-0.9-1.9-1.4-2.6-2.3c-0.7-0.9-0.6-2.6,0.6-2.9
																	c0.4-0.1,0.9,0,1.3-0.1c0.3-0.1,0.5-0.4,0.8-0.4c0.2,0,0.4,0.1,0.6,0.2c2,1.3,4,2.6,6,3.9c-0.5-1.3-1.1-2.5-1.6-3.8
																	c-0.5-1.2-0.9-2.8,0.2-3.5c1-0.7,2.5,0.3,2.7,1.5c1.1-0.3,2.4,0.6,2.4,1.8c0.8-0.3,1.8-0.1,2.3,0.6
																	c0.5,0.7,0.5,1.7,0,2.4c1,0,2,0.3,2.8,0.9c0-1.3,1.9-2.1,2.8-1.2c0-0.6,0.1-1.2,0.4-1.7c0.4-0.5,1.2-0.6,1.5-0.2
																	c-0.2-0.8,0.2-1.7,0.9-2.1c0.7-0.4,1.7-0.4,2.3,0.2c0.3-0.4,0.7-0.8,1-1.2c1,0,2.1,0.4,2.5,1.3
																	c0.4,0.9-0.3,2.3-1.3,2.2c0.7,0,0.5,1.1,0.1,1.7c-0.6,0.8-1.2,1.6-1.7,2.4c0.7-0.7,1.9-0.8,2.7-0.2
																	c0.6-0.7,1.9-0.7,2.5,0c0.5-1,2.4-0.7,2.5,0.4c0.2-0.5,0.8-0.5,1.3-0.4c0.7,0.1,1.5,0.2,2,0.7
																	c0.5,0.5,0.5,1.5-0.2,1.8c0.6-0.3,1.4,0.3,1.4,1c0,0.7-0.5,1.3-1,1.8c-0.5,0.5-1.1,0.9-1.4,1.5
																	c0.5-0.4,1.3-0.4,2-0.4c1.2,0,2.5,0.1,3.6,0.7c0.2-0.5,0.9-0.5,1.4-0.4c1.6,0.3,3.2,1.2,4.3,2.3
																	c0.6,0.6,1,1.4,0.7,2.1c-0.2,0.3-0.5,0.5-0.8,0.7c-1.3,0.8-2.6,1.6-3.8,2.4c2.1,0.6,4,2,5.3,3.7
																	c0.8,0.4,1.7,0.5,2.4,1c0.7,0.6,0.6,2-0.2,2c0.6,0.4,0.8,1.3,0.5,1.9c-0.1,0.3-0.3,0.5-0.6,0.7
																	c-0.1,0.2-0.3,0.3-0.4,0.5c-0.3,0.3-0.7,0.4-1,0.5c-0.4,0.5-1.1,0.8-1.7,0.8c0.7,0.6,1.4,1.3,1.8,2.2
																	c0.6,1.1,0.7,2.5,0,3.5c0,0.1-0.1,0.1-0.1,0.1c-0.1,0.4-0.4,0.8-0.7,1.1c0.1,0.3,0.2,0.6,0.1,0.9
																	c1.3,0.5,2.2,1.7,2.4,3c0.2,1.3-0.4,2.8-1.6,3.5c-0.9,0.6-2.5,0.5-2.6-0.6c-0.4,0.9-1.3,1.5-2.2,1.6
																	c0.8,1.4,0,3.4-1.5,3.9c1.6,1.3,1,4.3-0.9,4.9c0.4,1.1-0.3,2.5-1.4,2.9c-1.1,0.4-2.5-0.3-2.9-1.4
																	c-0.4,0.8-0.9,1.7-1.7,2.2c-0.8,0.5-2.1,0.3-2.4-0.6c-0.6,1.8-3.1,2.6-4.7,1.5c0,1-0.8,2-1.9,2.1
																	c-1,0.1-2.1-0.7-2.2-1.7c-1.8,0-3.5,0-5.3-0.1c-1.2,0-2.3,0-3.5-0.3c-1.5-0.3-2.9-0.9-4-1.9
																	c-0.4-0.3-0.8-0.6-1.2-0.7c-0.5-0.1-1.1,0.1-1.6,0.2c-2.8,0.8-6,0.1-8.1-1.9c-0.3-0.3-0.7-0.7-1.1-0.9
																	c-0.5-0.2-1-0.2-1.6-0.2c-1.3,0-2.6-0.2-3.8-0.6c-1.1-0.3-2.2-0.8-2.7-1.8c-0.5-1,0.1-2.5,1.2-2.5
																	c0.1-0.7-0.1-1.5-0.6-2c-0.5-0.5-1.4-0.6-2-0.1c-0.5,0.5-0.2,1.6,0.5,1.7c-1.2,0.8-3.1-0.3-3.1-1.8
																	c0-1.5,1.4-2.7,2.9-2.7c-0.3-1-0.3-2.1-0.1-3.2c-0.7,0.9-2.3,1.1-3.2,0.4c-0.6,0.9-1.5,1.7-2.6,1.9
																	c-1.1,0.2-2.3-0.4-2.7-1.5c-0.3-1.1,0.6-2.4,1.7-2.3c-0.8-1.2,0.4-3.2,1.9-3c-0.2-1.4,0.6-2.9,2-3.5
																	c-0.9,0.5-2.2,0-2.4-0.9c-0.7,1.1-2.3,0.8-3.4,0.2C335.1,147.8,334.3,147.1,334.6,145.8z"/>
															</g>
														</g>
														<g>
															<g>
																<g>
																	<path class="st9" d="M334.6,145.8c0,0,0,0.1-0.1,0.4c0,0.3,0,0.8,0.4,1.2c0.4,0.5,1,0.9,1.8,1.2
																		c0.4,0.1,0.9,0.3,1.4,0.2c0.5,0,1.1-0.2,1.4-0.7l-0.1,0c0.2,0.9,1.5,1.6,2.5,1l-0.1-0.1c-1.2,0.4-2.3,1.9-2,3.5
																		l0.1-0.1c-0.7-0.1-1.4,0.4-1.8,1c-0.4,0.6-0.6,1.5-0.1,2.2l0.1-0.2c-0.8-0.1-1.5,0.6-1.8,1.3
																		c-0.3,0.8,0.2,1.7,0.9,2.2c0.7,0.5,1.7,0.6,2.6,0.2c0.8-0.3,1.6-1,2.1-1.8l-0.2,0c0.9,0.7,2.5,0.7,3.4-0.4
																		l-0.2-0.1c-0.2,1-0.2,2.1,0.1,3.3l0.1-0.2c-0.7,0-1.4,0.3-2,0.7c-0.6,0.5-1,1.1-1,1.9c-0.1,0.8,0.4,1.5,1,2
																		c0.6,0.4,1.6,0.6,2.3,0.1l0.3-0.2l-0.4,0c-0.4,0-0.7-0.6-0.6-1c0-0.5,0.5-0.8,1-0.7c0.5,0,1,0.3,1.2,0.7
																		c0.3,0.4,0.3,1,0.3,1.5l0.2-0.1c-0.4,0-0.8,0.2-1.1,0.5c-0.3,0.3-0.4,0.7-0.5,1c-0.1,0.4,0,0.8,0.1,1.2
																		c0.2,0.4,0.4,0.7,0.7,0.9c0.6,0.5,1.3,0.8,2,1c0.7,0.2,1.5,0.4,2.2,0.5c1.5,0.3,3.2-0.3,4.2,1.1
																		c1.2,1.1,2.7,1.9,4.3,2.2c0.8,0.2,1.6,0.2,2.5,0.1c0.8-0.1,1.7-0.3,2.4-0.5c0.4-0.1,0.8-0.1,1.1,0.1
																		c0.3,0.2,0.6,0.5,1,0.7c0.7,0.5,1.4,0.9,2.3,1.3c1.6,0.7,3.4,0.7,5.2,0.7c1.7,0,3.5,0,5.3,0.1l-0.2-0.2
																		c0.2,1,1.2,1.9,2.3,1.9c1.2,0,2.2-1.1,2.2-2.3l-0.3,0.2c1.5,1.1,4.3,0.5,5-1.6l-0.4,0c0.2,0.5,0.6,0.8,1.1,0.9
																		c0.5,0.1,1,0.1,1.5-0.2c0.9-0.5,1.4-1.4,1.9-2.3l-0.4,0c0.4,1.2,1.8,2,3.1,1.6c1.3-0.4,2.1-1.9,1.7-3.2l-0.1,0.3
																		c1-0.3,1.7-1.3,1.9-2.3c0.2-1,0-2.3-0.9-3l-0.1,0.4c1.5-0.5,2.5-2.6,1.6-4.2l-0.2,0.3c0.9-0.1,1.9-0.8,2.4-1.7
																		l-0.4-0.1c0,0.3,0.1,0.5,0.3,0.7c0.2,0.2,0.4,0.3,0.7,0.4c0.5,0.1,1,0.1,1.5-0.1c0.9-0.4,1.6-1.3,1.9-2.2
																		c0.3-0.9,0.3-2-0.2-3c-0.4-0.9-1.2-1.7-2.2-2l0.1,0.3c0.1-0.3,0-0.7-0.2-1.1l-0.1,0.3c0.4-0.2,0.7-0.7,0.8-1.2
																		l-0.1,0.1c0.8-0.9,0.8-2.2,0.4-3.3c-0.4-1.1-1.3-2-2.1-2.8l-0.2,0.4c0.7,0.1,1.5-0.3,1.9-0.9l-0.1,0.1
																		c0.6-0.2,1.2-0.5,1.6-1.1l-0.1,0.1c0.4-0.3,0.8-0.8,0.8-1.4c0-0.6-0.2-1.2-0.7-1.5l-0.1,0.4c0.3,0,0.6-0.1,0.7-0.4
																		c0.2-0.2,0.2-0.5,0.2-0.7c0-0.5-0.1-1-0.6-1.3c-0.8-0.6-1.8-0.6-2.5-1.1l0.1,0.1c-1.3-1.7-3.2-3.1-5.4-3.8l0.1,0.4
																		c0.6-0.3,1.2-0.7,1.8-1.1l1.3-0.8c0.4-0.3,0.9-0.5,1.3-0.9c0.2-0.2,0.4-0.5,0.4-0.8c0-0.3,0-0.6-0.1-0.9
																		c-0.2-0.5-0.6-1-1-1.3c-0.8-0.7-1.7-1.3-2.7-1.7c-0.5-0.2-1-0.3-1.5-0.5c-0.3,0-0.6-0.1-0.9,0
																		c-0.3,0-0.6,0.2-0.8,0.6l0.3-0.1c-0.9-0.5-1.9-0.7-2.9-0.7c-0.5,0-1-0.1-1.5,0c-0.5,0-1.1,0.1-1.5,0.5l0.3,0.3
																		c0.4-0.9,1.5-1.3,2.1-2.3c0.3-0.5,0.5-1.1,0.2-1.7c-0.1-0.3-0.4-0.5-0.6-0.6c-0.3-0.1-0.7-0.2-1,0l0.2,0.4
																		c0.3-0.1,0.5-0.4,0.6-0.7c0.1-0.3,0.1-0.6,0-0.8c-0.1-0.3-0.2-0.5-0.4-0.7c-0.2-0.2-0.4-0.3-0.7-0.4
																		c-0.5-0.2-1-0.2-1.5-0.3c-0.3,0-0.5,0-0.8,0c-0.3,0.1-0.6,0.2-0.7,0.6l0.4,0.1c-0.1-0.7-0.7-1.1-1.3-1.2
																		c-0.6-0.1-1.3,0.1-1.6,0.7l0.4,0c-0.7-0.8-2.1-0.8-2.8,0l0.3,0c-0.9-0.7-2.2-0.5-3,0.3l0.3,0.3
																		c0.5-0.7,1-1.4,1.5-2c0.2-0.3,0.5-0.7,0.6-1.2c0-0.2,0.1-0.5,0-0.7c0-0.1-0.1-0.3-0.2-0.4
																		c-0.1-0.1-0.3-0.1-0.4-0.1l0,0.4c0.6,0.1,1.2-0.4,1.4-0.9c0.3-0.5,0.3-1.1,0.1-1.6c-0.5-1-1.7-1.4-2.7-1.4l-0.1,0
																		l-0.1,0.1c-0.3,0.4-0.7,0.8-1,1.2l0.3,0c-0.7-0.6-1.8-0.7-2.6-0.2c-0.8,0.5-1.2,1.5-1,2.4l0.4-0.2
																		c-0.3-0.3-0.7-0.4-1-0.3c-0.3,0.1-0.7,0.2-0.9,0.5c-0.4,0.6-0.4,1.2-0.5,1.8l0.4-0.1c-0.5-0.5-1.4-0.5-2-0.3
																		c-0.6,0.3-1.2,0.9-1.1,1.6l0.3-0.2c-0.9-0.6-1.9-0.9-3-0.9l0.2,0.3c0.6-0.8,0.6-1.9,0-2.7c-0.6-0.7-1.7-1-2.5-0.7
																		l0.3,0.2c0-1.3-1.4-2.3-2.6-2l0.3,0.2c-0.1-0.5-0.4-1-0.8-1.4c-0.4-0.3-0.9-0.6-1.5-0.5c-0.6,0.1-1.1,0.4-1.3,0.9
																		c-0.2,0.5-0.2,1-0.1,1.5c0.2,1,0.6,1.8,1,2.7c0.4,0.9,0.7,1.7,1.1,2.6l0.3-0.2c-1.3-0.8-2.5-1.6-3.7-2.4
																		c-0.6-0.4-1.2-0.8-1.8-1.2c-0.3-0.2-0.5-0.4-1-0.6c-0.2-0.1-0.5,0-0.6,0.1c-0.2,0.1-0.3,0.2-0.4,0.3
																		c-0.3,0.1-0.6,0.1-1,0.1c-0.4,0-0.8,0.2-1,0.5c-0.5,0.7-0.5,1.5-0.2,2.2c0.3,0.7,0.8,1.2,1.4,1.6
																		c0.5,0.4,1.1,0.8,1.5,1.3l0.1-0.3c-1,0.1-1.9,0.2-2.8,0.3l0.2,0.2c-0.3-1.8-2.2-2.8-3.7-2.4l0.2,0.1
																		c-0.2-0.7-0.9-1.1-1.4-1.3c-0.6-0.2-1.2-0.2-1.8-0.2c-0.6,0-1.2,0-1.8,0.2c-0.6,0.2-1.1,0.6-1.4,1.2
																		c-0.5,1.1-0.1,2.5,0.6,3.3c0.7,0.9,1.7,1.5,2.6,2l-0.1-0.2c-0.1,0.4-0.5,0.7-1,0.7c-0.4,0.1-0.9,0-1.3-0.1
																		c-0.4-0.1-0.9-0.3-1.4-0.3c-0.5-0.1-1,0-1.4,0.3c-0.8,0.5-1.3,1.3-2,1.7c-0.4,0.2-0.8,0.1-1.2,0.3
																		c-0.5,0.2-0.7,0.6-0.8,1c-0.3,0.8-0.5,1.6-0.7,2.3c-0.1,0.4-0.2,0.9,0.1,1.2c0.2,0.4,0.6,0.6,1,0.7
																		c0.4,0.1,0.8,0.1,1.2,0c0.4-0.1,0.7-0.2,1.1-0.4c0.7-0.3,1.3-0.6,2-0.7l0-0.2c-0.8,0.3-1.6,0.7-2.3,1.1
																		c-0.7,0.5-1.3,1-1.6,1.7c-0.3,0.7-0.4,1.5-0.2,2.2c0.2,0.7,0.7,1.3,1.4,1.4l0,0c0.8,0.5,1.4,0.6,1.9,0.5L341,138
																		c-0.3,2.4-1,4-1.6,5.3l0,0c-1,0-1.9,0.1-2.7,0.3c-0.7,0.2-1.3,0.6-1.6,0.9c-0.3,0.4-0.5,0.7-0.6,0.9
																		C334.6,145.7,334.6,145.8,334.6,145.8c0,0,0-0.5,0.7-1.2c0.3-0.3,0.9-0.7,1.6-0.9c0.7-0.2,1.6-0.3,2.6-0.3l0,0l0,0
																		c0.6-1.3,1.3-2.8,1.7-5.3l0-0.1l-0.1,0c-0.5,0-1.1-0.1-1.8-0.5l0,0l0,0c-0.6-0.1-1.1-0.6-1.3-1.3
																		c-0.2-0.6-0.1-1.4,0.2-2c0.3-0.7,0.9-1.2,1.6-1.6c0.7-0.4,1.5-0.8,2.3-1.1l0.7-0.3l-0.7,0c-0.7,0-1.4,0.4-2,0.7
																		c-0.3,0.1-0.7,0.3-1,0.4c-0.3,0.1-0.7,0.1-1.1,0c-0.3-0.1-0.7-0.3-0.9-0.6c-0.2-0.3-0.2-0.7-0.1-1
																		c0.2-0.8,0.5-1.5,0.7-2.3c0.1-0.4,0.3-0.7,0.7-0.9c0.3-0.1,0.8-0.1,1.2-0.3c0.8-0.4,1.3-1.2,2.1-1.7
																		c0.7-0.5,1.7-0.2,2.6,0.1c0.5,0.1,1,0.2,1.5,0.1c0.5-0.1,1-0.4,1.2-0.9l0-0.1l-0.1-0.1c-0.9-0.6-1.8-1.1-2.5-2
																		c-0.7-0.8-1-2-0.5-3c0.2-0.5,0.6-0.9,1.2-1c0.5-0.2,1.1-0.2,1.7-0.2c0.6,0,1.2,0.1,1.7,0.2c0.6,0.2,1.1,0.5,1.2,1
																		l0,0.2l0.2-0.1c1.3-0.4,3,0.6,3.3,2.1l0,0.2l0.2,0c0.9-0.1,1.8-0.2,2.8-0.3l0.4,0l-0.2-0.3c-0.5-0.5-1-0.9-1.6-1.3
																		c-0.5-0.4-1-0.9-1.3-1.4c-0.2-0.6-0.2-1.3,0.2-1.8c0.2-0.2,0.5-0.4,0.8-0.4c0.3,0,0.7,0.1,1.1-0.1
																		c0.4-0.2,0.6-0.4,0.8-0.3c0.3,0.1,0.6,0.3,0.9,0.5c0.6,0.4,1.2,0.8,1.8,1.2c1.2,0.8,2.4,1.6,3.7,2.4l0.5,0.4
																		l-0.3-0.6c-0.4-0.8-0.7-1.7-1.1-2.6c-0.4-0.9-0.8-1.7-0.9-2.6c-0.1-0.4-0.1-0.9,0.1-1.3c0.2-0.4,0.5-0.7,0.9-0.7
																		c0.8-0.1,1.7,0.7,1.8,1.6l0,0.2l0.2-0.1c0.9-0.3,2.1,0.6,2.1,1.6l0,0.3l0.3-0.1c0.7-0.3,1.6,0,2,0.5
																		c0.5,0.6,0.5,1.5,0,2.1l-0.2,0.3l0.4,0c0.9,0,1.9,0.3,2.7,0.8l0.3,0.2l0-0.4c0-1.1,1.6-1.8,2.4-1l0.3,0.3l0-0.5
																		c0-0.6,0.1-1.2,0.4-1.6c0.3-0.4,1-0.5,1.2-0.2l0.6,0.8l-0.2-1c-0.2-0.7,0.2-1.5,0.8-1.9c0.6-0.4,1.5-0.3,2.1,0.2
																		l0.2,0.1l0.1-0.2c0.3-0.4,0.7-0.8,1-1.2l-0.2,0.1c0.9,0,1.9,0.3,2.3,1.2c0.4,0.7-0.2,2-1.1,1.9l0,0.4
																		c0.1,0,0.2,0,0.2,0.2c0,0.1,0,0.3,0,0.5c-0.1,0.4-0.3,0.7-0.5,1c-0.5,0.7-1,1.4-1.5,2l0.3,0.3
																		c0.6-0.6,1.8-0.8,2.5-0.2l0.2,0.1l0.1-0.2c0.5-0.6,1.6-0.6,2.1,0l0.2,0.3l0.1-0.3c0.4-0.8,2-0.5,2.1,0.3l0.1,1.1
																		l0.3-1.1c0.1-0.3,0.6-0.3,1-0.3c0.5,0,0.9,0.1,1.3,0.3c0.4,0.2,0.7,0.4,0.8,0.8c0.1,0.4,0,0.8-0.3,0.9l0.2,0.4
																		c0.3-0.2,0.8,0.1,1,0.5c0.2,0.4,0.1,0.8-0.2,1.2c-0.5,0.8-1.6,1.3-2.1,2.3l-0.5,1l0.9-0.7c0.7-0.5,1.7-0.4,2.7-0.3
																		c1,0.1,1.9,0.2,2.7,0.7l0.2,0.1l0.1-0.2c0.1-0.3,0.7-0.4,1.1-0.3c0.5,0.1,1,0.2,1.4,0.4c0.9,0.4,1.8,0.9,2.5,1.6
																		c0.4,0.3,0.7,0.7,0.9,1.1c0.2,0.4,0.2,0.9-0.2,1.2c-0.3,0.3-0.8,0.6-1.3,0.8l-1.3,0.8c-0.6,0.4-1.2,0.7-1.8,1.1
																		l-0.4,0.3l0.5,0.1c2.1,0.6,3.9,2,5.1,3.6l0,0l0,0c0.8,0.5,1.8,0.5,2.4,1c0.3,0.2,0.4,0.6,0.4,1
																		c0,0.4-0.2,0.7-0.5,0.6l-0.7,0l0.6,0.4c0.3,0.3,0.5,0.7,0.5,1.2c0,0.4-0.3,0.8-0.6,1l0,0l0,0
																		c-0.3,0.5-0.8,0.8-1.3,0.9l-0.1,0l0,0.1c-0.4,0.5-1,0.8-1.5,0.7l-0.7-0.1l0.5,0.5c0.9,0.8,1.6,1.6,2,2.6
																		c0.4,1,0.3,2.2-0.3,2.9l0,0l0,0.1c-0.1,0.4-0.3,0.7-0.6,0.9l-0.2,0.1l0.1,0.2c0.1,0.3,0.2,0.5,0.1,0.8l0,0.2
																		l0.2,0.1c0.9,0.3,1.6,1,1.9,1.8c0.4,0.8,0.4,1.8,0.1,2.6c-0.3,0.8-0.9,1.6-1.6,1.9c-0.4,0.1-0.8,0.2-1.2,0.1
																		c-0.4-0.1-0.7-0.3-0.7-0.7l-0.1-0.9l-0.4,0.8c-0.4,0.8-1.2,1.4-2,1.5l-0.3,0l0.2,0.3c0.7,1.3-0.1,3.2-1.4,3.6
																		l-0.4,0.1l0.3,0.3c0.7,0.6,1,1.7,0.8,2.6c-0.2,0.9-0.8,1.7-1.6,2l-0.2,0.1l0.1,0.2c0.4,1.1-0.3,2.4-1.4,2.7
																		c-1.1,0.3-2.3-0.4-2.6-1.3l-0.2-0.5l-0.2,0.4c-0.4,0.8-0.9,1.7-1.7,2.1c-0.7,0.4-1.8,0.2-2-0.5l-0.2-0.6l-0.2,0.6
																		c-0.3,0.9-1.1,1.5-1.9,1.7c-0.8,0.3-1.8,0.1-2.4-0.3l-0.3-0.2l0,0.4c0,1-0.8,1.9-1.8,1.9c-0.9,0-1.8-0.7-1.9-1.6
																		l0-0.2l-0.2,0c-1.8,0-3.6,0-5.3,0c-1.7,0-3.5-0.1-5-0.7c-0.8-0.3-1.5-0.7-2.2-1.2c-0.3-0.2-0.6-0.5-1-0.8
																		c-0.4-0.2-0.9-0.3-1.3-0.2c-0.8,0.2-1.6,0.5-2.4,0.5c-0.8,0.1-1.6,0-2.4-0.1c-1.5-0.3-3-1-4.1-2.1
																		c-0.3-0.3-0.6-0.6-0.9-0.8c-0.4-0.2-0.8-0.3-1.2-0.3c-0.8,0-1.5,0-2.3-0.1c-0.7-0.1-1.5-0.2-2.2-0.4
																		c-0.7-0.2-1.4-0.5-1.9-0.9c-0.5-0.4-0.9-1.1-0.7-1.8c0.1-0.6,0.6-1.3,1.2-1.3l0.1,0l0-0.1c0.1-0.6,0-1.2-0.3-1.7
																		c-0.3-0.5-0.9-0.9-1.5-0.9c-0.6,0-1.2,0.4-1.3,1c-0.1,0.6,0.2,1.2,0.9,1.3l-0.1-0.3c-0.6,0.4-1.4,0.3-1.9-0.1
																		c-0.6-0.4-1-1-0.9-1.7c0.1-1.4,1.5-2.4,2.7-2.4l0.2,0l0-0.2c-0.3-1.1-0.3-2.2-0.1-3.1l0.1-0.6l-0.4,0.5
																		c-0.7,0.9-2.2,1-3,0.3l-0.1-0.1l-0.1,0.1c-0.5,0.7-1.2,1.4-1.9,1.7c-0.8,0.3-1.7,0.2-2.3-0.2
																		c-0.7-0.4-1.1-1.2-0.8-1.9c0.2-0.7,0.9-1.3,1.5-1.2l0.2,0l-0.1-0.2c-0.8-1.3,0.5-3,1.8-2.9l0.1,0l0-0.1
																		c-0.2-1.5,0.8-2.9,1.9-3.4l-0.1-0.1c-0.9,0.5-2.1-0.1-2.3-0.9l0-0.1l-0.1,0.1c-0.3,0.5-0.8,0.7-1.3,0.7
																		c-0.5,0-0.9-0.1-1.3-0.2c-0.8-0.3-1.4-0.7-1.7-1.2c-0.4-0.4-0.4-0.9-0.4-1.2C334.5,145.9,334.6,145.8,334.6,145.8z
																		"/>
																</g>
															</g>
														</g>
													</g>
													<g>
														<g>
															<g>
																<g>
																	<g>
																		<path class="st12" d="M383,150.1c0.6-9.4-6.8-17.5-16.5-17.8c-9.2-0.3-16.8,6.9-17.6,15.9
																			c-0.7,7.9-1.2,15.8-1,18.6c0.7,8.6,6,11.6,8.1,12.5c0.5,0.2,1.8,0.4,2.3,0.4l0,0c0,0,0.1,0,0.1,0.1l-1.3,10
																			c-0.5,6.5-1.9,28.7,4.7,29.2c6.7,0.5,17-21.4,17.6-28L383,150.1z"/>
																	</g>
																</g>
															</g>
														</g>
													</g>
													<g>
														<g>
															<g>
																<g>
																	<g>
																		<g>
																			<g>
																				<g>
																					<g>
																						<path class="st5" d="M351.5,154.5c-0.1,0.7,0.5,1.4,1.2,1.5c0.8,0.1,1.4-0.4,1.5-1.1c0.1-0.7-0.5-1.4-1.2-1.5
																							C352.2,153.2,351.6,153.7,351.5,154.5z"/>
																					</g>
																				</g>
																			</g>
																		</g>
																	</g>
																</g>
															</g>
														</g>
														<g>
															<g>
																<g>
																	<g>
																		<g>
																			<g>
																				<g>
																					<g>
																						<g>
																							<path class="st5" d="M351,150.4c0.2,0.2,1.3-0.5,2.8-0.4c1.5,0.1,2.5,0.9,2.7,0.8c0.1-0.1-0.1-0.4-0.5-0.8
																								c-0.4-0.4-1.2-0.8-2.1-0.8c-0.9-0.1-1.7,0.2-2.2,0.5C351.1,150,351,150.4,351,150.4z"/>
																						</g>
																					</g>
																				</g>
																			</g>
																		</g>
																	</g>
																</g>
															</g>
														</g>
													</g>
													<g>
														<g>
															<g>
																<g>
																	<g>
																		<g>
																			<g>
																				<g>
																					<g>
																						<path class="st5" d="M365.4,155.6c-0.1,0.7,0.5,1.4,1.2,1.5c0.8,0.1,1.4-0.4,1.5-1.1c0.1-0.7-0.5-1.4-1.2-1.5
																							C366.2,154.4,365.5,154.9,365.4,155.6z"/>
																					</g>
																				</g>
																			</g>
																		</g>
																	</g>
																</g>
															</g>
														</g>
														<g>
															<g>
																<g>
																	<g>
																		<g>
																			<g>
																				<g>
																					<g>
																						<g>
																							<path class="st5" d="M365.7,151.9c0.2,0.2,1.3-0.5,2.8-0.4c1.5,0.1,2.5,0.9,2.7,0.8c0.1-0.1-0.1-0.4-0.5-0.8
																								c-0.4-0.4-1.2-0.8-2.1-0.8c-0.9-0.1-1.7,0.2-2.2,0.5C365.8,151.5,365.6,151.8,365.7,151.9z"/>
																						</g>
																					</g>
																				</g>
																			</g>
																		</g>
																	</g>
																</g>
															</g>
														</g>
													</g>
													<g>
														<g>
															<g>
																<g>
																	<g>
																		<g>
																			<g>
																				<g>
																					<g>
																						<path class="st5" d="M359.4,162.3c0-0.1-0.9-0.3-2.4-0.6c-0.4-0.1-0.7-0.2-0.8-0.4c-0.1-0.3,0.1-0.7,0.3-1.1
																							c0.4-0.9,0.9-1.8,1.4-2.8c1.9-3.9,3.3-7.2,3.2-7.3c-0.2-0.1-1.8,3.1-3.7,7c-0.5,1-0.9,1.9-1.3,2.8
																							c-0.2,0.4-0.5,0.9-0.3,1.5c0.1,0.3,0.3,0.5,0.6,0.6c0.2,0.1,0.5,0.1,0.6,0.1
																							C358.4,162.3,359.4,162.4,359.4,162.3z"/>
																					</g>
																				</g>
																			</g>
																		</g>
																	</g>
																</g>
															</g>
														</g>
													</g>
													<g>
														<g>
															<g>
																<g>
																	<g>
																		<g>
																			<g>
																				<g>
																					<path class="st13" d="M358.4,179.8c0,0,5.7,0.9,13.3-2.8c-0.5,0.2-2.6,8.7-13.7,5.5L358.4,179.8z"/>
																				</g>
																			</g>
																		</g>
																	</g>
																</g>
															</g>
														</g>
													</g>
													<g>
														<g>
															<g>
																<g>
																	<g>
																		<g>
																			<g>
																				<g>
																					<path class="st13" d="M359.7,165.9c0.6-0.7,1.6-1,2.5-0.8c0.6,0.1,1.3,0.5,1.6,1c0.4,0.6,0.4,1.3,0,1.8
																						c-0.5,0.5-1.3,0.6-2,0.3c-0.7-0.3-1.3-0.8-1.8-1.3c-0.2-0.1-0.3-0.3-0.4-0.5
																						C359.5,166.3,359.5,166.1,359.7,165.9"/>
																				</g>
																			</g>
																		</g>
																	</g>
																</g>
															</g>
														</g>
													</g>
													<g>
														<g>
															<g>
																<g>
																	<g>
																		<g>
																			<g>
																				<g>
																					<g>
																						<path class="st5" d="M363.7,163.7c-0.2,0-0.4,1.6-1.9,2.6c-1.5,1-3.2,0.7-3.2,0.9c0,0.1,0.4,0.3,1.1,0.4
																							c0.7,0.1,1.8-0.1,2.7-0.7c0.9-0.6,1.3-1.5,1.5-2.2C364,164.1,363.8,163.7,363.7,163.7z"/>
																					</g>
																				</g>
																			</g>
																		</g>
																	</g>
																</g>
															</g>
														</g>
													</g>
												</g>
											</g>
										</g>
										<g>
											<g>
												<g>
													<g>
														<g>
															<g>
																<g>
																	<g>
																		<path class="st5" d="M365.8,147.1c0.1,0.4,1.6,0.3,3.4,0.7c1.7,0.3,3.1,0.9,3.4,0.6c0.1-0.2-0.1-0.6-0.6-1
																			c-0.5-0.4-1.4-0.9-2.5-1.1c-1-0.2-2-0.1-2.7,0.1C366.1,146.6,365.7,146.9,365.8,147.1z"/>
																	</g>
																</g>
															</g>
														</g>
													</g>
												</g>
											</g>
										</g>
										<g>
											<g>
												<g>
													<g>
														<g>
															<g>
																<g>
																	<g>
																		<path class="st5" d="M351.8,146.6c0.2,0.4,1.3,0.1,2.5,0.2c1.2,0,2.3,0.4,2.5,0.1c0.1-0.2,0-0.5-0.5-0.9
																			c-0.4-0.3-1.2-0.7-2-0.7c-0.9,0-1.6,0.2-2.1,0.5C351.9,146.1,351.7,146.4,351.8,146.6z"/>
																	</g>
																</g>
															</g>
														</g>
													</g>
												</g>
											</g>
										</g>
									</g>
								</g>
							</g>
						</g>
					</g>
				</g>
				<g>
					<g>
						<g>
							<path class="st5" d="M346.6,137.9c0.1-0.5,0.1-1,0.2-1.4c0.2-0.7,0.8-1.3,1.3-1.8c1.8-1.8,3.7-3.6,6-4.2
								c1.4-0.4,2.8-0.2,4.2-0.6c0.9-0.2,1.7-0.6,2.5-0.9c3.5-1.3,7.2-1.2,10.8-0.6c2,0.3,4,0.8,5.8,1.9c2,1.1,3.6,2.9,5.2,4.7
								c2.3,2.7,4.5,5.8,5.8,9.3c1,2.7,1.5,5.9,0.8,8.8c-0.7,2.9-2.8,5.6-5.3,6c-0.3-0.4-0.6-0.8-0.9-1.2l-1.4-1.8
								c0.2,0.7,0,0.7-0.6,1c-0.6,0.3-1.4,0-1.7-0.6c-0.5,0.6-1.5-0.1-1.3-0.9c-0.6,0.3-1.3-0.6-1-1.3c-0.7,0.2-1-0.9-1.3-1.6
								c-0.2-0.4-0.4-0.8-0.6-1.1c-0.6-1.2-0.9-2.6-0.8-4.1c-0.8-1-0.9-2.6-0.9-4c0-0.9-0.1-1.8-0.1-2.6c-0.1-0.2-0.3-0.4-0.4-0.6
								c0,0.6-0.5,1.1-1.1,1.3c-0.5,0.1-1.1,0-1.6-0.2c-0.5-0.1-1-0.3-1.5-0.4c-0.3,0.1-0.7,0.1-1,0.2c0.2,0.8-0.1,1.7-0.5,2.5
								c-0.2,0.5-0.5,1.1-1,1.3c-0.5,0.2-1.2-0.3-1-0.9c-0.4,0.4-1,0.2-1.3-0.3c-0.3-0.5-0.3-1.1-0.2-1.6c0.2-1.4,0.7-2.7,1.6-3.7
								c-1,0.8-1.9,1.5-2.9,2.3c-0.2,0.2-0.4,0.3-0.7,0.4c0,0.5-0.4,0.8-0.8,0.7c-0.4-0.1-0.7-0.4-0.9-0.8c-0.6-0.7-1.2-2-0.6-2.7
								c-0.3-0.1-0.4-0.6-0.2-0.9c-1.1,0.7-2.2,1.4-3.3,2.1c0.3-0.2,0.6,0.4,0.5,0.7c-0.1,0.4-0.4,0.6-0.7,0.9
								c0.2,0.4,0.3,1,0.2,1.5c0.6-0.5,1.4,0.5,1.1,1.3c-0.2,0.8-1,1.1-1.7,1.1c-0.6,0-1.3-0.3-1.3-1c-0.7,0.1-1.3-0.9-1-1.6
								c-0.5,0.3-0.9-0.6-0.8-1.3c0-1.2,0.3-2.3,0.8-3.4c-0.1,0.1-0.2,0.1-0.3,0.1c0,0-0.1-0.1-0.1-0.1c-0.6,1.3-1.3,2.5-1.9,3.8
								c-0.6,1.1-1.1,2.2-1.2,3.4c-0.1,0.5-0.2,1.2-0.6,1.2c-0.1,0-0.2-0.1-0.3-0.1c-1.2-0.7-2-2-2.5-3.5c-0.2-0.5-0.3-1-0.3-1.5
								C345.9,140,346.4,138.9,346.6,137.9z"/>
						</g>
					</g>
					<g>
						<g>
							<g>
								<g>
									<g>
										<g>
											<g>
												<g>
													<g>
														<g>
															<g>
																<g>
																	<g>
																		<path class="st12" d="M381.4,155.2c0.2-0.1,6-1.4,5.4,4.5c-0.6,5.9-6.3,4.1-6.3,3.9
																			C380.5,163.4,381.4,155.2,381.4,155.2z"/>
																	</g>
																</g>
															</g>
														</g>
													</g>
												</g>
											</g>
										</g>
									</g>
								</g>
							</g>
						</g>
					</g>
					<g>
						<g>
							<g>
								<g>
									<g>
										<g>
											<g>
												<g>
													<g>
														<g>
															<g>
																<g>
																	<g>
																		<g>
																			<path class="st13" d="M382.5,161.5c0,0,0.1,0.1,0.3,0.2c0.2,0.1,0.4,0.2,0.8,0.1c0.6-0.2,1.3-1.1,1.4-2.2
																				c0.1-0.5,0-1-0.1-1.5c-0.1-0.4-0.4-0.8-0.7-0.9c-0.3-0.1-0.5,0.1-0.6,0.2c-0.1,0.2-0.1,0.3-0.1,0.3
																				c0,0-0.1-0.1,0-0.3c0-0.1,0.1-0.2,0.3-0.3c0.2-0.1,0.4-0.1,0.6-0.1c0.4,0.1,0.8,0.5,1,1c0.2,0.5,0.3,1.1,0.2,1.7
																				c-0.1,1.2-0.9,2.2-1.7,2.4c-0.4,0.1-0.8-0.1-0.9-0.2C382.5,161.7,382.5,161.5,382.5,161.5z"/>
																		</g>
																	</g>
																</g>
															</g>
														</g>
													</g>
												</g>
											</g>
										</g>
									</g>
								</g>
							</g>
						</g>
					</g>
					<g>
						<g>
							<g>
								<g>
									<path class="st9" d="M360.1,136.5c0,0-0.3-0.2-0.3-0.8c0-0.3,0.1-0.6,0.3-0.9c0.3-0.2,0.7-0.4,1.1-0.2l0.2,0.1l-0.1-0.2
										c-0.1-0.4,0-1,0.4-1.3c0.4-0.3,1.1-0.2,1.5,0.2l0.2-0.2c0,0-0.1-0.1-0.1-0.2c0-0.2,0-0.4,0.1-0.5c0.1-0.2,0.3-0.2,0.5-0.3
										c0.2,0,0.4,0,0.6,0.1c0.2,0.1,0.4,0.2,0.6,0.2c0.3,0,0.4-0.2,0.6-0.3c0.2-0.1,0.3-0.2,0.5-0.2c0.3-0.1,0.7-0.1,1-0.1
										c0.6,0,1.1,0.3,1.3,0.4c0.3,0.2,0.4,0.3,0.4,0.3c0,0-0.1-0.2-0.4-0.4c-0.3-0.2-0.7-0.5-1.4-0.6c-0.3,0-0.7,0-1,0.1
										c-0.2,0.1-0.4,0.1-0.5,0.3c-0.2,0.1-0.3,0.3-0.5,0.3c-0.1,0-0.3-0.1-0.5-0.2c-0.2-0.1-0.5-0.1-0.7-0.1
										c-0.2,0-0.5,0.1-0.7,0.4c-0.2,0.2-0.3,0.5-0.2,0.8c0,0.1,0.1,0.2,0.1,0.2l0.2-0.2c-0.5-0.5-1.3-0.6-1.8-0.2
										c-0.5,0.4-0.7,1-0.5,1.6l0.2-0.1c-0.5-0.2-1.1,0-1.4,0.3c-0.3,0.3-0.4,0.7-0.3,1c0,0.3,0.2,0.5,0.3,0.6
										C360.1,136.5,360.1,136.5,360.1,136.5z"/>
								</g>
							</g>
						</g>
					</g>
					<g>
						<g>
							<g>
								<g>
									<path class="st9" d="M353.5,137.7c0,0-0.3-0.2-0.4-0.8c-0.1-0.3-0.1-0.6,0.1-1c0.2-0.3,0.6-0.6,1.1-0.7l0.2,0l-0.1-0.2
										c-0.3-0.4-0.5-0.9-0.3-1.5c0.1-0.3,0.3-0.5,0.6-0.5c0.3-0.1,0.6,0,0.8,0.2l0.7,0.9l-0.5-1c-0.2-0.3-0.2-0.8,0-1.1
										c0.2-0.4,0.5-0.6,1-0.7c0.3,0,0.6,0,0.9,0.2l0.3,0.2l-0.1-0.3c-0.1-0.5,0.4-0.9,0.8-1c0.5,0,1,0.2,1.4,0.5l0.2,0.2
										l-0.1-0.3c-0.1-0.3,0.1-0.7,0.4-0.9c0.3-0.2,0.6-0.3,0.9-0.3c0.6-0.1,1.2,0,1.7,0.2c0.9,0.3,1.3,0.7,1.4,0.6
										c0,0-0.1-0.1-0.3-0.3c-0.2-0.1-0.6-0.3-1-0.5c-0.5-0.2-1.1-0.3-1.7-0.2c-0.3,0-0.7,0.1-1.1,0.3c-0.3,0.2-0.6,0.7-0.5,1.1
										l0.2-0.1c-0.4-0.3-0.9-0.6-1.5-0.5c-0.3,0-0.6,0.2-0.8,0.4c-0.2,0.2-0.4,0.6-0.2,0.9l0.2-0.2c-0.3-0.2-0.7-0.3-1-0.2
										c-0.5,0.1-1,0.4-1.2,0.8c-0.2,0.4-0.2,1,0,1.4l0.2-0.1c-0.3-0.3-0.7-0.4-1-0.2c-0.3,0.1-0.6,0.4-0.7,0.7
										c-0.2,0.7,0.1,1.3,0.4,1.7l0.1-0.2c-0.6,0-1,0.4-1.2,0.8c-0.2,0.4-0.2,0.8-0.1,1.1c0.1,0.3,0.2,0.5,0.4,0.6
										C353.4,137.6,353.5,137.7,353.5,137.7z"/>
								</g>
							</g>
						</g>
					</g>
					<g>
						<g>
							<g>
								<g>
									<path class="st9" d="M339.2,137.7c0,0,0-0.4,0.4-0.7c0.2-0.2,0.5-0.3,0.9-0.2c0.4,0,0.8,0.2,1.2,0.4l0.1,0.1l0-0.2
										c0-0.5,0.5-0.9,1-1c0.6-0.1,1.2,0.2,1.8,0.5l0.8,0.4l-0.7-0.6c-0.4-0.3-0.2-1,0.2-1.3c0.4-0.3,1.1-0.4,1.7-0.2l0.1,0
										l0.5,0.1l-0.4-0.3c-0.5-0.4-0.3-1.3,0.2-1.6c0.6-0.3,1.3-0.1,1.7,0.3l0.5,0.5l-0.3-0.6c-0.4-0.8-0.2-1.7,0.2-2.3
										c0.4-0.6,1.1-0.8,1.6-0.9c0.5,0,1,0.1,1.2,0.3c0.3,0.1,0.4,0.3,0.4,0.2c0,0,0,0-0.1-0.1c-0.1-0.1-0.1-0.1-0.3-0.2
										c-0.3-0.2-0.7-0.4-1.3-0.3c-0.6,0-1.3,0.2-1.8,0.9c-0.5,0.6-0.7,1.6-0.3,2.5l0.2-0.1c-0.5-0.4-1.3-0.7-2-0.4
										c-0.3,0.2-0.6,0.5-0.7,0.9c-0.1,0.4,0,0.8,0.4,1.1l0.1-0.2l-0.1,0c-0.6-0.1-1.3-0.1-1.9,0.3c-0.3,0.2-0.4,0.5-0.5,0.8
										c-0.1,0.3,0,0.7,0.3,0.9l0.1-0.2c-0.6-0.3-1.3-0.6-2-0.5c-0.6,0.1-1.2,0.7-1.2,1.3l0.1-0.1c-0.4-0.2-0.9-0.4-1.3-0.4
										c-0.4,0-0.8,0.1-1,0.3c-0.2,0.2-0.3,0.4-0.3,0.5C339.2,137.6,339.2,137.7,339.2,137.7z"/>
								</g>
							</g>
						</g>
					</g>
					<g>
						<g>
							<g>
								<g>
									<path class="st9" d="M347.8,124.9c0,0,0.1,0.1,0.3,0.2c0.2,0.1,0.6,0.1,1,0.1c0.4,0,1,0,1.5,0.3c0.2,0.1,0.4,0.4,0.5,0.7
										c0,0.3-0.1,0.6-0.3,0.7l0.2,0.1c0.1-0.3,0.5-0.5,0.9-0.7c0.4-0.2,0.8-0.4,1.3-0.4c0.5-0.1,0.9,0,1.2,0.3
										c0.3,0.3,0.5,0.7,0.5,1l-0.1,0.3l0.3-0.2c0.6-0.4,1.2-0.6,1.8-0.6c0.6,0,1.1,0.2,1.5,0.3c0.8,0.4,1,0.9,1.1,0.8
										c0,0-0.1-0.1-0.2-0.3c-0.2-0.2-0.4-0.4-0.8-0.6c-0.4-0.2-0.9-0.4-1.5-0.4c-0.6,0-1.3,0.1-1.9,0.6l0.2,0.1
										c0.1-0.5-0.2-1-0.5-1.3c-0.4-0.3-0.9-0.4-1.4-0.4c-0.5,0.1-0.9,0.3-1.4,0.5c-0.2,0.1-0.4,0.2-0.6,0.3
										c-0.2,0.1-0.4,0.3-0.4,0.6l-0.1,0.2l0.2-0.1c0.4-0.2,0.5-0.7,0.5-1c0-0.4-0.3-0.7-0.6-0.8c-0.6-0.3-1.1-0.3-1.6-0.3
										c-0.4,0-0.8,0-1-0.1C347.9,124.9,347.8,124.9,347.8,124.9z"/>
								</g>
							</g>
						</g>
					</g>
					<g>
						<g>
							<g>
								<g>
									<path class="st9" d="M361.3,120.9c0,0,0.3,0,0.7,0.2c0.2,0.1,0.4,0.2,0.6,0.5c0.2,0.2,0.3,0.6,0.3,0.9l0,0.1l0.1,0
										c0.4-0.1,0.8,0.2,0.9,0.6c0.2,0.4,0.1,0.9-0.1,1.5l-0.1,0.5l0.4-0.4c0,0,0,0,0.1-0.1c0.2-0.2,0.6-0.3,0.9-0.3
										c0.3,0,0.6,0.2,0.8,0.4c0.4,0.5,0.5,1.1,0.4,1.6c-0.1,0.5-0.3,0.9-0.4,1.1c-0.1,0.3-0.2,0.4-0.2,0.4c0,0,0.1-0.1,0.3-0.3
										c0.2-0.2,0.4-0.6,0.5-1.1c0.1-0.5,0.1-1.2-0.4-1.8c-0.4-0.6-1.5-0.8-2.1-0.2c0,0,0,0.1-0.1,0.1l0.2,0.1
										c0.1-0.5,0.2-1.1,0.1-1.6c-0.2-0.5-0.7-0.9-1.2-0.8l0.1,0.1c0-0.4-0.2-0.8-0.4-1c-0.2-0.3-0.5-0.4-0.7-0.5
										c-0.2-0.1-0.4-0.1-0.5-0.1C361.4,120.9,361.3,120.9,361.3,120.9z"/>
								</g>
							</g>
						</g>
					</g>
					<g>
						<g>
							<g>
								<g>
									<path class="st9" d="M372.2,130c0,0,0.1,0,0.4,0c0.2-0.1,0.5-0.2,0.8-0.5c0.3-0.3,0.6-0.7,0.7-1.3c0-0.3,0.1-0.5,0.2-0.7
										c0.2-0.2,0.5-0.3,0.7-0.6c0.4-0.6,0.3-1.4-0.2-1.8l0,0.2c0.7-0.5,1-1.1,1.3-1.5c0.2-0.4,0.3-0.7,0.2-0.7
										c0,0-0.1,0.2-0.4,0.6c-0.2,0.4-0.7,0.9-1.3,1.3l-0.1,0.1l0.1,0.1c0.4,0.3,0.5,1,0.1,1.5c-0.2,0.2-0.5,0.3-0.7,0.5
										c-0.3,0.3-0.3,0.6-0.3,0.8c-0.1,0.5-0.3,0.9-0.6,1.2C372.7,129.8,372.1,129.9,372.2,130z"/>
								</g>
							</g>
						</g>
					</g>
					<g>
						<g>
							<g>
								<g>
									<path class="st9" d="M375.4,132.6c0,0,0.1,0,0.2,0c0.1,0,0.4,0,0.6,0c0.5-0.1,1.3-0.3,2-0.9l-0.2,0c0.3,0.5,0.8,0.8,1.5,1
										c0.3,0.1,0.7,0.1,1,0c0.3-0.1,0.7-0.2,0.9-0.6c0.1-0.1,0.1-0.3,0.1-0.4c0-0.1,0.1-0.2,0.2-0.2c0.2-0.1,0.4-0.2,0.6-0.2
										c0.2,0,0.5-0.1,0.7-0.2c0.2-0.1,0.4-0.3,0.4-0.6l-0.2,0.1c0.5,0.3,1.1,0.3,1.6,0.2c0.5-0.1,0.9-0.3,1.1-0.6
										c0.3-0.2,0.4-0.5,0.5-0.6c0.1-0.2,0.1-0.3,0.1-0.3c0,0-0.2,0.4-0.7,0.8c-0.3,0.2-0.6,0.4-1.1,0.5c-0.4,0.1-1,0.1-1.5-0.2
										l-0.2-0.1l0,0.2c0,0.2-0.1,0.3-0.3,0.4c-0.2,0.1-0.4,0.1-0.6,0.2c-0.2,0-0.5,0.1-0.7,0.3c-0.1,0.1-0.2,0.2-0.3,0.3
										c-0.1,0.1-0.1,0.3-0.1,0.3c-0.1,0.2-0.4,0.4-0.7,0.5c-0.3,0.1-0.6,0.1-0.9,0c-0.6-0.1-1.1-0.4-1.3-0.8l-0.1-0.1l-0.1,0.1
										c-0.6,0.6-1.4,0.9-1.9,1C375.7,132.6,375.4,132.5,375.4,132.6z"/>
								</g>
							</g>
						</g>
					</g>
					<g>
						<g>
							<g>
								<g>
									<path class="st9" d="M395.5,142.5C395.5,142.5,395.6,142.5,395.5,142.5c0.1-0.1,0.1-0.2,0.1-0.4c0-0.2,0.1-0.6,0-1.1
										c-0.1-0.5-0.3-1-0.6-1.5c-0.1-0.3-0.3-0.6-0.5-0.9c-0.1-0.1-0.2-0.3-0.4-0.4c-0.2-0.1-0.4-0.2-0.6-0.1l0.2,0.1
										c0.1-0.6-0.1-1.3-0.7-1.7c-0.6-0.4-1.4-0.5-2.1,0l0.2,0.1c0-0.4-0.1-0.8-0.4-1c-0.3-0.3-0.7-0.4-1.1-0.2
										c-0.2,0.1-0.4,0.2-0.6,0.3l0.2,0.1c0-0.2-0.1-0.5-0.2-0.6c-0.2-0.2-0.4-0.3-0.6-0.3c-0.4-0.1-0.8,0.1-1.2,0.2l0.2,0.1
										c-0.2-0.5-0.6-0.7-1.1-0.9c-0.4-0.2-0.9-0.2-1.3-0.1c-0.8,0.1-1.5,0.5-2.1,0.8l0.1,0.1c0.1-0.1,0.1-0.3,0-0.5
										c-0.1-0.1-0.2-0.2-0.3-0.3c-0.2-0.1-0.5-0.2-0.7-0.2c-0.4,0-0.8,0.1-1.1,0.2c-0.3,0.1-0.5,0.2-0.6,0.3
										c-0.1,0.1-0.2,0.1-0.2,0.1c0,0,0.3-0.2,0.9-0.3c0.3-0.1,0.6-0.2,1.1-0.2c0.2,0,0.4,0.1,0.6,0.2c0.2,0.1,0.3,0.3,0.2,0.5
										l-0.2,0.3l0.3-0.1c0.6-0.3,1.2-0.6,2-0.8c0.4-0.1,0.8,0,1.2,0.1c0.4,0.1,0.7,0.4,0.9,0.8l0.1,0.1l0.1,0
										c0.3-0.1,0.7-0.2,1-0.2c0.3,0,0.6,0.3,0.6,0.6l-0.1,0.5l0.3-0.4c0.1-0.1,0.3-0.2,0.4-0.3c0.3-0.1,0.6,0,0.9,0.2
										c0.2,0.2,0.4,0.5,0.3,0.8l0,0.3l0.2-0.2c0.5-0.4,1.3-0.3,1.8,0c0.5,0.4,0.7,1,0.6,1.5l0,0.2l0.2-0.1
										c0.3-0.1,0.6,0.1,0.8,0.4c0.2,0.3,0.4,0.6,0.5,0.8c0.3,0.6,0.5,1.1,0.6,1.5C395.7,142,395.5,142.5,395.5,142.5z"/>
								</g>
							</g>
						</g>
					</g>
					<g>
						<g>
							<g>
								<g>
									<path class="st9" d="M393.4,150.1c0,0,0.1,0,0.1-0.2c0.1-0.1,0.2-0.3,0.4-0.5c0.1-0.2,0.3-0.5,0.3-1c0-0.2,0-0.4-0.1-0.6
										c-0.1-0.2-0.3-0.4-0.5-0.5l0,0.1c0.3-0.3,0.4-0.8,0.2-1.3c-0.2-0.5-0.8-0.8-1.3-0.7l0.1,0.2c0.3-0.3,0.3-0.8,0.1-1.2
										c-0.2-0.4-0.7-0.6-1.1-0.6c-0.2,0-0.4,0-0.6-0.1c-0.2,0-0.3-0.2-0.3-0.3c-0.1-0.2-0.1-0.4-0.3-0.6
										c-0.1-0.2-0.4-0.3-0.6-0.4c-0.5-0.1-1-0.1-1.4-0.2c-0.4,0-0.9-0.1-1.1-0.4c-0.1-0.1-0.2-0.3-0.3-0.5
										c-0.1-0.2-0.3-0.4-0.5-0.5c-0.4-0.2-0.9-0.2-1.2,0l0.1,0.2c0.3-0.4,0.2-0.9,0-1.2c-0.2-0.3-0.6-0.5-0.9-0.6
										c-0.7-0.1-1.3,0-1.7,0.1c-0.5,0.1-0.8,0.2-1.1,0.3c-0.2,0.1-0.4,0.2-0.4,0.2c0,0,0.5-0.2,1.4-0.4c0.5-0.1,1.1-0.1,1.7,0
										c0.3,0.1,0.6,0.2,0.8,0.5c0.2,0.3,0.3,0.7,0,1l-0.3,0.4l0.5-0.2c0.3-0.1,0.7-0.1,1,0c0.2,0.1,0.3,0.2,0.4,0.4
										c0.1,0.2,0.2,0.4,0.3,0.6c0.2,0.2,0.4,0.3,0.6,0.4c0.2,0.1,0.5,0.1,0.7,0.1c0.5,0,0.9,0,1.3,0.1c0.2,0.1,0.4,0.2,0.5,0.3
										c0.1,0.1,0.2,0.3,0.3,0.5c0.1,0.2,0.3,0.4,0.5,0.5c0.2,0.1,0.4,0,0.6,0.1c0.4,0,0.7,0.2,0.9,0.5c0.2,0.3,0.2,0.7,0,0.9
										l-0.2,0.3l0.3-0.1c0.5-0.1,0.9,0.2,1.1,0.6c0.2,0.4,0.1,0.8-0.1,1.1l-0.1,0.1l0.1,0c0.4,0.1,0.6,0.6,0.6,0.9
										c0,0.4-0.1,0.7-0.2,0.9C393.6,149.9,393.4,150.1,393.4,150.1z"/>
								</g>
							</g>
						</g>
					</g>
					<g>
						<g>
							<g>
								<g>
									<path class="st9" d="M394.2,164.5c0,0,0.1,0,0.3-0.1c0.2-0.1,0.4-0.2,0.6-0.4c0.2-0.2,0.5-0.6,0.5-1.1c0.1-0.5,0-1-0.4-1.5
										l0,0.1c0.3-0.3,0.6-0.7,0.8-1.3c0.1-0.3,0.1-0.6,0-0.9c-0.1-0.3-0.3-0.6-0.6-0.7l0,0.2c0.5-0.2,0.8-0.8,0.8-1.3
										c0-0.3-0.1-0.6-0.2-0.9c-0.1-0.3-0.4-0.5-0.6-0.6c-0.2-0.1-0.3-0.3-0.3-0.5c0-0.3,0-0.5-0.1-0.8c-0.2-0.5-0.6-0.9-0.9-1.1
										c-0.3-0.3-0.6-0.6-0.9-0.8c-0.6-0.5-1.1-0.8-1.6-0.9c-0.2-0.1-0.4-0.1-0.5-0.1c-0.1,0-0.2,0-0.2,0c0,0,0.2,0,0.6,0.2
										c0.4,0.1,0.9,0.5,1.5,0.9c0.3,0.3,0.6,0.5,0.9,0.8c0.3,0.3,0.7,0.6,0.8,1.1c0.1,0.2,0.1,0.4,0.1,0.7c0,0.1,0,0.3,0.1,0.4
										c0.1,0.1,0.2,0.2,0.3,0.3c0.5,0.2,0.7,0.7,0.7,1.3c0,0.5-0.3,0.9-0.6,1.1l-0.2,0.1l0.2,0.1c0.4,0.2,0.6,0.8,0.4,1.3
										c-0.1,0.5-0.5,0.8-0.7,1.2l-0.1,0.1l0.1,0.1c0.3,0.4,0.5,0.9,0.4,1.4c0,0.4-0.2,0.8-0.5,1
										C394.6,164.4,394.2,164.4,394.2,164.5z"/>
								</g>
							</g>
						</g>
					</g>
					<g>
						<g>
							<g>
								<g>
									<path class="st9" d="M372,141.1c0,0,0.3,0,0.8-0.2c0.2-0.1,0.5-0.3,0.8-0.6c0.2-0.3,0.4-0.7,0.4-1.1c0-0.1,0-0.2-0.1-0.3
										l-0.1,0.2c0.4-0.2,0.6-0.5,0.7-0.8c0.1-0.3,0-0.7-0.1-0.9c-0.3-0.4-0.6-0.5-0.6-0.5c0,0,0.3,0.2,0.4,0.6
										c0.1,0.2,0.1,0.5,0,0.7c-0.1,0.3-0.3,0.5-0.6,0.6l-0.1,0l0.1,0.1c0,0.1,0.1,0.1,0.1,0.2c0.1,0.3-0.1,0.7-0.3,0.9
										c-0.2,0.2-0.4,0.4-0.7,0.5C372.3,141,372,141.1,372,141.1z"/>
								</g>
							</g>
						</g>
					</g>
					<g>
						<g>
							<g>
								<g>
									<path class="st9" d="M366.1,137.7c0,0-0.3-0.4-0.1-1c0.1-0.3,0.3-0.6,0.7-0.8c0.4-0.1,0.9-0.1,1.2,0.3l0.2,0.2l0.1-0.2
										c0.1-0.3,0.2-0.5,0.4-0.8c0.2-0.2,0.4-0.4,0.7-0.4c0.4,0,0.9,0.4,0.7,0.8l0.2,0.1c0.1-0.5,0.5-1,0.8-1.3
										c0.4-0.3,0.8-0.3,1.2-0.3c0.7,0,1.1,0.3,1.1,0.3c0,0-0.1-0.1-0.2-0.2c-0.2-0.1-0.5-0.2-0.8-0.3c-0.4,0-0.9,0-1.3,0.3
										c-0.4,0.3-0.8,0.8-1,1.4l0.2,0.1c0.1-0.3,0-0.6-0.2-0.8c-0.2-0.2-0.5-0.3-0.8-0.3c-0.4,0-0.7,0.3-0.9,0.5
										c-0.2,0.3-0.3,0.6-0.4,0.8l0.2-0.1c-0.4-0.5-1.1-0.5-1.5-0.3c-0.5,0.2-0.7,0.6-0.8,0.9c-0.1,0.3,0,0.6,0.1,0.8
										C366,137.7,366.1,137.7,366.1,137.7z"/>
								</g>
							</g>
						</g>
					</g>
				</g>
			</g>
			<g>
				<g>
					<g>
						<polygon class="st12" points="313.4,440.4 310.1,457 299,458.1 294.3,452.6 298.6,432.7 						"/>
					</g>
				</g>
				<g>
					<g>
						<g>
							<g>
								<g>
									<g>
										<g>
											<g>
												<path class="st6" d="M292.1,450.7l0,1.3c0,0-21.2,8.2-21.6,12.4l41.7,1l-0.2-14.5C305.7,453.7,299.2,453.9,292.1,450.7z
													"/>
											</g>
										</g>
									</g>
								</g>
							</g>
						</g>
					</g>
					<g class="st14">
						<g>
							<g>
								<g>
									<g>
										<g>
											<g>
												<g>
													<path class="st8" d="M307.6,455.4c0.8,0.3,1.3,1.2,1.1,2.1c-0.2,0.8-1.1,1.4-1.9,1.2c-0.8-0.2-1.5-1.4-1.2-2.2
														c0.3-0.8,1.4-1.4,2.2-1"/>
												</g>
											</g>
										</g>
									</g>
								</g>
							</g>
						</g>
					</g>
					<g>
						<g>
							<g>
								<g>
									<g>
										<g>
											<g>
												<path class="st5" d="M312.2,465.4l-0.1-3.5l-39.9,0.3c0,0-2.2,1.2-2,3.4L312.2,465.4z"/>
											</g>
										</g>
									</g>
								</g>
							</g>
						</g>
					</g>
					<g>
						<g>
							<g>
								<g>
									<g>
										<g>
											<g>
												<g>
													<path class="st5" d="M291.9,452.1c0,0.2,1,0.3,2,1c1,0.7,1.5,1.6,1.7,1.5c0.2,0-0.1-1.3-1.3-2.2
														C293.1,451.7,291.9,451.9,291.9,452.1z"/>
												</g>
											</g>
										</g>
									</g>
								</g>
							</g>
						</g>
					</g>
					<g>
						<g>
							<g>
								<g>
									<g>
										<g>
											<g>
												<g>
													<path class="st5" d="M287.5,453.9c-0.1,0.2,0.8,0.6,1.5,1.5c0.7,0.9,0.8,1.9,1.1,1.9c0.2,0,0.4-1.2-0.5-2.3
														C288.7,453.8,287.5,453.7,287.5,453.9z"/>
												</g>
											</g>
										</g>
									</g>
								</g>
							</g>
						</g>
					</g>
					<g>
						<g>
							<g>
								<g>
									<g>
										<g>
											<g>
												<g>
													<path class="st5" d="M284.9,459.3c0.2,0.1,0.5-1,0-2.2c-0.5-1.2-1.4-1.7-1.5-1.5c-0.1,0.2,0.5,0.8,0.9,1.8
														C284.6,458.4,284.7,459.3,284.9,459.3z"/>
												</g>
											</g>
										</g>
									</g>
								</g>
							</g>
						</g>
					</g>
				</g>
			</g>
			<g>
				<g>
					<g>
						<path class="st12" d="M377.9,436.5c0.2,0.5,0,21.2,0,21.2l-6.2,3.9l-8.1-5.1l-1.7-20H377.9z"/>
					</g>
				</g>
				<g>
					<g>
						<g>
							<g>
								<g>
									<path class="st6" d="M363,454.7c0,0,11.1,8.2,16.4,1.1l1.4,3.5l6.3,24.6c0.4,1.6-0.3,3.3-1.8,3.9c-1.1,0.5-2.4,0.2-3.2-0.6
										c-4.6-4.5-21.2-21.3-21.1-23.6l0.1-6C361.1,456.3,361.8,455.2,363,454.7L363,454.7z"/>
								</g>
							</g>
						</g>
					</g>
				</g>
				<g>
					<g>
						<g>
							<g>
								<g>
									<path class="st5" d="M384.8,488L361,461.5l0,1.3c-0.1,1.4,0.5,2.1,1.1,2.9c2.2,2.5,7.3,9.7,19.9,22.3
										C382.8,488.8,384.2,488.1,384.8,488L384.8,488z"/>
								</g>
							</g>
						</g>
					</g>
				</g>
				<g class="st14">
					<g>
						<g>
							<g>
								<g>
									<g>
										<path class="st8" d="M364.5,457.5c0.7,0.5,1,1.7,0.5,2.5c-0.5,0.8-1.6,1.1-2.4,0.6c-0.8-0.5-1.1-1.9-0.5-2.7
											c0.6-0.7,1.9-1,2.5-0.3"/>
									</g>
								</g>
							</g>
						</g>
					</g>
				</g>
				<g>
					<g>
						<g>
							<g>
								<g>
									<g>
										<path class="st5" d="M377.9,474.4c0.2,0.1,0.8-1.5,2.6-2.4c1.7-0.9,3.4-0.5,3.4-0.7c0-0.1-0.4-0.3-1-0.4
											c-0.7-0.1-1.7,0-2.7,0.5c-1,0.5-1.7,1.3-2,1.9C377.9,473.9,377.8,474.4,377.9,474.4z"/>
									</g>
								</g>
							</g>
						</g>
					</g>
				</g>
				<g>
					<g>
						<g>
							<g>
								<g>
									<g>
										<path class="st5" d="M380.1,478.6c0.1,0.1,1.1-0.9,2.6-1.3c1.5-0.5,2.9-0.2,2.9-0.4c0.1-0.2-1.3-0.8-3.1-0.2
											C380.7,477.1,379.9,478.5,380.1,478.6z"/>
									</g>
								</g>
							</g>
						</g>
					</g>
				</g>
				<g>
					<g>
						<g>
							<g>
								<g>
									<g>
										<path class="st5" d="M374,469.1c0.1,0.1,1.6-1.4,3.9-2.4c2.3-1,4.4-0.9,4.4-1.1c0-0.2-2.2-0.6-4.6,0.5
											C375.1,467.1,373.8,469,374,469.1z"/>
									</g>
								</g>
							</g>
						</g>
					</g>
				</g>
				<g>
					<g>
						<g>
							<g>
								<g>
									<g>
										<path class="st5" d="M373.4,461.6c0.1,0.2,1.7-0.5,3.9-0.6c2.1-0.1,3.8,0.4,3.9,0.2c0.1-0.2-1.6-1.1-3.9-0.9
											C375,460.4,373.3,461.4,373.4,461.6z"/>
									</g>
								</g>
							</g>
						</g>
					</g>
				</g>
				<g>
					<g>
						<g>
							<g>
								<g>
									<g>
										<path class="st5" d="M378.5,460.9c0,0,0-0.4-0.2-1.2c-0.2-0.7-0.6-1.8-1.4-2.9c-0.4-0.5-0.9-1.2-1.8-1.4
											c-0.4-0.1-1,0.1-1.3,0.5c-0.3,0.5-0.3,1-0.2,1.5c0.4,1.9,2.3,3.5,4.4,3.4c2.1-0.2,3.8-1.8,4.3-3.6c0.1-0.5,0.1-1-0.2-1.5
											c-0.3-0.5-0.9-0.6-1.4-0.4c-0.8,0.3-1.3,0.9-1.7,1.4c-0.9,1-1.3,2.1-1.6,2.8c-0.3,0.7-0.3,1.1-0.3,1.1
											c0.1,0.1,0.5-1.6,2.2-3.6c0.4-0.5,0.9-1,1.5-1.2c0.3-0.1,0.6,0,0.7,0.2c0.2,0.2,0.2,0.6,0.1,1c-0.5,1.5-2,3-3.8,3.1
											c-1.8,0.1-3.5-1.3-3.8-2.8c-0.1-0.4,0-0.8,0.1-1c0.1-0.3,0.4-0.4,0.7-0.3c0.6,0.1,1.1,0.7,1.5,1.2
											C378.2,459.2,378.4,460.9,378.5,460.9z"/>
									</g>
								</g>
							</g>
						</g>
					</g>
				</g>
			</g>
			<g>
				<g>
					<g>
						<g>
							<path class="st15" d="M389.6,265.8c0,0,4.3,8,7.8,20.9c3.4,12.9,7.3,19.4,5.9,43.2c-0.7,12.2-10.8,45.1-13.1,56.7
								c-1.9,9.6-7.9,54.5-10.9,66.3l0,0h-17.3l-1.8-132.9c0,0-27.5,77.6-31,86.5c-3.5,9-15.7,44.5-15.7,44.5l-21.5-5.7
								c0,0,13.1-63.6,16.4-79.4c3.3-15.8,12.2-60.5,15.9-73.9c3.8-13.4,7.4-27.6,7.4-27.6L389.6,265.8z"/>
						</g>
					</g>
				</g>
				<g>
					<g>
						<g>
							<path class="st16" d="M387.5,289.3c0,0,0,0.2,0.2,0.7c0.1,0.4,0.4,1,0.8,1.7c0.8,1.4,2.1,3.1,4,4.5c1.9,1.4,3.9,2.1,5.4,2.4
								c0.7,0.1,1.4,0.2,1.8,0.2c0.4,0,0.7,0,0.7-0.1c0-0.1-0.9-0.1-2.4-0.5c-1.4-0.3-3.4-1.1-5.2-2.4c-1.8-1.3-3.2-3-4-4.3
								C387.9,290.2,387.6,289.3,387.5,289.3z"/>
						</g>
					</g>
				</g>
				<g>
					<g>
						<g>
							<path class="st16" d="M322.5,299c0,0,0.2,0.1,0.6,0.2c0.4,0.1,1,0.2,1.8,0.2c0.8,0,1.7,0,2.7-0.3c1-0.2,2-0.6,3.1-1.2
								c2.1-1.1,3.6-2.7,4.5-4c0.9-1.2,1.4-2.1,1.3-2.1c-0.1,0-0.6,0.7-1.6,1.9c-1,1.1-2.5,2.6-4.5,3.8c-2,1.1-4,1.5-5.5,1.5
								C323.4,299.1,322.5,298.9,322.5,299z"/>
						</g>
					</g>
				</g>
				<g>
					<g>
						<g>
							<path class="st16" d="M359.9,291.5c0,0-0.1,0.4-0.2,1.1c-0.1,0.7-0.2,1.7-0.3,2.9c-0.2,2.5-0.4,6-0.3,9.8
								c0,3.8,0.3,7.3,0.5,9.8c0.1,1.2,0.2,2.2,0.3,2.9c0.1,0.7,0.2,1.1,0.2,1.1c0,0,0-0.4,0-1.1c-0.1-0.8-0.1-1.8-0.2-3
								c-0.2-2.5-0.3-5.9-0.4-9.7c0-3.8,0.1-7.3,0.2-9.7c0.1-1.2,0.1-2.1,0.1-3C359.9,291.9,359.9,291.5,359.9,291.5z"/>
						</g>
					</g>
				</g>
			</g>
			<g>
				<g>
					<g>
						<path class="st16" d="M383.1,189l15.7,7.5l-2.2,28.6c0,0-1.8,2.2-4.9,17.5c-3,15.3,7,45.1,7,45.1l-73.8,1.8
							c0,0,8.7-61.8,9.7-70l3.7-31.3l14.8-0.8h4.3l3.7,26.6l18.6-25.8L383.1,189z"/>
					</g>
				</g>
			</g>
			<g>
				<g>
					<g>
						<path class="st5" d="M314.9,244.5c0.1,0,0.2-0.6,0.2-1.7c0-1.1-0.1-2.5-0.7-4c-0.5-1.5-1.3-2.8-2-3.5
							c-0.7-0.8-1.2-1.2-1.2-1.1c-0.1,0.1,1.7,1.9,2.8,4.8C315.1,241.9,314.7,244.5,314.9,244.5z"/>
					</g>
				</g>
			</g>
			<g>
				<g>
					<path class="st16" d="M285,237.4l26.3-0.2l9.9-29.3l0,0c0,0,1.2-3,5.2-10.3c5.3-9.7,12-9.2,12-9.2l8.1,12.5l-8.6,19.2
						c0,0-8.2,36.2-17.7,37.8c-15.8,2.6-44-8.3-44-8.3L285,237.4z"/>
				</g>
			</g>
			<g class="st17">
				<g>
					<g>
						<path d="M331.1,246.4c0-1-0.3-2.3,0.6-2.7c0.7-0.3,1.5-0.1,2.2,0.2c21.8,7.7,34.4-1.2,56.1,6.5l4.4,22.4
							c-9.7,0.1-14.1-2.2-23.6-5.2c-9.7-3.1-19.4-6.2-28.9-9.9c-2.6-1-5.3-2.1-7.5-3.9C332.3,251.8,331.1,249.3,331.1,246.4z"/>
					</g>
				</g>
			</g>
			<g>
				<g>
					<path class="st5" d="M336.3,209.4c0.1,0-0.2,0.6-0.5,1.5c-0.3,0.9-0.7,2.2-0.9,3.6c-0.5,2.9-0.6,5.3-0.8,5.3
						c-0.1,0-0.3-2.4,0.3-5.4c0.3-1.5,0.7-2.8,1.1-3.7C335.9,209.8,336.3,209.4,336.3,209.4z"/>
				</g>
			</g>
		</g>
		<g>
			<g>
				<g>
					<path class="st6" d="M476.1,251.4l-6-0.2l0.3-13.2l6,0.2c3.4,0.1,6.2,3,6.1,6.4l0,0.7C482.4,248.8,479.6,251.5,476.1,251.4z"/>
				</g>
				<g>
					<path class="st6" d="M206.9,232.4l53.8-5.4l202.1,5.2c2,0.1,3.5,1.7,3.5,3.7l-0.5,19c-0.1,2-1.7,3.5-3.7,3.5L259.2,253
						l-52.6-10.8L206.9,232.4z"/>
				</g>
				<g>
					<path class="st5" d="M206.8,235.2l-4.9-0.1l-4.2,1.4c-0.3,0.3-0.3,0.6,0,0.9l4.2,1.4l4.8,0.1L206.8,235.2z"/>
				</g>
				<g>
					
						<rect x="260.3" y="227" transform="matrix(0.9997 2.572183e-02 -2.572183e-02 0.9997 6.2614 -6.6704)" class="st5" width="4.2" height="26.1"/>
				</g>
				<g>
					<g>
						<path class="st6" d="M466.9,233.3L466.9,233.3c-0.1,2.6-2.2,4.6-4.8,4.5l-100.9-2.6c-2.6-0.1-4.6-2.2-4.5-4.8l0,0
							c0.1-2.6,2.2-4.6,4.8-4.5l100.9,2.6C464.9,228.6,467,230.7,466.9,233.3z"/>
					</g>
					<g>
						<g>
							<path class="st5" d="M466.9,233.3c-0.1,0,0.1-0.9-0.6-2.2c-0.4-0.7-1-1.4-2-1.9c-0.5-0.3-1.1-0.4-1.7-0.5
								c-0.6,0-1.3,0-2.1-0.1c-5.9-0.1-14.3-0.3-24.7-0.6c-10.5-0.3-22.9-0.6-36.7-0.9c-6.9-0.2-14.2-0.4-21.7-0.5
								c-3.8-0.1-7.6-0.2-11.5-0.3c-1,0-1.9,0-2.9-0.1c-1,0-2-0.1-2.9,0.1c-1.8,0.5-3.2,2.2-3.2,4.1c-0.1,1.9,1.2,3.7,3,4.3
								c0.9,0.3,1.9,0.2,2.8,0.3c1,0,2,0.1,2.9,0.1c3.9,0.1,7.7,0.2,11.5,0.3c7.5,0.2,14.8,0.4,21.7,0.6c13.8,0.4,26.2,0.7,36.7,1
								c10.4,0.3,18.9,0.5,24.7,0.7c0.7,0,1.4,0.1,2.1,0.1c0.6,0,1.2-0.2,1.7-0.4c1-0.5,1.7-1.2,2.1-1.8
								C467,234.2,466.8,233.3,466.9,233.3c0,0,0,0.2,0,0.6c0,0.4-0.2,1-0.6,1.7c-0.4,0.7-1,1.4-2.1,1.9c-0.5,0.2-1.1,0.4-1.8,0.4
								c-0.7,0-1.3,0-2.1,0c-5.9-0.1-14.3-0.3-24.7-0.6c-10.5-0.3-22.9-0.6-36.7-0.9c-6.9-0.2-14.2-0.4-21.7-0.5
								c-3.8-0.1-7.6-0.2-11.5-0.3c-1,0-1.9,0-2.9-0.1l-1.5,0c-0.5,0-1-0.1-1.5-0.2c-2-0.6-3.5-2.7-3.4-4.8c0-2.1,1.6-4.1,3.6-4.6
								c0.5-0.1,1-0.2,1.5-0.2l1.5,0c1,0,2,0.1,2.9,0.1c3.9,0.1,7.7,0.2,11.5,0.3c7.5,0.2,14.8,0.4,21.7,0.6
								c13.8,0.4,26.2,0.7,36.7,1c10.4,0.3,18.9,0.5,24.7,0.7c0.7,0,1.4,0,2.1,0.1c0.7,0.1,1.3,0.3,1.8,0.5c1,0.5,1.6,1.3,2,2
								c0.3,0.7,0.5,1.3,0.5,1.7C466.9,233.1,466.9,233.3,466.9,233.3z"/>
						</g>
					</g>
				</g>
				<g>
					<polygon class="st5" points="466.2,234.5 471.4,237.2 471,252.1 465.7,255.1 					"/>
				</g>
			</g>
			<g>
				<g>
					<g>
						<g>
							<path class="st16" d="M405.1,245.1l-11.4-17.6l0,0l0,0l-1-1.6l0,0l-1.5-2.4l6.7-27.4c0,0,5.7,2.6,8.9,7
								c3.2,4.4,7,12.5,7,12.5s11.2,25.6,13,29.4c1.8,3.8,4.8,10.9,0,14.9c-4.8,4-37,4.1-37,4.1l-2.2-16.2L405.1,245.1z"/>
						</g>
					</g>
					<g>
						<g>
							<g>
								<path class="st5" d="M391,220.6c0.1,0-0.2-1.2-0.3-3.1c-0.1-1.9,0-4.6,0.7-7.5c0.7-2.9,1.9-5.3,2.9-6.9
									c1-1.6,1.8-2.6,1.7-2.6c0,0-0.2,0.2-0.6,0.6c-0.4,0.4-0.9,1-1.4,1.8c-1.1,1.6-2.4,4.1-3.1,7c-0.7,2.9-0.8,5.7-0.6,7.6
									c0.1,1,0.2,1.8,0.4,2.3C390.9,220.3,391,220.6,391,220.6z"/>
							</g>
						</g>
					</g>
				</g>
				<g>
					<g>
						<g>
							<path class="st12" d="M383.9,250.8c0,0-0.8-2-2.9-3.8c-2.1-1.8-6.7-3.3-7.3-5c-0.6-1.8-2.4-0.4-1.9,1.8c0.3,1.4,3.1,5,3.1,5
								s-3.4,0.8-5.6-0.4c-2.2-1.3-10.1-3.6-10.9-2.5c-0.9,1.2,1.1,1.7,2,2.2c0.7,0.4,5.9,3,5.9,3s-10.4-0.4-11.7,0.1
								c-1.4,0.5,0,1.8,0.7,1.8c0.4,0,2.2,1.6,3.5,2.8c0.9,0.8,2,1.2,3.1,1.3l2.4,0l-7.3,0.8c0,0-1.3,1.2,0.5,1.8
								c0.8,0.3,21.1,2.1,22.8,2c3.9-0.1,9.4-0.4,9.4-0.4l-1-11L383.9,250.8z"/>
						</g>
					</g>
					<g>
						<g>
							<g>
								<path class="st13" d="M355,253.1c0,0.1,2.1,1,4.9,1.5c2.8,0.5,5.2,0.4,5.2,0.3c0-0.1-2.3-0.3-5.1-0.8
									C357.2,253.6,355,252.9,355,253.1z"/>
							</g>
						</g>
					</g>
				</g>
			</g>
			<g>
				<g class="st7">
					<g>
						<path d="M278.3,240.3c2-0.4,3.9,0.8,5.6,2c1,0.8,2,1.5,2.9,2.4c2.5,2.5,3.9,6,6,8.9l-12-1.8L278.3,240.3z"/>
					</g>
				</g>
				<g>
					<g>
						<g>
							<g>
								<path class="st12" d="M296.7,254.1l-5.2-1.1c0,0-4.7-7.5-7.2-8.4l-1.4-0.6c0,0-1.8-4-4.3-3.5c-1.5-1-2.8-0.6-2.9,0.9
									c0,0-0.7-3.3-3.5-2s3.8,12.9,3.8,12.9s2.3,5.9,5.1,3.9c0,0,2.8,0.7,4.7-0.4c0,0,1.8,2.5,5.9,0.6L296.7,254.1z"/>
							</g>
						</g>
					</g>
					<g>
						<g>
							<g>
								<g>
									<path class="st13" d="M285.3,254.5c0,0-0.1,0.2,0,0.6c0,0.4,0.3,0.9,0.7,1.3c0.5,0.5,1.2,0.9,2.1,1c0.9,0.1,1.8,0,2.7-0.3
										c1.9-0.5,3.4-1.3,4.5-2c1.1-0.7,1.6-1.2,1.6-1.2c-0.1-0.1-2.6,1.8-6.2,2.7c-0.9,0.3-1.8,0.4-2.6,0.3
										c-0.8-0.1-1.4-0.4-1.9-0.8C285.3,255.4,285.4,254.5,285.3,254.5z"/>
								</g>
							</g>
						</g>
					</g>
					<g>
						<g>
							<g>
								<g>
									<path class="st13" d="M280.3,251.9c0.1-0.1-1.4-2.3-2.8-5.4c-1.4-3.1-2-5.8-2.1-5.7c-0.1,0,0,0.7,0.3,1.8
										c0.3,1.1,0.7,2.6,1.4,4.1c0.7,1.6,1.5,2.9,2.1,3.8C279.8,251.4,280.2,251.9,280.3,251.9z"/>
								</g>
							</g>
						</g>
					</g>
					<g>
						<g>
							<g>
								<g>
									<path class="st13" d="M283.3,251.6c0.1-0.1-1.2-2.4-2.5-5.5c-1.3-3.1-2.1-5.6-2.2-5.6c-0.1,0,0.5,2.7,1.8,5.8
										C281.7,249.4,283.2,251.7,283.3,251.6z"/>
								</g>
							</g>
						</g>
					</g>
					<g>
						<g>
							<g>
								<g>
									<path class="st13" d="M279.3,254.3c-0.1,0,0,1,0.8,1.7c0.8,0.7,1.8,0.7,1.8,0.5c0-0.1-0.8-0.3-1.5-0.9
										C279.7,255,279.4,254.3,279.3,254.3z"/>
								</g>
							</g>
						</g>
					</g>
					<g>
						<g>
							<g>
								<g>
									<path class="st13" d="M286.5,250c0.1-0.1-0.7-1.3-1.7-2.9c-1-1.6-1.7-2.9-1.8-2.8c-0.1,0.1,0.4,1.5,1.4,3.1
										C285.4,248.9,286.4,250.1,286.5,250z"/>
								</g>
							</g>
						</g>
					</g>
				</g>
			</g>
		</g>
	</g>
</g>
</svg>
